<svg width="40" height="48" fill="none" xmlns="http://www.w3.org/2000/svg"><g clip-path="url(#clip0_151_212)"><path d="M3.432 46.542h32.735c-1.527-1.633-11.403-3.76-15.776-3.378 0 .445.005.907-.001 1.369-.006.487-.198.847-.74.835-.5-.01-.68-.355-.685-.811-.005-.444-.002-.89-.002-1.351-.946 0-1.822-.09-2.67.018-2.253.285-4.491.664-6.74.982-.323.047-.694.029-.988-.093-.145-.06-.289-.496-.211-.637.138-.246.424-.516.69-.567 1.763-.34 3.531-.68 5.311-.913 1.479-.194 2.977-.24 4.535-.356-.146-1.903-.646-3.657-1.575-5.274-.094-.165-.57-.205-.845-.159-4.28.732-7.788-.623-10.545-3.926-1.651-1.977-2.371-4.314-2.364-6.872.003-1.108.174-1.282 1.225-1.55 6.917-1.766 13.644 3.543 13.561 10.678-.006.5.195 1 .3 1.5.086-.016.171-.03.257-.047V24.783c-1.284-.203-2.57-.277-3.778-.622-5.185-1.481-8.338-4.97-9.73-10.125-.134-.495-.217-.984.43-1.143.635-.156.797.299.926.803.996 3.846 3.215 6.72 6.822 8.451 1.446.695 2.984 1.049 4.776 1.076-.648-1.067-1.141-2.053-1.793-2.922-1.515-2.015-3.104-3.972-4.665-5.951-.093-.117-.207-.218-.306-.33-.315-.359-.338-.73.025-1.055.345-.309.702-.219.99.104.865.967 1.795 1.89 2.56 2.934 1.357 1.851 2.61 3.778 3.906 5.673.082.12.154.248.23.372l.233-.013c.042-1.021.164-2.047.111-3.064-.32-6.2-5.7-11.349-11.91-11.478-.653-.013-.976.168-1.033.825-.042.471-.142.937-.208 1.407-.066.466-.34.811-.787.673-.258-.08-.6-.53-.575-.777.1-.938.315-1.865.524-2.789.127-.564.574-.67 1.093-.7 5.521-.317 10.842 2.921 13.11 8.038.44.994.73 2.054 1.152 3.267.378-1.155.74-2.168 1.023-3.205.054-.194-.193-.488-.331-.718-2.958-4.94-.693-11.33 4.713-13.282 1.119-.403 1.305-.338 1.952.683 3.034 4.776.947 11.224-4.294 13.335-.315.128-.64.464-.767.78-.364.918-.63 1.875-.796 2.894.247-.236.492-.478.744-.71 3.297-3.034 7.156-4.244 11.599-3.584.669.099 1.048.396 1.108 1.082.054.623.147 1.24.185 1.863.028.47-.237.843-.698.76-.27-.048-.505-.429-.7-.7-.087-.12-.034-.34-.045-.515-.066-1.148-.066-1.148-1.236-1.25-6.962-.612-13.322 5.418-13.064 12.39.003.095.03.188.065.4.229-.266.404-.46.568-.662 2.39-2.94 4.979-5.672 8.21-7.716.17-.107.344-.294.513-.291.288.004.732.05.822.225.12.232.01.625-.096.914-.056.15-.315.224-.483.332-3.526 2.263-6.26 5.325-8.906 8.762 1.051 0 1.95.018 2.85-.02.133-.006.285-.246.381-.406 1.741-2.894 4.295-4.436 7.665-4.67.265-.018.634-.238.748-.466a60.393 60.393 0 001.561-3.467c.267-.64.7-.933 1.087-.561.209.2.336.69.243.963-.421 1.243-.934 2.454-1.432 3.722.111.039.291.11.476.166 1.402.442 1.47.546 1.33 2.028-.528 5.602-6.125 9.42-11.508 7.821-.585-.174-.892-.05-1.24.413-1.5 1.997-2.595 4.662-2.739 6.893.28.021.564.051.848.062 4.929.183 9.747.933 14.307 2.904 1.119.483 2.175 1.116 3.242 1.71.25.14.48.372.633.616.372.591.132 1.01-.562 1.045-.15.008-.3.002-.45.002H1.27c-.2 0-.426.057-.594-.018-.25-.11-.558-.273-.654-.493-.08-.183.036-.569.2-.717a6.495 6.495 0 011.34-.948c1.107-.574 2.24-1.098 3.37-1.627.421-.198.85-.237 1.077.282.241.555-.1.826-.564 1.021-.686.288-1.366.59-2.049.885.014.06.024.118.036.178zM16.32 34.77c-.224-.298-.374-.52-.543-.723a16.074 16.074 0 00-5.543-4.254c-.69-.324-.893-.927-.391-1.246.246-.156.729-.132 1.018 0a16.635 16.635 0 015.309 3.839c.17.183.271.433.405.65l.2-.21c-.754-5.192-6.09-8.851-11.209-7.712-.53.119-.592.387-.583.84.066 3.752 2.76 7.35 6.44 8.56 1.568.517 3.159.62 4.897.256zm8.588-1.796c.267.09.378.14.493.165 4.358.907 8.435-1.974 9.184-6.457.093-.561-.03-.79-.596-.936-3.597-.944-7.817 1.355-8.94 4.906-.024.075-.01.16-.018.312.159-.094.241-.145.325-.193 1.273-.735 2.54-1.482 3.826-2.195.418-.233.84-.188 1.06.32.205.48-.07.752-.471.944-.18.087-.364.165-.544.25-1.538.733-2.973 1.617-4.32 2.884zm-2.194-20.757l.294-.8c.696-1.922 1.391-3.846 2.089-5.769.174-.481.417-.916 1.027-.668.607.246.466.724.283 1.2-.369.953-.736 1.908-1.08 2.871-.409 1.14-.793 2.288-1.216 3.515 3.697-1.43 5.736-7.174 2.947-10.99-4.28 1.05-6.676 6.85-4.344 10.64zm-2.282 24.25c.743-1.068 1.339-2.126 2.132-3.004.729-.809.723-1.73.901-2.694l-3.033-.15v5.849z" fill="#0B5285"/></g><defs><clipPath id="clip0_151_212"><path fill="#fff" d="M0 0h39.722v48H0z"/></clipPath></defs></svg>