<svg width="49" height="48" fill="none" xmlns="http://www.w3.org/2000/svg"><g clip-path="url(#clip0_76_639)" fill="#0B5285"><path d="M5.148 36.32c-.118-.242-.192-.4-.272-.556-.735-1.427-.769-1.469.506-2.488.92-.734 1.928-1.362 2.93-1.984.396-.246.51-.44.309-.888-1.602-3.585-2.542-7.357-3.127-11.225-.016-.1-.025-.2-.035-.3-.056-.505-.062-1.023.593-1.094.595-.065.705.4.811.877.587 2.647 1.031 5.341 1.83 7.923 1.62 5.24 4.38 9.81 8.597 13.415a24.13 24.13 0 006.456 3.986c.274.114.689.074.973-.048 6.064-2.633 10.383-7.071 13.19-12.995 3.285-6.934 4.27-14.304 4.02-21.9-.023-.697-.467-.676-.895-.733-3.134-.42-6.145-1.287-9.069-2.475-2.573-1.045-5.008-2.347-7.272-3.958-.401-.285-.652-.267-1.05.006-4.922 3.402-10.341 5.563-16.271 6.4-.684.098-1.012.306-.98 1.07.072 1.758.06 3.52.085 5.28.003.253.025.503.03.754.007.479-.129.873-.693.876-.515.001-.684-.352-.696-.805a749.76 749.76 0 01-.14-5.806c-.01-.452.023-.906.064-1.356.095-1.034.21-1.086 1.207-1.28 2.094-.407 4.21-.76 6.259-1.335 3.931-1.104 7.54-2.927 10.834-5.343.616-.453 1.046-.445 1.662.002 5.027 3.645 10.641 5.834 16.793 6.648 1.407.186 1.456.181 1.522 1.611.338 7.402-.584 14.607-3.455 21.495-.096.233-.188.465-.276.701-.017.044-.003.098-.003.106 1.132.788 2.286 1.508 3.341 2.348 1.307 1.037 1.272 1.08.523 2.544-.078.153-.145.313-.245.529l3.827 2.571c.25.168.507.328.752.505.75.545.743 1.035-.052 1.494-.957.553-1.919 1.106-2.912 1.592-.617.302-.893.67-.843 1.388.07 1.026.024 2.062.015 3.094-.009 1.011-.471 1.295-1.323.797-2.452-1.436-4.892-2.893-7.347-4.325-.607-.353-.707-.78-.388-1.38.28-.528.523-1.077.833-1.718-.636-.268-1.191-.558-1.782-.718-.204-.055-.55.153-.738.336-2.436 2.355-5.23 4.15-8.34 5.48-.498.212-.924.235-1.433.018-3.04-1.296-5.801-3.017-8.163-5.334-.507-.498-.938-.657-1.558-.306-.345.195-.719.34-1.163.543.293.613.545 1.183.835 1.73.328.618.16 1.022-.432 1.366-2.434 1.418-4.853 2.861-7.283 4.287-.896.525-1.35.25-1.357-.811-.006-1.081-.035-2.165.012-3.245.024-.563-.183-.86-.672-1.107a68.369 68.369 0 01-3.044-1.664c-.838-.479-.86-.984-.06-1.531 1.49-1.024 3-2.02 4.56-3.064zm4.158-4.068c-.995.69-2.011 1.373-2.991 2.102-.156.116-.28.512-.2.669.972 1.922 1.982 3.825 2.965 5.699l4.284-2.401-4.058-6.069zm29.732.005a39775.48 39775.48 0 01-4.07 6.065l4.29 2.398c.987-1.883 1.985-3.764 2.95-5.662.081-.159.022-.535-.104-.63-1.02-.76-2.07-1.475-3.066-2.171zM2.087 40.082c1.018.563 1.92 1.097 2.854 1.562.595.296.847.694.815 1.365-.047.962-.012 1.93-.012 3.06l5.096-3.007c-.546-.102-.856-.205-1.167-.213-.883-.02-1.39-.456-1.763-1.251-.626-1.337-1.356-2.623-2.087-4.017l-3.736 2.5zm40.504 5.987c0-1.139.043-2.069-.013-2.993-.046-.736.241-1.157.89-1.474.913-.447 1.785-.974 2.779-1.523-1.306-.875-2.487-1.665-3.716-2.484-.17.302-.296.514-.41.733-.644 1.222-1.251 2.466-1.949 3.656-.197.337-.626.598-1.005.75-.446.176-.955.195-1.674.327 1.78 1.05 3.362 1.982 5.098 3.008z"/><path d="M10.788 15.216c.205 4.787.966 9.103 2.833 13.165.543 1.183 1.248 2.293 1.883 3.435.06.11.14.208.213.312.295.422.528.885-.023 1.24-.54.347-.91-.035-1.164-.471-.711-1.214-1.485-2.401-2.08-3.67-2.017-4.301-2.887-8.877-3.053-13.598-.042-1.181-.013-2.365.018-3.547.034-1.255.142-1.364 1.368-1.517 4.194-.52 8.091-1.917 11.552-4.306 1.374-.948 2.238-1.006 3.644-.024 3.47 2.42 7.399 3.817 11.617 4.337 1.17.143 1.286.25 1.317 1.4.037 1.357.021 2.716.018 4.073-.001.505-.066 1.03-.726 1.012-.717-.021-.684-.587-.678-1.11.014-1.107 0-2.213.023-3.32.01-.482-.215-.656-.662-.72-4.456-.642-8.537-2.257-12.253-4.792-.35-.238-.582-.235-.93.003-3.72 2.53-7.803 4.145-12.259 4.788-.447.065-.673.24-.664.72.018.98.006 1.962.006 2.59z"/><path d="M22.253 23.228c.91-.934 1.708-1.765 2.517-2.583 1.204-1.214 2.405-2.428 3.627-3.624 1.178-1.153 2.656-1.205 3.686-.16 1.022 1.038.954 2.518-.207 3.686-2.552 2.566-5.11 5.126-7.678 7.676-1.237 1.23-2.613 1.225-3.85.005a325.434 325.434 0 01-3.68-3.679c-1.142-1.164-1.195-2.66-.155-3.684 1.01-.993 2.505-.942 3.63.16.7.683 1.352 1.408 2.11 2.203zm.035 4.58c.342-.23.71-.4.983-.669 2.517-2.493 5.019-5 7.521-7.51.175-.176.433-.383.444-.587.02-.39.01-.895-.215-1.152-.199-.228-.72-.271-1.078-.228-.252.03-.492.323-.702.533-2.049 2.037-4.089 4.084-6.135 6.123-.708.706-.96.701-1.678-.01-.767-.761-1.519-1.536-2.296-2.286-.573-.553-1.136-.588-1.6-.145-.45.429-.45 1.067.076 1.603a241.398 241.398 0 003.843 3.831c.204.198.503.302.837.497zm16.563-8.463c-.64 2.49-1.113 4.915-1.89 7.239-1.657 4.951-4.502 9.081-8.99 11.915-1.058.668-2.206 1.2-3.344 1.723-.29.133-.744.083-1.058-.044-2.477-1-4.665-2.45-6.566-4.329-.382-.377-.855-.796-.303-1.324.493-.473.915-.071 1.285.297 1.567 1.557 3.367 2.774 5.355 3.733.564.272 1.024.302 1.615.021 5.084-2.43 8.468-6.413 10.35-11.628.846-2.345 1.254-4.85 1.856-7.283.043-.17.01-.4.112-.506.22-.226.53-.563.76-.531.273.037.497.415.818.717z"/></g><defs><clipPath id="clip0_76_639"><path fill="#fff" d="M0 0h48.332v48H0z"/></clipPath></defs></svg>