<svg width="49" height="48" fill="none" xmlns="http://www.w3.org/2000/svg"><g clip-path="url(#clip0_76_625)" fill="#0B5285"><path d="M17.553 15.607c0-.554-.02-1.108.005-1.66.04-.934.603-1.483 1.536-1.5a64.774 64.774 0 012.867.003c.452.012.714-.075.892-.564.186-.51.062-.77-.329-1.075a48.05 48.05 0 01-2.139-1.792c-.76-.668-.835-1.406-.21-2.188.66-.824 1.34-1.635 2.034-2.43.68-.78 1.425-.832 2.25-.165a71.167 71.167 0 012.25 1.895c.293.258.526.282.858.065.329-.215.63-.364.525-.86a59.385 59.385 0 01-.507-2.82c-.188-1.157.264-1.778 1.4-1.974.941-.163 1.882-.33 2.822-.5 1.07-.194 1.764.257 1.97 1.324.177.914.35 1.828.471 2.75.064.482.289.665.746.766.515.114.719-.131.93-.52.432-.795.89-1.577 1.356-2.353.56-.936 1.286-1.148 2.225-.634a73.717 73.717 0 012.678 1.546c.886.536 1.072 1.268.566 2.183a55.324 55.324 0 01-1.434 2.48c-.243.387-.217.648.082.992.282.324.504.47.95.287.905-.373 1.834-.691 2.76-1.008.933-.32 1.642 0 2 .92.384.984.737 1.98 1.085 2.976.323.93.003 1.637-.921 1.998-.936.365-1.88.717-2.835 1.028-.432.142-.488.401-.488.792 0 .388.047.658.482.799.907.294 1.802.63 2.696.966 1.097.41 1.416 1.1 1.023 2.197-.33.922-.66 1.846-1.01 2.76-.383 1.002-1.077 1.326-2.101.976a52.358 52.358 0 01-2.761-1.007c-.434-.175-.627.023-.873.314-.255.3-.37.536-.127.922a54.98 54.98 0 011.477 2.544c.507.915.32 1.644-.57 2.183a81.113 81.113 0 01-2.676 1.55c-.895.497-1.658.297-2.187-.579a91.705 91.705 0 01-1.436-2.48c-.183-.323-.341-.577-.808-.464-.448.109-.77.2-.829.764-.092.873-.291 1.733-.439 2.601-.21 1.23-.826 1.676-2.068 1.47-.966-.16-1.933-.33-2.896-.511-.954-.178-1.426-.824-1.28-1.795.146-.97.316-1.936.52-2.894.107-.5-.134-.7-.506-.942-.385-.25-.618-.147-.914.114a69.085 69.085 0 01-2.193 1.847c-.837.676-1.602.604-2.306-.215a94.022 94.022 0 01-1.938-2.312c-.685-.849-.614-1.584.216-2.301a71.56 71.56 0 012.142-1.79c.332-.266.476-.499.296-.953-.17-.427-.334-.663-.842-.642-.954.04-1.912.023-2.867.008-1.025-.015-1.58-.566-1.611-1.584-.023-.501-.01-1.005-.01-1.508zm3.635-7.778c.865.732 1.66 1.42 2.47 2.087 1.165.955 1.175.926.596 2.241-.11.252-.205.518-.256.787-.135.697-.545.936-1.238.907-1.004-.04-2.014.026-3.018-.022-.62-.03-.788.206-.75.782.04.626.043 1.259 0 1.885-.044.607.13.873.786.82.675-.054 1.357-.015 2.037-.012 2.143.013 1.834-.214 2.42 1.642.038.12.074.246.139.35.436.69.243 1.19-.38 1.673-.947.732-1.84 1.533-2.807 2.346l2.204 2.621c.725-.6 1.383-1.141 2.035-1.688 1.49-1.247 1.488-1.248 3.154-.348.022.012.045.022.066.034 1.122.594 1.113.592.879 1.878-.198 1.081-.37 2.167-.566 3.323 1.049.187 2.006.384 2.97.506.149.018.443-.273.49-.465.175-.732.277-1.481.403-2.225.302-1.79.302-1.79 2.056-2.093.1-.016.204-.02.296-.059.816-.333 1.3-.025 1.688.734.53 1.042 1.159 2.032 1.778 3.098a3810.7 3810.7 0 012.965-1.727c-.57-.992-1.078-1.914-1.62-2.817-.883-1.472-.657-1.312.222-2.3 1.194-1.345 1.187-1.35 2.905-.733.86.31 1.722.617 2.623.94l1.161-3.221c-1.037-.376-1.998-.723-2.959-1.075-1.422-.521-1.42-.523-1.393-1.999.003-.15 0-.302-.008-.453-.063-1.266-.061-1.265 1.161-1.709 1.051-.382 2.1-.768 3.2-1.171-.367-1.024-.675-1.95-1.051-2.852-.055-.13-.458-.231-.643-.17a53.5 53.5 0 00-3.05 1.095c-.607.239-1.05.163-1.418-.415a5.207 5.207 0 00-.87-1.037c-.505-.46-.51-.897-.165-1.46.653-1.064 1.256-2.159 1.914-3.3L38.637 2.52c-.611 1.052-1.18 2.023-1.742 2.998-.615 1.064-.612 1.06-1.85.795a9.33 9.33 0 00-1.118-.16c-.523-.046-.814-.286-.898-.83-.167-1.067-.408-2.124-.553-3.194-.083-.607-.335-.75-.901-.613-.684.163-1.38.284-2.078.377-.433.057-.543.246-.465.655.2 1.037.358 2.08.565 3.116.136.683-.001 1.167-.713 1.439a4.39 4.39 0 00-1.105.643c-.537.418-.972.347-1.465-.09-.936-.83-1.913-1.613-2.92-2.455l-2.206 2.628z"/><path d="M9.864 31.509v2.723c0 1.837.014 3.673-.009 5.51-.006.467.136.696.609.742 4.855.463 8.946 2.91 13.103 5.137 2.167 1.16 4.196 1.227 6.379.088 4.413-2.306 8.87-4.523 13.308-6.78.459-.234.95-.416 1.24.154.31.61-.156.898-.64 1.142-4.24 2.146-8.49 4.271-12.71 6.457-1.452.752-2.896 1.379-4.574 1.314-1.212-.047-2.303-.423-3.372-.97a375.6 375.6 0 00-7.485-3.745c-1.809-.877-3.779-1.132-5.856-1.434 0 .524.015.945-.003 1.365-.08 1.852-1.447 3.301-3.285 3.407a27.642 27.642 0 01-3.319-.006C1.47 46.5.076 45.007.018 43.223c-.027-.854-.003-1.71-.009-2.566-.003-.478.227-.801.698-.813.486-.013.705.329.71.795.008.755-.008 1.51.013 2.265.042 1.488.892 2.315 2.38 2.332.781.008 1.56.012 2.34-.001 1.39-.023 2.297-.88 2.301-2.254.017-4.152.015-8.303-.004-12.454-.006-1.295-.902-2.166-2.195-2.2a59.103 59.103 0 00-2.491-.004c-1.463.021-2.313.874-2.328 2.383-.021 2.087-.006 4.175-.006 6.265 0 .2-.003.403-.005.604-.004.466-.208.812-.696.812-.472 0-.714-.313-.714-.794.003-2.466-.038-4.933.023-7.396.042-1.702 1.497-3.148 3.205-3.25 1.128-.066 2.269-.091 3.392.006 1.854.158 2.832 1.345 3.275 3.15h.884c3.02 0 6.039.024 9.057-.012 1.238-.015 2.237.377 3.1 1.268 1.56 1.606 3.162 3.172 4.742 4.757.177.178.417.35.487.57.321 1.032.991.827 1.772.626 4.967-1.273 9.941-2.518 14.917-3.758 1.336-.332 2.646.364 3.19 1.646.504 1.186.086 2.63-.97 3.348-.402.273-.831.468-1.195-.016-.362-.483-.083-.817.326-1.127.622-.47.778-1.094.486-1.72-.293-.629-.881-.908-1.64-.72a3056.81 3056.81 0 00-15.867 4.003c-.233.059-.487.327-.586.561-.9 2.085-3.33 2.62-4.965 1.038-1.518-1.47-2.993-2.986-4.489-4.478-.356-.355-.588-.743-.169-1.172.427-.436.812-.193 1.167.162 1.439 1.443 2.852 2.914 4.343 4.301.378.352.995.563 1.522.608.627.053 1.059-.42 1.253-1.019.216-.662.021-1.238-.463-1.722-1.299-1.298-2.687-2.521-3.871-3.918-1.22-1.438-2.615-1.953-4.487-1.857-2.81.144-5.632.037-8.587.037z"/><path d="M3.961 41.268c-.039.54.201 1.02.767 1.068.344.03.855-.2 1.05-.48.316-.456.149-.968-.358-1.287-.44-.276-.702-.635-.355-1.114.346-.475.792-.302 1.198-.04a2.402 2.402 0 01.875 2.985c-.485 1.095-1.705 1.655-2.884 1.326-1.114-.313-1.85-1.443-1.69-2.609.066-.477.22-.942.807-.889.587.05.696.488.59 1.04zm26.658-22.283l5.682-5.723c.708-.713 1.422-1.419 2.13-2.132.357-.357.75-.569 1.174-.149.437.433.175.817-.173 1.165-2.575 2.576-5.145 5.156-7.726 7.724-.723.718-1.427.697-2.166-.032-1.02-1.005-2.025-2.024-3.04-3.033-.37-.367-.662-.774-.197-1.224.47-.453.868-.124 1.223.24l3.093 3.164z"/></g><defs><clipPath id="clip0_76_625"><path fill="#fff" d="M0 0h48.313v48H0z"/></clipPath></defs></svg>