<svg width="49" height="48" fill="none" xmlns="http://www.w3.org/2000/svg"><g clip-path="url(#clip0_76_653)" fill="#0B5285"><path d="M28.521 19.512h8.432c1.154 0 1.312.152 1.313 1.277.002 2.148.002 4.295 0 6.443-.001 1.123-.159 1.276-1.315 1.278h-8.43v.827c0 2.598.003 5.195-.001 7.793-.002.897-.218 1.122-1.09 1.123-2.273.006-4.546.006-6.819 0-.87-.001-1.085-.226-1.086-1.126-.005-2.573-.002-5.145-.002-7.718v-.898h-.865c-2.573 0-5.145.002-7.718-.001-.946-.002-1.159-.207-1.16-1.13-.005-2.246-.005-4.495 0-6.743.001-.92.214-1.122 1.163-1.124 2.82-.003 5.64-.002 8.58-.002v-.827c0-2.598-.003-5.195.002-7.793.001-.9.215-1.121 1.09-1.123 2.272-.006 4.545-.006 6.818 0 .872.002 1.087.227 1.088 1.126.005 2.573.002 5.145.002 7.718-.002.27-.002.538-.002.9zm8.184 7.495v-5.993h-8.44c-1.076 0-1.244-.173-1.246-1.27v-8.43h-5.994v.85c0 2.547.002 5.094-.001 7.641-.002 1.024-.19 1.207-1.233 1.207-2.547.002-5.094 0-7.641 0h-.811v5.994c2.853 0 5.647-.002 8.44 0 1.077 0 1.245.172 1.245 1.27v8.428h5.994v-.851c0-2.547-.002-5.095.001-7.642.002-1.025.186-1.206 1.232-1.206 2.796.001 5.592.003 8.454.003z"/><path d="M5.25.023v1.502c-.448 0-.865-.005-1.28 0-1.51.018-2.429.922-2.43 2.433-.008 5.046-.003 10.091-.003 15.137V43.75c0 1.917.82 2.745 2.722 2.745h36.965v1.502h-.792c-12.09 0-24.18.002-36.27 0-2.603 0-4.127-1.535-4.127-4.151C.033 30.683.072 17.518 0 4.356-.015 1.734 1.792-.218 4.357.02c.27.023.544.003.893.003zM42.798 48v-1.502c.398 0 .787.002 1.176 0 1.65-.01 2.533-.895 2.533-2.559.003-10.641.001-21.283.001-31.924 0-2.648.003-5.295-.001-7.943-.003-1.656-.89-2.542-2.546-2.544-11.066-.003-22.131-.001-33.198-.001h-.936V.024H43.86c2.618 0 4.151 1.525 4.151 4.128.002 13.214.002 26.428 0 39.642 0 2.706-1.506 4.207-4.221 4.208-.32-.002-.64-.002-.991-.002zM6.796 1.46V.081h1.433v1.38H6.796z"/></g><defs><clipPath id="clip0_76_653"><path fill="#fff" d="M0 0h48.011v48H0z"/></clipPath></defs></svg>