<svg width="120" height="120" fill="none" xmlns="http://www.w3.org/2000/svg"><path d="M48 6.928a24 24 0 0124 0l27.962 16.144a24 24 0 0112 20.784v32.288a24 24 0 01-12 20.784L72 113.072a24 24 0 01-24 0L20.038 96.928a24 24 0 01-12-20.784V43.856a24 24 0 0112-20.784L48 6.928z" fill="#F5A036"/><path d="M48.5 12.928a24 24 0 0124 0l22.332 12.894a24 24 0 0112 20.784v25.788a24 24 0 01-12 20.784L72.5 106.072a24 24 0 01-24 0L26.168 93.178a24 24 0 01-12-20.784V46.606a24 24 0 0112-20.784L48.5 12.928z" fill="#F5A036"/><path d="M48.75 13.361a23.5 23.5 0 0123.5 0l22.332 12.894a23.5 23.5 0 0111.75 20.351v25.788a23.5 23.5 0 01-11.75 20.351L72.25 105.64a23.5 23.5 0 01-23.5 0L26.418 92.745a23.5 23.5 0 01-11.75-20.351V46.606a23.5 23.5 0 0111.75-20.351L48.75 13.36z" stroke="#fff" stroke-opacity=".4"/><g clip-path="url(#clip0_123_227)" fill="#fff"><path d="M78.616 60.899c.38.858.862 1.515.947 2.22.206 1.732-1.446 2.987-3.091 2.407-.5-.176-.801-.12-1.193.216-.417.358-.907.705-1.423.855-.74.216-.971.617-.86 1.323.03.18.006.366.006.659.723 0 1.405-.003 2.088 0 2.64.013 4.3 1.654 4.308 4.279.008 2.795.002 5.59.002 8.51h3.428c.453 0 .907-.018 1.36.01.494.031.871.335.763.813-.068.297-.458.558-.755.754-.149.1-.416.024-.629.024H38.473c-.187 0-.373.002-.56-.003-.527-.014-.894-.257-.887-.807.006-.553.38-.788.906-.788 1.707-.003 3.411-.002 5.118-.003h2.859l.688-3.993h-.877c-2.026 0-4.05.008-6.076-.003-1.665-.008-2.633-.972-2.637-2.633-.008-4.101-.008-8.203 0-12.304.003-1.67.964-2.646 2.62-2.646 7.33-.006 14.658-.013 21.987.016.608.002 1.216.267 1.852.417.07-.522.171-1.138.218-1.755.009-.132-.16-.306-.287-.417-1-.874-1.292-2.031-.761-3.062.563-1.092 1.657-1.504 3.006-1.135.1.027.202.05.338.083.967-1.493 2.261-2.597 4.022-2.916.97-.175 2.075-.275 2.987.013 2.878.911 5.389 2.343 6.147 5.631.297 1.28.14 2.551-.52 4.235zM53.292 75.772c2.896 0 5.664.008 8.434-.007.69-.003.878-.463.876-1.08-.006-4.076 0-8.15-.006-12.226-.002-.824-.265-1.067-1.129-1.067-7.25-.003-14.5-.004-21.75 0-.846 0-1.105.255-1.107 1.09-.006 4.076.002 8.15-.006 12.227-.002.733.32 1.077 1.06 1.07 1.227-.014 2.452-.004 3.678-.004h3.512c.184-1.084.373-2.075.513-3.07.098-.693.474-.942 1.142-.933 1.412.021 2.826-.003 4.238.01.862.008 1.142.363 1.004 1.215-.145.89-.294 1.78-.459 2.775zm10.91-5.558v4.036c0 2.043-.427 2.625-2.342 3.208v3.835c1.342.318 2.383.003 3.2-1.09.427-.571 1.019-1.014 1.504-1.546.385-.422.81-.513 1.364-.425 1.655.262 3.316.478 5.07.725 0-1.047-.043-2.057.026-3.057.02-.303.296-.744.552-.828.243-.08.619.21.923.364.166.085.299.318.452.323.924.03 1.849.016 2.823.016 0-1.225.064-2.367-.018-3.5-.08-1.112-.998-1.965-2.11-2.064-.631-.056-1.27-.01-1.88-.01-.774 2.094-2.093 3.156-3.902 3.181-1.866.027-3.166-.983-4.047-3.165-.49-.003-.99-.003-1.615-.003zm4.56-13.236c-.732-.061-1.465-.14-2.198-.17-.167-.006-.408.123-.503.264-.868 1.301-1.191 2.71-.743 4.245.689 2.363 2.664 3.307 4.71 4.019.812.283 1.853.164 2.727-.039 1.53-.356 2.417-1.542 3.127-2.877.574-1.077.401-2.608-.46-3.526-2.104.612-3.594.596-5.635-.064-1.282-.414-1.409-.645-1.025-1.852zm-1.607-1.562c1.05-.147 1.96-.307 2.877-.387.36-.032.934-.001 1.057.208.166.281.046.78-.054 1.157-.085.32-.319.6-.486.897 1.156.631 3.13.593 4.522-.056.77-.36 1.26-.15 1.655.53.243.418.504.825.84 1.372.332-2.185-.263-3.842-1.922-5.043a13.04 13.04 0 00-2.21-1.267c-2.366-1.082-5.355.08-6.279 2.59zM52.357 81.313h7.775V77.41h-7.12c-.217 1.3-.431 2.575-.655 3.903zM48.88 73.42c-.444 2.664-.881 5.271-1.322 7.912h3.163l1.327-7.912H48.88zm18.725-3.11c.402.896 1.122 1.435 2.149 1.454 1.062.02 1.808-.521 2.267-1.506-1.178-.8-.307-2.09-.668-2.94l-3.086-.77c-.373 1.186.494 2.628-.662 3.761zm-3.344-7v5.23h2.336c0-.962.008-1.886-.008-2.81a.636.636 0 00-.184-.404c-.718-.69-1.45-1.366-2.144-2.016zm2.053 18.033h11.373c-.201-.073-.269-.113-.34-.123-2.68-.385-5.38-.676-8.034-1.192-1.387-.269-2.275.099-2.999 1.315zm11.448-3.905h-3.16c0 .486-.028.913.015 1.333.017.167.17.435.297.456.931.16 1.87.27 2.85.401-.002-.772-.002-1.456-.002-2.19zM65.1 55.487c-.053-.085-.104-.172-.157-.256-.286.163-.69.26-.828.506-.132.232.012.62.035.942l.265.017c.227-.404.456-.807.685-1.21zm11.798 8.391l.163.259c.282-.15.691-.237.811-.47.13-.256-.008-.647-.029-.98l-.262-.005c-.229.398-.456.796-.683 1.196zM53.001 45.413c-.013 4.44-3.617 8.004-8.07 7.978-4.39-.024-7.945-3.631-7.925-8.043.021-4.394 3.613-7.946 8.028-7.94 4.388.007 7.978 3.615 7.967 8.005zm-1.604-.036c-.014-3.533-2.9-6.386-6.438-6.365-3.53.02-6.379 2.915-6.35 6.451.029 3.494 2.891 6.325 6.395 6.33 3.521.001 6.408-2.895 6.393-6.416z"/><path d="M55.4 47.159c0-3.142-.003-6.285.002-9.427.003-1.773.943-2.72 2.707-2.722 6.157-.005 12.313-.002 18.468-.002.133 0 .267-.006.4.006.494.047.888.333.77.804-.076.31-.501.568-.82.772-.15.098-.415.021-.628.021-5.997 0-11.992 0-17.989.002-1.11 0-1.306.195-1.308 1.291l-.001 18.857c0 .265.07.583-.05.783-.157.262-.484.61-.713.593-.285-.021-.597-.339-.793-.606-.117-.158-.045-.463-.045-.703v-9.669zm29.599 7.594c0 3.675.001 7.35-.002 11.024-.002 1.883-.915 2.8-2.783 2.807-.8.003-1.599-.008-2.398.003-.605.008-1.206-.057-1.192-.823.016-.769.638-.791 1.228-.785.746.01 1.492.005 2.24.002 1.1-.003 1.3-.2 1.3-1.3.002-7.322 0-14.646.004-21.968 0-.619-.166-1.371.766-1.49.603-.076.833.373.833 1.504.004 3.675.004 7.35.004 11.026z"/><path d="M61.62 47.005c-.971.036-1.859-.228-2.57-.888-.23-.214-.416-.652-.362-.939.043-.231.454-.489.745-.56 1.01-.252 1.56-.777 1.56-1.618 0-.84-.55-1.356-1.562-1.618-.303-.078-.713-.38-.76-.637-.052-.274.196-.702.442-.913 1.284-1.093 3.44-1.13 4.922-.14 1.45.97 2.099 2.793 1.592 4.489-.509 1.706-2.062 2.799-4.008 2.824zm.017-6.368c1.287 1.578 1.268 3.15.014 4.732 1.513-.048 2.504-.985 2.544-2.3.04-1.308-1.071-2.505-2.558-2.432zm20.757-1.632c.556 0 1.114-.003 1.67 0 .525.004.903.235.91.787.009.55-.356.805-.885.809-1.252.008-2.506.032-3.758-.02-.29-.01-.731-.24-.808-.47-.093-.274.027-.75.234-.974.748-.817 1.572-1.565 2.288-2.53-.572 0-1.143.002-1.716-.002-.524-.004-.902-.234-.911-.785-.01-.552.353-.807.882-.81 1.252-.009 2.506-.032 3.758.017.29.011.731.24.81.467.092.275-.024.751-.23.975-.754.813-1.58 1.557-2.38 2.327.044.074.09.142.136.21zm-6.562 4.804c.506 0 .897-.103 1.185.027.309.139.713.49.717.756.003.264-.421.741-.688.762-1.084.09-2.183.072-3.272.014-.25-.012-.606-.295-.688-.53-.081-.238.032-.648.212-.85.503-.57 1.084-1.07 1.634-1.597l-.087-.192c-.332 0-.71.1-.985-.026-.33-.151-.738-.457-.814-.767-.113-.471.282-.783.776-.794 1.038-.021 2.079-.039 3.115.014.264.013.657.241.736.462.093.262-.002.687-.176.924-.328.444-.776.8-1.166 1.2-.15.155-.278.331-.499.596zM70.2 47.528c.493.314.868.441 1.065.702.361.484-.024 1.12-.697 1.156-.768.041-1.545.057-2.308-.015-.281-.027-.652-.283-.767-.534-.098-.212.033-.63.204-.844.239-.3.61-.495.923-.736l-.15-.203c-.168-.034-.394-.01-.493-.11-.222-.228-.558-.543-.521-.771.045-.282.4-.697.657-.726.84-.093 1.698-.085 2.544-.024.69.05.973.755.531 1.292-.265.322-.65.543-.988.813zM43.448 63.002c.29 0 .633-.097.857.026.281.153.635.484.64.745.004.26-.349.71-.603.756a5.3 5.3 0 01-1.886-.004c-.252-.046-.603-.502-.595-.762.009-.26.365-.596.648-.735.258-.125.622-.027.939-.026zm4.693 1.565c-.29 0-.636.1-.855-.025-.279-.157-.654-.525-.623-.752.04-.29.405-.692.698-.76a3.77 3.77 0 011.647-.005c.3.067.76.505.73.713-.047.31-.425.633-.74.816-.217.127-.566.024-.857.024v-.01zm4.905-1.565c.291 0 .633-.097.857.026.282.153.635.484.64.745.005.26-.349.71-.603.756a5.3 5.3 0 01-1.886-.004c-.252-.046-.602-.502-.594-.762.008-.26.364-.596.647-.735.258-.125.622-.027.939-.026zm4.746 1.579c-.264 0-.589.096-.779-.022-.313-.195-.695-.502-.747-.812-.033-.206.421-.646.72-.721a3.31 3.31 0 011.567-.003c.322.083.562.49.837.753-.27.268-.504.596-.82.784-.194.117-.514.021-.778.021zM46.85 44.494c.434.079.631.055.713.141.235.246.625.577.58.8-.06.292-.452.688-.743.726-.784.101-1.592.077-2.383.013-.26-.02-.62-.267-.713-.497-.093-.232-.005-.662.17-.853.75-.822 1.55-1.602 2.358-2.37.355-.337.849-.375 1.108.044.162.262.154.775-.002 1.05-.192.342-.614.553-1.089.946z"/></g><defs><clipPath id="clip0_123_227"><path fill="#fff" transform="translate(37 35)" d="M0 0h48v48H0z"/></clipPath></defs></svg>