<svg width="120" height="120" fill="none" xmlns="http://www.w3.org/2000/svg"><path d="M48 6.928a24 24 0 0124 0l27.962 16.144a24 24 0 0112 20.784v32.288a24 24 0 01-12 20.784L72 113.072a24 24 0 01-24 0L20.038 96.928a24 24 0 01-12-20.784V43.856a24 24 0 0112-20.784L48 6.928z" fill="#F5A036"/><path d="M48.5 12.928a24 24 0 0124 0l22.332 12.894a24 24 0 0112 20.784v25.788a24 24 0 01-12 20.784L72.5 106.072a24 24 0 01-24 0L26.168 93.178a24 24 0 01-12-20.784V46.606a24 24 0 0112-20.784L48.5 12.928z" fill="#F5A036"/><path d="M48.75 13.361a23.5 23.5 0 0123.5 0l22.332 12.894a23.5 23.5 0 0111.75 20.351v25.788a23.5 23.5 0 01-11.75 20.351L72.25 105.64a23.5 23.5 0 01-23.5 0L26.418 92.745a23.5 23.5 0 01-11.75-20.351V46.606a23.5 23.5 0 0111.75-20.351L48.75 13.36z" stroke="#fff" stroke-opacity=".4"/><path d="M83.359 69.102v11.61c0 1.819-.417 2.238-2.22 2.24-.722 0-1.442.005-2.164-.002-1.223-.014-1.795-.58-1.798-1.807-.006-3.682-.003-7.364-.003-11.044v-1.054c-1.063 0-2.116.088-3.146-.021-1.29-.138-2.21.099-2.565 1.52-.119.473-.505.88-.799 1.366.373.105.71.196 1.045.297 2.557.766 4.229 3.281 3.892 5.855-.359 2.743-2.531 4.8-5.236 4.874-1.878.052-3.761.068-5.637-.013-1.034-.044-2.03-.116-3.089-.05-3.36.206-6.741.118-10.112.058-2.704-.05-4.89-2.155-5.224-4.881-.319-2.596 1.344-5.086 3.906-5.847.32-.094.644-.176.965-.262-.448-.896-.879-1.788-1.347-2.656-.07-.13-.321-.227-.491-.229-1.493-.017-2.986-.01-4.605-.01v.832c0 3.707.002 7.415-.001 11.122-.002 1.426-.529 1.945-1.967 1.95h-2.086c-1.663-.002-2.13-.46-2.13-2.096-.002-3.629 0-7.26 0-10.89v-.83c-1.314-.481-1.544-.809-1.546-2.164v-2.163c.005-1.392.49-1.891 1.89-1.95.097-.005.195-.023.298-.037-1.117-2.947-.915-4.025.902-4.688v-6.159c0-2.677-.001-5.355.002-8.032.001-1.422.528-1.94 1.973-1.941 2.651-.003 5.304 0 7.956 0h.846c.227-2.522 1.354-4.456 3.781-5.063 1.657-.414 3.195-.986 4.764-1.617 1.696-.683 3.38-.218 4.88.864.32.23.772.394 1.163.394 3.028.005 5.4 2.258 5.551 5.287.016.322.175.688.382.938 1.559 1.885 1.537 4.351-.08 6.202-.15.172-.311.354-.39.56-.666 1.747-1.174 2.181-3.022 2.534-.808 2.455-1.148 2.878-3.438 4.276-.05.8.289 1.172 1.106 1.416 1.31.39 2.553 1.007 3.726 1.488.179-.595.194-1.634.72-2.117.547-.502 1.586-.468 2.484-.688v-2.85h-1.452v-1.576h2.776l-1.236-4.422 1.46-.425c.473 1.614.934 3.189 1.394 4.765l.167-.031v-6.017h1.574v6.018l.195.03c.453-1.558.905-3.115 1.383-4.752l1.47.41-1.238 4.425h2.79v1.52h-1.466v3.057c1.271.228 1.568 1.122 1.514 2.314-.059 1.278-.012 2.56-.012 3.922.553 0 1.036-.017 1.517.003.935.041 1.537.63 1.564 1.565.027 1.003.017 2.009.003 3.011-.013.99-.63 1.457-1.54 1.661zM55.547 62.9c0 1.188-.003 2.34 0 3.49.003 1.25.35 2.402 1.159 3.357.732.863 1.407 1.781 2.852 1.027 1.028-.534 2.179-.054 3.232.266.541.164.921.037 1.335-.275 1.457-1.096 2.198-2.551 2.227-4.363.018-1.172.003-2.344.003-3.495h1.57v3.008h2.996c-.126-3.29-2.877-6.368-6.006-6.721-.193-.022-.48.139-.609.304-1.916 2.458-4.805 2.46-6.707.01-.136-.175-.468-.334-.677-.3-3.234.526-5.77 3.386-5.95 6.7h3.05v-3.006c.542-.002.997-.002 1.525-.002zm6.154 15.17l-10.75-1.522v-1.316c.322 0 .603-.028.877.004 2.27.266 4.536.558 6.808.808 1.11.123 2.245.325 3.342.223 1.709-.16 3.388-.601 5.094-.823 1.284-.167 2.588-.175 3.889-.254v1.551c-.411.027-.79.05-1.346.085 1.025.655 1.527 1.39 1.338 2.435-.188 1.046-.935 1.54-1.89 1.807-.166.046-.318.154-.664.327.794 0 1.36.025 1.924-.004 1.939-.098 3.49-1.553 3.736-3.483.236-1.864-.929-3.645-2.772-4.212-.44-.136-.893-.283-1.347-.31-.371-.02-.822.026-1.118.222-1.588 1.058-3.312 1.62-5.222 1.616-1.698-.003-3.398-.017-5.096.003-2.02.025-3.852-.528-5.505-1.693-.176-.124-.431-.272-.609-.23-.822.186-1.68.333-2.435.684-1.653.77-2.432 2.591-2.005 4.403.41 1.751 1.945 2.987 3.82 3.001 3.165.023 6.33.008 9.495.005.144 0 .288-.047.436-.071V78.07zM51.228 47.117L54 45.583c0-.462-.017-1.105.003-1.744.038-1.107.586-1.909 1.572-2.374.763-.36 1.54-.286 2.308.071.67.312 1.364.577 2.216.932-.558-.95-.989-1.686-1.459-2.49l1.487-.53c1.112 2.38 2.946 3.61 5.43 3.92.76.093 1.523.174 2.35.268v1.914c1.04.6 1.901 1.094 2.754 1.584.61-1.199.38-2.634-.714-3.541-.439-.365-.6-.674-.539-1.276.264-2.528-2.044-4.588-4.538-4.084-.467.094-.737-.003-1.061-.35-1.618-1.728-4.127-1.724-5.73.011-.326.354-.6.43-1.061.336-2.482-.507-4.791 1.573-4.532 4.096.057.55-.015.887-.483 1.222-.897.649-1.547 2.293-.775 3.57zm-2.03-.41h-4.42v8.384h10.576l-1.47-3.008c-1.74-.346-2.248-.772-2.892-2.506-.052-.14-.148-.266-.229-.394l-1.565-2.477zm8.174 9.942h-14.15V45.093h6.172l.492-1.485H41.68v14.62h.87c3.271 0 6.54-.03 9.811.014 1.451.018 2.856-.105 4.251-.535.536-.167.785-.39.759-1.058zm9.003-11.494c-.094-.082-.13-.138-.171-.145-.203-.031-.408-.05-.612-.07-2.87-.286-5.716-.65-8.342-1.984-.938-.476-1.69.047-1.698 1.122-.014 2.418-.013 4.836.007 7.253.003.403.13.803.2 1.206.187-.122.214-.216.236-.312.471-2.106 1.897-3.255 4.058-3.268a89.966 89.966 0 011.93.002c1.938.025 3.378 1.145 3.884 3.016.05.18.09.365.137.545.549-2.469.249-4.947.371-7.365zM40.148 69.084V81.34h2.995V69.084h-2.995zm38.631-.005v12.285h2.988V69.08H78.78zm-29.286-4.616h-10.88v2.985h10.721c.054-1.019.105-1.986.16-2.985zm23.076 2.983h10.725v-2.982h-10.88l.155 2.982zM60.6 55.232c1.204-.102 2.111-.107 2.987-.272.966-.184 1.034-.368.92-1.35-.045-.383-.073-.77-.138-1.148-.193-1.11-1.045-1.892-2.172-1.944a27.399 27.399 0 00-2.47-.002c-1.163.051-2.014.843-2.198 2.003-.073.457-.054.936-.182 1.373-.158.538.067.816.522.903 1 .191 2.01.324 2.731.437zm-12.773 6.126h1.545v1.617c.35-.135.69-.157.813-.331.66-.926 1.267-1.888 1.88-2.822H40.148c-.15 1.572.323 2.459 1.51 2.782v-1.236h1.56v1.454h1.526v-1.445H46.3v1.435h1.526v-1.454zm3.245 6.175c.012.207-.006.389.04.553.726 2.58 2.308 4.403 4.876 5.228 2.199.708 4.49.27 6.742.334.17.005.476-.289.486-.46.013-.18-.216-.48-.406-.549-.504-.182-1.043-.26-1.565-.395-.807-.21-1.507-.065-2.146.5-.157.138-.504.16-.727.1-.34-.09-.66-.28-.967-.461-1.854-1.097-2.917-2.754-3.345-4.85h-2.988zm16.763.006c-.334 1.658-1.037 3.12-2.372 4.122-.734.552-.856 1.085-.55 1.848 2.806-.18 6.084-3.52 5.85-5.97h-2.928zm6.316-13.915v3.017h4.52v-3.017h-4.52zm6.097 4.655h-9.19v1.43h9.19v-1.43zM63.273 78.32v1.573c0 1.136.25 1.474 1.392 1.465.608-.005 1.253-.224 1.813-.488.869-.411 1.69-.924 2.507-1.437.2-.127.435-.439.404-.623-.032-.19-.367-.465-.574-.47-1.817-.035-3.636-.02-5.542-.02zM71 61.352c.16.285.3.451.35.641.22.81.784.9 1.521.886 2.185-.042 4.371-.016 6.556-.016h.791v-1.51H71zm-12.052-4.668c-.05.662-.28 1.301-.096 1.784.334.872 1.148 1.291 2.096 1.293.948.001 1.68-.445 2.135-1.275.309-.562-.162-1.79-.664-1.797-1.1-.015-2.2-.005-3.47-.005zm-4.973-9.235c-1.015.169-1.555.756-1.515 1.58.04.812.622 1.354 1.515 1.395v-2.975zm13.953 3.021c1.026-.184 1.56-.773 1.513-1.594-.045-.815-.636-1.36-1.513-1.376v2.97z" fill="#fff"/><path d="M57.125 47.372v-1.45h3.007v1.45h-3.007zm7.639.006h-3v-1.452h3v1.452z" fill="#fff"/></svg>