<svg width="120" height="120" fill="none" xmlns="http://www.w3.org/2000/svg"><path d="M48 6.928a24 24 0 0124 0l27.962 16.144a24 24 0 0112 20.784v32.288a24 24 0 01-12 20.784L72 113.072a24 24 0 01-24 0L20.038 96.928a24 24 0 01-12-20.784V43.856a24 24 0 0112-20.784L48 6.928z" fill="#F5A036"/><path d="M48.5 12.928a24 24 0 0124 0l22.332 12.894a24 24 0 0112 20.784v25.788a24 24 0 01-12 20.784L72.5 106.072a24 24 0 01-24 0L26.168 93.178a24 24 0 01-12-20.784V46.606a24 24 0 0112-20.784L48.5 12.928z" fill="#F5A036"/><path d="M48.75 13.361a23.5 23.5 0 0123.5 0l22.332 12.894a23.5 23.5 0 0111.75 20.351v25.788a23.5 23.5 0 01-11.75 20.351L72.25 105.64a23.5 23.5 0 01-23.5 0L26.418 92.745a23.5 23.5 0 01-11.75-20.351V46.606a23.5 23.5 0 0111.75-20.351L48.75 13.36z" stroke="#fff" stroke-opacity=".4"/><g clip-path="url(#clip0_123_238)" fill="#fff"><path d="M60.362 44.998c-.313-1.396-.56-2.562-.85-3.72-.044-.172-.255-.333-.428-.44-1.105-.677-1.569-1.798-1.222-3.014.309-1.089 1.393-1.864 2.55-1.824a2.582 2.582 0 012.417 1.998c.264 1.176-.252 2.33-1.384 2.868-.452.214-.523.47-.419.873.264 1.01.533 2.02.831 3.148.368-.194.67-.331.953-.504 2.607-1.58 5.634-.472 6.613 2.404.15.441.364.885.648 1.251.74.954 1.257 1.03 2.263.398.783-.49 1.56-.989 2.32-1.514.319-.222.584-.52.9-.807-.847-.945-1.187-1.916-.725-3.038.493-1.197 1.726-1.802 3.015-1.502 1.157.269 1.98 1.388 1.922 2.62-.057 1.23-1.018 2.318-2.254 2.41-.505.04-.774.27-1.117.581-.884.801-1.838 1.523-2.789 2.295.054.038.179.132.31.215 1.93 1.222 2.642 3.355 1.787 5.474-.41 1.014-.484 2.001.137 2.928.174.26.558.458.877.522.457.093.947.054 1.42.042.893-.024 1.769.165 2.076-1.19.243-1.072 1.574-1.553 2.718-1.354 1.04.182 1.919 1.122 2.066 2.208.144 1.077-.45 2.155-1.455 2.645-.987.478-2.23.288-2.95-.563-.346-.408-.665-.481-1.148-.41-.689.1-1.389.119-2.112.175.065.553.192 1.11.18 1.663-.037 1.752-.871 3.039-2.42 3.849-1.23.642-1.868 1.608-1.765 3.09 1.337.17 2.546.644 3.599 1.5.135.11.424.085.628.046 1.314-.252 2.413.23 2.964 1.321a2.572 2.572 0 01-.64 3.126c-.889.746-2.2.803-3.132.137-1.032-.737-1.346-1.913-.855-3.198l.18-.462-2.813-1.194c-.454 1.245-1.056 2.175-2.071 2.77-.444.26-.945.539-1.294-.072-.313-.544.072-.85.526-1.119 1.042-.612 1.531-1.552 1.474-2.754-.096-2.035.762-3.494 2.56-4.451 1.849-.984 2.254-3.124.857-4.678-1.383-1.54-1.674-3.207-.91-5.124.763-1.915-.293-3.76-2.331-4.077-2.055-.32-3.392-1.39-4.03-3.403-.602-1.892-2.699-2.654-4.379-1.605-1.777 1.11-3.503 1.147-5.27.017-.938-.6-1.926-.612-2.931-.166-.045.021-.092.042-.135.066-.423.236-.834.276-1.098-.2-.297-.538.057-.847.487-1.069 1.502-.772 2.976-.704 4.424.161.354.21.726.386 1.225.651zm18.014-.944c-.006-.628-.58-1.174-1.212-1.153a1.183 1.183 0 00-1.125 1.16c-.001.646.545 1.162 1.206 1.141.624-.021 1.137-.541 1.13-1.148zm5.232 14.57c-.015-.598-.564-1.14-1.161-1.144-.633-.006-1.188.564-1.17 1.2.016.602.56 1.145 1.15 1.15.614.007 1.197-.589 1.18-1.205zM60.326 39.739c.63-.003 1.13-.51 1.134-1.15.006-.644-.485-1.166-1.11-1.184-.639-.018-1.192.541-1.18 1.197.012.627.534 1.14 1.156 1.137zm19.046 33.047a1.14 1.14 0 00-1.146-1.137 1.133 1.133 0 00-1.153 1.2c.024.648.522 1.11 1.177 1.094.64-.017 1.13-.52 1.122-1.157zm-17.67 3.494c.14.9.252 1.737.408 2.565.031.166.2.332.343.45 1.085.894 1.412 2.034.902 3.184-.452 1.019-1.593 1.653-2.693 1.497-1.145-.162-2.077-1.1-2.215-2.227-.15-1.235.526-2.29 1.792-2.794.114-.046.234-.079.46-.153-.15-.769-.284-1.545-.47-2.31-.033-.137-.264-.27-.43-.321-.995-.303-1.767-.899-2.4-1.71-.81-1.04-1.844-1.454-3.168-1.155-1.905.429-3.494-.143-4.75-1.685-.837.768-1.65 1.497-2.436 2.256-.117.113-.134.357-.144.545-.075 1.324-.843 2.286-2.039 2.529-1.19.243-2.352-.324-2.87-1.4-.49-1.017-.2-2.344.672-3.072.956-.8 2.162-.82 3.25-.054.1.07.2.146.372.272.805-.782 1.61-1.56 2.41-2.34.051-.05.128-.132.116-.18-.287-1.1.192-2.337-.57-3.34-.267-.351-.578-.735-.957-.924-1.925-.954-2.897-2.457-2.805-4.612-.772-.036-1.51-.102-2.245-.084-.215.006-.468.217-.626.4-.784.908-1.903 1.223-2.97.8-1.054-.419-1.696-1.409-1.636-2.526.06-1.133.823-2.043 1.974-2.355 1.261-.342 2.57.345 3.02 1.683.172.505.416.684.902.636a.754.754 0 01.225.004c1.435.297 2.27-.519 2.973-1.591.642-.983.655-1.99.22-3.066-.856-2.12-.295-3.83 1.84-5.623-.37-.135-.707-.243-1.033-.381-.573-.245-1.188-.434-1.693-.78-.656-.45-1.262-.675-2.1-.575-1.158.14-2.131-.657-2.473-1.765a2.552 2.552 0 011.02-2.896 2.562 2.562 0 013.01.11c.901.7 1.224 1.874.81 2.959l-.24.613c.697.334 1.37.697 2.074.985.876.357 1.761.73 2.68.936.401.09.956-.121 1.323-.372.371-.25.548-.77.897-1.072.236-.203.621-.228.94-.333.094.324.35.717.25.961-.528 1.281-1.54 2.054-2.87 2.415-.264.072-.538.107-.808.156-2.074.377-3.096 2.177-2.311 4.149.507 1.275.573 2.532-.036 3.77-.228.461-.57.877-.906 1.274-1.352 1.598-.989 3.71.858 4.69 1.797.956 2.641 2.41 2.572 4.448-.073 2.115 1.624 3.502 3.706 3.076 1.913-.39 3.492.114 4.722 1.677 1.409 1.79 3.525 1.762 4.957-.051.929-1.176 2.117-1.785 3.629-1.757.494.01.878.179.87.698-.007.514-.386.69-.884.687-1.04-.005-1.884.418-2.51 1.257-.728.978-1.69 1.602-2.91 1.822zM40.738 60.024a1.176 1.176 0 00-1.15-1.149A1.183 1.183 0 0038.404 60c-.02.642.539 1.195 1.194 1.182a1.156 1.156 0 001.139-1.157zm3.736-14.729c-.014-.6-.552-1.14-1.147-1.149-.62-.01-1.199.57-1.188 1.191.012.624.604 1.177 1.225 1.144.585-.031 1.123-.605 1.11-1.186zM60.997 80.26a1.177 1.177 0 00-1.149 1.21c.026.607.565 1.127 1.167 1.121.631-.006 1.174-.58 1.15-1.216a1.179 1.179 0 00-1.168-1.115zm-16.68-6.946c-.641.003-1.154.5-1.16 1.122a1.171 1.171 0 001.203 1.166 1.157 1.157 0 001.116-1.173c-.01-.65-.498-1.12-1.16-1.115z"/><path d="M70.223 56.027c-.103.38-.186.77-.316 1.143-.227.65-.119 1.2.32 1.74 1.34 1.647 1.014 3.446-.817 4.552-.592.357-.871.84-.885 1.533-.04 2.131-1.462 3.317-3.534 2.965-.676-.115-1.203.077-1.661.603-1.401 1.603-3.246 1.612-4.628.015-.502-.582-1.075-.74-1.804-.593-1.773.358-3.391-.926-3.399-2.744-.003-.87-.298-1.442-1.068-1.884-1.6-.92-1.94-2.88-.748-4.312.544-.654.64-1.274.357-2.067-.614-1.712.328-3.416 2.123-3.77.892-.175 1.399-.58 1.712-1.43.612-1.662 2.461-2.345 4.008-1.473.787.444 1.441.46 2.233.009 1.57-.893 3.415-.192 4.051 1.513.293.785.744 1.207 1.596 1.354 1.476.254 2.398 1.41 2.46 2.846zm-4.804 10.59c1.096.038 1.732-.55 1.71-1.56-.03-1.315.532-2.23 1.668-2.866.943-.53 1.102-1.498.387-2.334-.825-.964-1.035-1.996-.59-3.197.41-1.103-.03-1.865-1.177-2.091-1.26-.25-2.117-.914-2.532-2.16-.333-1-1.259-1.353-2.157-.82-1.173.694-2.289.687-3.459-.011-.86-.513-1.816-.165-2.122.78-.416 1.284-1.28 1.965-2.57 2.215-1.099.213-1.568.998-1.174 2.037.467 1.229.263 2.279-.585 3.266-.71.828-.532 1.79.42 2.327 1.104.623 1.668 1.515 1.648 2.802-.018 1.124.647 1.76 1.755 1.586 1.373-.215 2.427.165 3.3 1.255.55.688 1.502.74 2.045.082.954-1.157 2.072-1.682 3.433-1.312zm9.224-6.345c-.449.292-.725.612-.96.586-.245-.028-.452-.391-.675-.607.238-.227.453-.593.723-.636.208-.036.483.33.912.657zm-23.001 4.561c-.414.322-.695.699-.902.661-.264-.048-.59-.402-.65-.675-.034-.162.386-.577.623-.595.242-.018.507.313.929.609zM65.117 47.12c.315.432.684.728.637.927-.063.27-.444.467-.69.693-.208-.234-.565-.458-.583-.705-.016-.232.324-.492.636-.915zm5.352 20.548c-.422.337-.694.71-.886.671-.275-.053-.49-.407-.73-.634.221-.218.422-.576.67-.614.223-.031.499.287.946.577zm-17.062 3.511c-.317-.404-.661-.65-.655-.885.006-.24.396-.684.55-.657.282.05.653.345.72.607.052.197-.313.501-.614.935zm-4.825-9.189c-.307-.424-.663-.708-.62-.909.055-.267.422-.468.655-.697.217.226.586.44.607.684.021.23-.324.492-.642.922zm5.064-10.214c-.453.287-.729.6-.961.57-.246-.031-.45-.391-.672-.607.24-.225.459-.585.729-.63.205-.035.478.333.904.667zm9.919 20.408c-.312-.435-.664-.72-.62-.915.06-.265.422-.463.656-.69.212.227.566.44.591.684.021.225-.312.486-.627.921zm-3.094-23.655c-.43.306-.691.636-.927.618-.238-.018-.451-.378-.675-.59.225-.234.423-.607.684-.658.206-.04.49.318.918.63zm11.232 3.833c-.406.338-.672.719-.871.688-.267-.042-.483-.405-.722-.63.213-.225.407-.597.647-.632.228-.03.507.291.946.575z"/><path d="M59.299 61.05a2.58 2.58 0 012.604 2.605c-.008 1.437-1.214 2.62-2.639 2.59-1.4-.03-2.575-1.202-2.59-2.587-.015-1.414 1.186-2.608 2.625-2.608zm-.023 1.378c-.642.018-1.152.567-1.143 1.232a1.155 1.155 0 001.191 1.16 1.173 1.173 0 001.157-1.207c-.014-.637-.588-1.201-1.205-1.185zm5.667-7.856c1.458 0 2.652 1.19 2.622 2.61a2.613 2.613 0 01-2.618 2.548c-1.474.002-2.605-1.141-2.591-2.619.012-1.44 1.132-2.54 2.587-2.54zm.013 1.377c-.633-.008-1.201.55-1.209 1.186-.007.63.554 1.202 1.187 1.206a1.183 1.183 0 001.186-1.183 1.19 1.19 0 00-1.164-1.21zm-6.873 2.571c-1.173-.014-2.072-.932-2.067-2.114a2.08 2.08 0 012.09-2.093c1.185-.004 2.157.985 2.123 2.153a2.112 2.112 0 01-2.146 2.054zm-.081-1.292l.31-.013c.16-.284.465-.582.438-.846-.024-.237-.465-.645-.632-.605-.273.066-.634.42-.658.68-.024.244.345.522.541.784zm2.263 3.076c-.323.002-.686.093-.956-.025-.282-.123-.607-.426-.657-.7-.033-.18.363-.607.603-.636a7.99 7.99 0 012.073.003c.236.031.588.44.58.67-.005.234-.347.56-.613.66-.303.117-.684.028-1.03.028zm4.939 3.743c-.013.468-.489.858-.867.598a6.36 6.36 0 01-1.464-1.428c-.262-.352.123-.868.575-.904.48-.038 1.77 1.236 1.756 1.734zm-8.868-4.753c.017.56-1.169 1.78-1.602 1.713-.213-.033-.503-.203-.572-.383-.082-.216-.052-.567.08-.753.253-.358.582-.685.94-.94.186-.13.528-.155.752-.081.192.064.313.337.402.444z"/></g><defs><clipPath id="clip0_123_238"><path fill="#fff" transform="translate(37 36)" d="M0 0h48.02v48H0z"/></clipPath></defs></svg>