<svg width="120" height="120" fill="none" xmlns="http://www.w3.org/2000/svg"><path d="M48 6.928a24 24 0 0124 0l27.962 16.144a24 24 0 0112 20.784v32.288a24 24 0 01-12 20.784L72 113.072a24 24 0 01-24 0L20.038 96.928a24 24 0 01-12-20.784V43.856a24 24 0 0112-20.784L48 6.928z" fill="#F5A036"/><path d="M48.5 12.928a24 24 0 0124 0l22.332 12.894a24 24 0 0112 20.784v25.788a24 24 0 01-12 20.784L72.5 106.072a24 24 0 01-24 0L26.168 93.178a24 24 0 01-12-20.784V46.606a24 24 0 0112-20.784L48.5 12.928z" fill="#F5A036"/><path d="M48.75 13.361a23.5 23.5 0 0123.5 0l22.332 12.894a23.5 23.5 0 0111.75 20.351v25.788a23.5 23.5 0 01-11.75 20.351L72.25 105.64a23.5 23.5 0 01-23.5 0L26.418 92.745a23.5 23.5 0 01-11.75-20.351V46.606a23.5 23.5 0 0111.75-20.351L48.75 13.36z" stroke="#fff" stroke-opacity=".4"/><g clip-path="url(#clip0_123_228)" fill="#fff"><path d="M39.61 73.727c-1.006-.588-1.06-.73-.826-2.04a.713.713 0 00-.15-.512c-.887-1.056-.862-1.452.179-2.413.123-.114.216-.26.36-.433-.315-.147-.582-.263-.842-.393-1.562-.789-1.778-2.426-.496-3.623a81.561 81.561 0 002.193-2.135c.433-.436.434-.898.05-1.4-.722-.94-.8-1.91-.232-3.002.298-.576.391-1.286.465-1.947.228-2.084.888-3.996 2.173-5.659.199-.258.66-.475.976-.447.478.045.595.657.225 1.147-1.296 1.714-1.87 3.66-2.046 5.778-.054.654-.424 1.274-.551 1.93-.078.397-.102.904.08 1.237.902 1.664.927 2.111-.289 3.553-.574.681-1.276 1.26-1.942 1.86-.737.666-.668 1.154.25 1.541.185.078.377.135.557.22.99.469 1.215 1.319.571 2.212-.202.282-.456.525-.71.815.324.677 1.729 1.1.5 2.22.209.14.386.254.558.372.63.434.79.99.49 1.693-.628 1.471-.131 2.632 1.445 2.905 1.031.178 2.126.015 3.189-.036.546-.027 1.087-.158 1.631-.222 1.933-.23 3.514.457 4.646 2.002.628.856 1.112 1.83 1.571 2.795.31.652.683.926 1.4.737 3.624-.946 7.25-1.87 10.874-2.819.737-.193.923-.56.71-1.28-.112-.382-.34-.757-.342-1.138-.001-.275.22-.674.455-.789.175-.085.683.121.775.322.277.605.516 1.258.603 1.915.138 1.033-.531 1.992-1.572 2.267a871.437 871.437 0 01-11.53 2.976c-1.044.262-2-.297-2.512-1.319-.392-.78-.738-1.588-1.194-2.328-.925-1.503-2.252-2.171-4.059-1.908-1.356.198-2.73.372-4.095.359-1.896-.018-3.325-1.132-3.627-2.77-.13-.698.048-1.456.088-2.243z"/><path d="M59.224 68.91c.184.641.373 1.278.55 1.922.297 1.08-.208 1.763-1.325 1.803-2.594.093-2.69.024-3.472-2.45-.307-.976-.559-1.976-.962-2.91-.17-.393-.629-.841-1.028-.924-1.911-.399-1.988-.396-3.132-1.738-.56.125-1.108.276-1.669.363-.466.074-.89-.08-.938-.613-.048-.522.307-.723.797-.787.381-.05.753-.183 1.242-.31-.23-.268-.37-.428-.507-.592-1.117-1.331-.547-3.268 1.1-3.835.317-.11.632-.357.846-.624.806-1.003 2.023-1.422 3.277-1.11.348.087.728.026 1.087.084.799.132 1.59.303 2.388.444.363.065.753.192 1.097.12 1.175-.246 2.34.186 2.931 1.165.239.395.38.817-.07 1.128-.467.32-.777.054-1.133-.326-.286-.306-.79-.598-1.17-.566-.343.028-.749.45-.94.8-.24.441-.439.828-.992.638-.562-.194-.514-.659-.369-1.123.044-.142.074-.285.114-.443-.58-.5-1.228-.48-1.916-.396-.372.047-.787.04-1.137-.078-.983-.333-1.811-.046-2.22.915-.203.475-.458.73-1 .7-.539-.03-1.01.25-1.005.779.003.362.288.848.598 1.052.403.266.601.513.637.991.098 1.27.93 1.929 2.218 1.897.33-.007.717.144.988.344.655.48 1.141.496 1.861.122.32-.166.817-.241 1.14-.115 1.39.544 2.457.217 3.142-1.096.209-.399.464-.69.929-.542.52.169.576.606.39 1.041-.197.457.091.57.398.706 1.88.83 4.077-.196 4.685-2.192.159-.522.226-1.214 1.008-.972.748.234.487.873.334 1.395-.328 1.122-1.021 1.972-1.959 2.665-.289.213-.562.56-.66.9-.65 2.207-3.105 3.234-5.108 2.105-.295-.167-.594-.324-.89-.486-.052.052-.103.1-.155.15zm-.823 2.257l-.968-3.279c-.386-1.31-.185-1.544-1.773-.865-.044.018-.075.061-.16.136.3.956.603 1.926.91 2.893.39 1.234.39 1.234 1.68 1.18.07-.003.141-.029.31-.065zm.265-4.14c1.033.434 1.952.915 2.93 1.201 1.003.296 1.92-.266 2.096-.958-.988-.324-1.961-.649-2.94-.96-.146-.046-.336-.074-.47-.02-.521.214-1.027.464-1.616.737z"/><path d="M55.886 50.625c-1-.026-1.92.309-2.628 1.096-.392.436-.765.513-1.32.297-1.427-.556-2.807.11-3.276 1.57-.156.484-.407.724-.895.874-1.843.565-2.646 2.303-2.004 4.103a1.71 1.71 0 01-.052 1.168c-.392.856-.456 1.676-.027 2.516.219.429.288.841-.192 1.099-.513.276-.849-.024-1.077-.475-.535-1.059-.585-2.139-.2-3.266a2 2 0 00.056-1.066c-.538-2.15.471-4.287 2.471-5.237a1.78 1.78 0 00.765-.718c.858-1.613 2.53-2.426 4.325-2.108.289.05.679-.068.925-.245.97-.697 2.032-1.063 3.22-1.016.52.02 1.154.048 1.101.8-.048.7-.62.659-1.192.608zm9.449 22.238c-.035-1.225.379-2.222 1.331-3.036.699-.597 1.321-1.288 1.948-1.966 1.807-1.957 2.672-4.294 2.736-6.943.008-.323.015-.649.036-.973.03-.469.2-.866.743-.842.529.022.734.413.682.889-.15 1.361-.239 2.738-.525 4.072-.483 2.247-1.852 4.004-3.42 5.616-.261.268-.5.573-.802.784-1.115.775-1.479 1.82-1.248 3.127.084.475-.082.877-.606.946-.538.07-.745-.31-.805-.778-.037-.297-.048-.597-.07-.896zm9.519-31.598a3.128 3.128 0 013.133 3.072 3.121 3.121 0 01-3.094 3.185c-1.726.015-3.147-1.411-3.135-3.147a3.133 3.133 0 013.096-3.11zm0 1.433a1.69 1.69 0 00-1.69 1.717 1.71 1.71 0 003.42-.04 1.691 1.691 0 00-1.73-1.677zm-11.489-1.73a2.993 2.993 0 012.981-3.005c1.64-.002 3 1.358 3.002 2.999a2.99 2.99 0 01-2.997 2.99 2.958 2.958 0 01-2.986-2.984zm4.557.027a1.566 1.566 0 00-1.53-1.61 1.593 1.593 0 00-1.63 1.518c-.034.876.707 1.656 1.577 1.662.844.007 1.57-.712 1.583-1.57zm2.451 13.597c.006 1.618-1.327 2.968-2.936 2.974-1.603.006-2.959-1.342-2.968-2.95-.009-1.61 1.327-2.955 2.945-2.965 1.618-.011 2.953 1.316 2.959 2.941zm-2.91 1.533a1.498 1.498 0 001.49-1.542 1.504 1.504 0 00-1.528-1.505 1.518 1.518 0 00-1.531 1.582c.03.84.716 1.481 1.57 1.465zm13.4-9.954c1.618.018 2.945 1.372 2.921 2.984a2.967 2.967 0 01-2.989 2.915 2.953 2.953 0 01-2.913-2.984 2.948 2.948 0 012.981-2.915zm-.022 1.417a1.52 1.52 0 00-1.539 1.503 1.522 1.522 0 001.478 1.562 1.527 1.527 0 001.58-1.54 1.526 1.526 0 00-1.52-1.525zm4.156-8.754c-.009 1.54-1.287 2.795-2.834 2.785a2.807 2.807 0 01-2.783-2.833A2.815 2.815 0 0182.213 36a2.82 2.82 0 012.784 2.834zm-1.414-.048a1.413 1.413 0 00-1.4-1.37c-.783 0-1.412.664-1.38 1.456a1.372 1.372 0 001.428 1.324 1.395 1.395 0 001.352-1.41zm-6.835 13.52a2.608 2.608 0 01-2.621 2.61 2.611 2.611 0 01-2.623-2.61c.002-1.434 1.195-2.634 2.621-2.634 1.43 0 2.622 1.197 2.623 2.634zm-2.621 1.21a1.22 1.22 0 001.201-1.191 1.178 1.178 0 00-1.163-1.207c-.7-.018-1.25.516-1.24 1.207a1.22 1.22 0 001.202 1.19zm-19.312-7.277c-3.07.02-5.989.618-8.605 2.324-.417.271-.857.397-1.171-.102-.32-.507.016-.83.425-1.096 2.448-1.59 5.163-2.326 8.044-2.512.818-.054 1.645-.02 2.468-.009.463.006.785.242.776.721-.009.49-.358.675-.817.675l-1.12-.001zm16.307 1.514c-.02 1.438-1.226 2.615-2.655 2.588a2.635 2.635 0 01-2.581-2.663 2.6 2.6 0 012.656-2.571 2.598 2.598 0 012.58 2.646zm-1.424-.009a1.205 1.205 0 00-1.144-1.237 1.2 1.2 0 00-1.243 1.213 1.175 1.175 0 001.181 1.19 1.176 1.176 0 001.206-1.166zm-10.082-1.418a2.456 2.456 0 012.498-2.449c1.359.017 2.482 1.162 2.463 2.507-.02 1.348-1.174 2.471-2.523 2.455a2.464 2.464 0 01-2.438-2.513zm3.515.082c.026-.598-.39-1.066-.98-1.102a1.06 1.06 0 00-1.136 1.036c-.007.57.456 1.05 1.032 1.068a1.03 1.03 0 001.084-1.002zm-1.091 5.98c.007 1.154-.972 2.158-2.128 2.177-1.178.02-2.206-1.008-2.19-2.19a2.171 2.171 0 012.166-2.128 2.173 2.173 0 012.152 2.14zm-2.16 1.06c.347-.489.708-.775.684-1.024-.025-.269-.377-.65-.652-.715-.447-.108-.8.242-.732.701.044.294.353.548.7 1.038zm14.45 5.151a2.072 2.072 0 012.111-2.06 2.102 2.102 0 012.093 2.094 2.126 2.126 0 01-2.165 2.106 2.093 2.093 0 01-2.04-2.14zm3.077.042c-.462-.327-.733-.667-.996-.661-.23.006-.657.436-.627.616.045.267.389.61.661.67.205.045.495-.304.962-.625zM58.026 43.386c-1.149-.012-2.096-.965-2.09-2.103.006-1.125.98-2.1 2.105-2.109 1.168-.007 2.126.977 2.104 2.163-.021 1.174-.94 2.061-2.12 2.05zm.061-1.097c.305-.479.626-.762.612-1.029-.012-.222-.454-.625-.633-.588-.26.054-.594.408-.634.674-.036.214.32.487.655.943z"/></g><defs><clipPath id="clip0_123_228"><path fill="#fff" transform="translate(37 36)" d="M0 0h47.997v48H0z"/></clipPath></defs></svg>