<svg width="120" height="120" fill="none" xmlns="http://www.w3.org/2000/svg"><path d="M48 6.928a24 24 0 0124 0l27.962 16.144a24 24 0 0112 20.784v32.288a24 24 0 01-12 20.784L72 113.072a24 24 0 01-24 0L20.038 96.928a24 24 0 01-12-20.784V43.856a24 24 0 0112-20.784L48 6.928z" fill="#F5A036"/><path d="M48.5 12.928a24 24 0 0124 0l22.332 12.894a24 24 0 0112 20.784v25.788a24 24 0 01-12 20.784L72.5 106.072a24 24 0 01-24 0L26.168 93.178a24 24 0 01-12-20.784V46.606a24 24 0 0112-20.784L48.5 12.928z" fill="#F5A036"/><path d="M48.75 13.361a23.5 23.5 0 0123.5 0l22.332 12.894a23.5 23.5 0 0111.75 20.351v25.788a23.5 23.5 0 01-11.75 20.351L72.25 105.64a23.5 23.5 0 01-23.5 0L26.418 92.745a23.5 23.5 0 01-11.75-20.351V46.606a23.5 23.5 0 0111.75-20.351L48.75 13.36z" stroke="#fff" stroke-opacity=".4"/><path d="M59.33 81c-3.69-.176-7.38-.342-11.068-.551-.286-.016-.566-.323-.83-.52-.095-.072-.113-.278-.209-.319-1.023-.434-.653-1.106-.36-1.813.908-2.202 1.714-4.456 3.299-6.297 4.39-5.103 13.456-6.941 19.142-.33 1.415 1.644 2.071 3.608 2.476 5.689.075.386.159.768.244 1.152.385 1.719-.512 2.886-2.31 2.921-1.94.038-3.879.02-5.818.02-1.52.002-3.04 0-4.56 0L59.33 81zm11.608-2.1c-.397-5.408-3.198-9.6-8.762-10.652-.452.486-.866.935-1.333 1.438.481 1.159.964 2.372 1.492 3.567.212.482.234.872-.115 1.303-.479.59-.913 1.215-1.35 1.838-.372.53-.772.597-1.222.115-.573-.612-1.125-1.243-1.706-1.849-.44-.458-.475-.92-.213-1.497.528-1.163.998-2.353 1.478-3.5-.371-.345-.758-.598-.993-.952-.234-.356-.451-.45-.832-.314-.295.106-.603.174-.904.265-4.9 1.487-7.182 5.252-8.61 9.856 7.718.647 15.387.667 23.07.382zm-10.92-8.24c-.257.594-.464 1.066-.664 1.543-.762 1.81-.762 1.81.728 3.13.018.015.05.017.134.045.312-.417.652-.842.95-1.292.084-.126.119-.355.065-.492-.371-.942-.77-1.872-1.213-2.935zm-.896-2.591c.85.653 1.234.613 1.601 0h-1.6z" fill="#fff"/><path d="M59.733 48.7c.436-.11.98-.304 1.54-.378 3.747-.496 6.863 2.94 6.182 6.8-.055.308-.118.62-.23.91-.139.363-.07.578.22.873 1.037 1.057.546 2.877-.851 3.402-.214.08-.424.334-.51.557-.247.633-.378 1.313-.647 1.935-1.557 3.584-6.22 4.5-9.121 1.7-.872-.842-1.376-2.064-2.068-3.1-.231-.346-.466-.733-.798-.958-1.001-.677-1.467-1.708-1.044-2.598.213-.447.495-.86.886-1.168-.135-1.388-.318-2.964.364-4.51.694-1.575 1.901-2.453 3.636-2.65-.073-.72.193-1.077.69-.932l1.326-.862c.137.316.274.634.425.979zm4.522 5.738c-2.684 1.407-5.484 1.662-8.337.55-.43.96-1.06 1.772-1.122 2.626-.144 1.911.32 3.759 1.523 5.322 2.443 3.173 6.634 2.614 8.183-1.063 1.053-2.497.801-4.942-.247-7.435zM54.44 55.5c.2-.417.31-.62.397-.833.461-1.131.45-1.11 1.565-.719.637.224 1.3.408 1.965.513 1.996.317 3.842-.193 5.593-1.131.97-.521 1.114-.463 1.392.566.19.705.394 1.407.625 2.227.904-2.178.282-4.592-1.415-5.877-1.646-1.246-3.752-1.12-5.584.285-.228.175-.626.258-.913.205-1.176-.22-2.144.116-2.872 1.028-.825 1.03-1.031 2.222-.753 3.736zm-16.224-5.727c-.004-3.03 2.032-5.634 4.921-6.3 3.195-.735 6.354.678 7.697 3.436 1.078 2.215 1.528 4.483.36 6.787-1.268 2.502-3.415 3.742-6.177 3.703-2.745-.038-4.708-1.497-5.85-3.943-.53-1.137-.786-2.406-1.167-3.615l.216-.068zm12.177-.012c-.013-3.049-2.436-5.377-5.595-5.37-3.126.006-5.501 2.373-5.482 5.468.019 3.147 2.477 5.568 5.627 5.538 3.075-.03 5.463-2.498 5.45-5.636zm32.231-2.594c.008 3.722-2.649 6.559-6.354 6.782-3.444.208-6.326-2.332-6.916-5.886-.62-3.732 1.299-6.41 3.627-7.473 3.974-1.82 9.755.368 9.643 6.577zm-6.796-6.08c-3.073.003-5.496 2.386-5.492 5.397.005 3.145 2.46 5.61 5.585 5.606 3.078-.001 5.596-2.564 5.559-5.655-.037-3.019-2.503-5.353-5.652-5.348zm-22.967-1.615c.005-3.653 2.87-6.466 6.59-6.472 3.989-.008 6.92 3.063 6.893 7.215-.026 3.749-2.98 6.651-6.751 6.634-3.744-.019-6.736-3.297-6.732-7.377zm12.187.112c.054-3.05-2.33-5.422-5.488-5.465-3.093-.04-5.539 2.229-5.59 5.186-.059 3.291 2.293 5.764 5.516 5.8 3.075.035 5.506-2.38 5.562-5.521z" fill="#fff"/><path d="M43.952 48.451c.446-.481.724-.966 1.143-1.2 1.055-.59 2.243.141 2.285 1.36.044 1.28-.499 2.389-1.152 3.437-.104.168-.469.311-.66.263-.906-.23-1.831-.446-2.673-.831-.904-.414-1.22-1.182-1.003-1.911.21-.707.905-1.122 1.868-1.12l.192.002zm33.003-6.297l-.759 3.47 2.79.2c-.145.197-.204.307-.29.388-1.415 1.31-2.832 2.617-4.113 3.799l1.251-3.146-2.69-.447 3.668-4.365.143.101zm-17.528 1.621c-2.46.003-4.5-2.03-4.501-4.489-.002-2.342 1.97-4.205 4.456-4.21 2.586-.005 4.514 1.834 4.52 4.31.005 2.444-1.975 4.388-4.475 4.39zm-.026-1.103c1.9.003 3.39-1.448 3.379-3.294-.011-1.836-1.448-3.197-3.372-3.194-1.895.003-3.363 1.365-3.358 3.117.004 1.82 1.542 3.366 3.35 3.37z" fill="#fff"/><path d="M59.25 41.518c-.334-.18-.7-.291-.924-.534-.103-.111.063-.695.127-.698.578-.03 1.162.02 1.742.047-.019.258.057.6-.078.757-.183.208-.53.272-.867.428zm1.233-4.202c.27.373.553.593.529.773-.03.214-.321.392-.499.587-.186-.181-.492-.343-.522-.548-.03-.187.239-.42.492-.812zm-2.54.071c.27.377.544.596.526.788-.02.197-.323.502-.507.506-.178.004-.483-.301-.51-.5-.025-.188.24-.413.49-.794z" fill="#fff"/></svg>