<svg width="120" height="120" fill="none" xmlns="http://www.w3.org/2000/svg"><path d="M48 6.928a24 24 0 0124 0l27.962 16.144a24 24 0 0112 20.784v32.288a24 24 0 01-12 20.784L72 113.072a24 24 0 01-24 0L20.038 96.928a24 24 0 01-12-20.784V43.856a24 24 0 0112-20.784L48 6.928z" fill="#F5A036"/><path d="M48.5 12.928a24 24 0 0124 0l22.332 12.894a24 24 0 0112 20.784v25.788a24 24 0 01-12 20.784L72.5 106.072a24 24 0 01-24 0L26.168 93.178a24 24 0 01-12-20.784V46.606a24 24 0 0112-20.784L48.5 12.928z" fill="#F5A036"/><path d="M48.75 13.361a23.5 23.5 0 0123.5 0l22.332 12.894a23.5 23.5 0 0111.75 20.351v25.788a23.5 23.5 0 01-11.75 20.351L72.25 105.64a23.5 23.5 0 01-23.5 0L26.418 92.745a23.5 23.5 0 01-11.75-20.351V46.606a23.5 23.5 0 0111.75-20.351L48.75 13.36z" stroke="#fff" stroke-opacity=".4"/><g clip-path="url(#clip0_123_230)" fill="#fff"><path d="M63.045 79.607h7.298v-.879l.001-9.22c0-.225-.067-.498.035-.662.152-.245.424-.56.655-.567.222-.008.52.297.666.537.114.187.057.485.057.734.003 3.023.001 6.047.001 9.07v.98c1.273 0 2.464.01 3.653-.005.5-.006.492-.393.492-.757a3225.07 3225.07 0 010-6.221c0-.2-.07-.446.022-.59.18-.283.417-.671.688-.725.465-.093.713.301.713.757.004 2.423.027 4.847-.026 7.27-.022 1.013-.795 1.65-1.858 1.66-1.823.018-3.648.006-5.471.006H47.332c-1.757 0-2.328-.572-2.33-2.334-.001-4.597-.004-9.195.002-13.793.003-3.116 1.426-5.163 4.352-6.297 2.373-.917 4.745-1.837 7.115-2.76.312-.122.762-.194.615-.67-.08-.255-.313-.54-.553-.654-4.403-2.102-6.877-6.283-6.57-11.147.28-4.407 3.364-8.289 7.774-9.782 6.108-2.07 12.962 1.828 14.36 8.164 1.162 5.268-1.393 10.451-6.253 12.74-.258.12-.511.422-.6.694-.155.475.306.542.617.662 2.417.942 4.841 1.863 7.251 2.82 2.617 1.041 4.1 2.941 4.206 5.8.05 1.322.017 2.647.015 3.971 0 .492-.117.942-.72.93-.592-.012-.706-.465-.709-.952-.006-1.3.014-2.599-.01-3.897-.041-2.161-1.15-3.626-3.086-4.454-1.558-.667-3.164-1.222-4.736-1.858-.443-.18-.706-.136-.98.291a52.175 52.175 0 01-2.083 3.022 2.277 2.277 0 01-.976.74c-.669.25-1.089.782-.98 1.503.397 2.615.802 5.228 1.205 7.842.26 1.676.57 3.347.751 5.032.05.453-.196 1.01-.468 1.408-.369.537-.895.967-1.496 1.591zm-1.812-25.555c5.346.005 9.729-4.411 9.735-9.81.006-5.402-4.422-9.84-9.811-9.836-5.378.005-9.823 4.454-9.83 9.841-.01 5.422 4.416 9.8 9.907 9.805zm-2.196 25.522l.195-.219c-.288-.23-.572-.465-.865-.687-1.023-.769-1.177-1.739-.965-2.978.677-3.907 1.239-7.834 1.842-11.754.145-.944-.18-1.405-1.057-1.724-.326-.119-.644-.391-.853-.676a51.703 51.703 0 01-2.035-2.962c-.31-.491-.603-.6-1.15-.371-1.426.595-2.876 1.133-4.319 1.69-2.31.89-3.459 2.556-3.463 5.055-.005 2.524-.002 5.048-.002 7.57 0 2.073.002 4.147-.001 6.22 0 .386-.026.832.494.847 1.213.034 2.43.01 3.695.01v-.92c0-3.072 0-6.145.002-9.218 0-.225-.065-.505.044-.66.164-.232.444-.497.693-.518.192-.017.487.286.6.514.111.226.064.537.064.811.003 3.023.002 6.046.002 9.069v.901h7.079zm2.162-.189c.63-.622 1.28-1.314 1.984-1.942.391-.35.465-.722.382-1.196-.157-.909-.3-1.82-.438-2.734-.457-3.008-.907-6.017-1.369-9.023-.052-.34-.1-.663-.619-.651-.522.012-.511.306-.565.672-.605 3.994-1.225 7.986-1.827 11.98-.031.215.006.525.141.663.746.763 1.533 1.487 2.311 2.231zm-.07-20.673c.875-.96 1.676-1.81 2.438-2.694.157-.183.17-.49.227-.67h-5.37c.583 1.352 1.84 2.142 2.705 3.364zm2.639 2.123l2.415-3.516c-.672-.094-1.367-.405-1.62-.192-.86.725-1.563 1.635-2.36 2.51.546.419 1.014.779 1.564 1.199zm-5.21.005l1.542-1.215-1.808-1.992c-.77-.845-1.065-.858-2.004-.078l2.27 3.285zm1.465.66c.174.965.815 1.028 1.438.88.354-.084.642-.44 1.043-.736l-1.365-1.01-1.116.866z"/><path d="M61.457 48.036c1.395.624 1.932 1.546 1.677 2.752-.201.956-1.096 1.688-2.1 1.718-.995.03-1.953-.663-2.202-1.591-.324-1.21.187-2.176 1.496-2.826-1.273-.906-1.612-2.251-.842-3.938.3-.658.848-1.212 1.318-1.783.202-.246.512-.4.74-.63.386-.388 1.016-.733.548-1.416-.306-.449-1.55-.35-1.986.109-.12.126-.211.277-.322.414-.607.751-1.336.92-2.195.511-.733-.348-1.14-1.165-.997-1.997.225-1.302 1.68-2.692 3.006-2.777.261-.017.667.243.775.48.078.17-.178.562-.375.77-.155.165-.478.16-.67.305-.41.31-.843.627-1.147 1.028-.14.185-.004.58.006.88.234-.12.532-.184.691-.368.92-1.07 2.49-1.395 3.733-.732 1.156.618 1.434 2.2.52 3.216-.43.48-.961.87-1.455 1.291-.842.723-1.195 1.645-1.085 2.735.016.158.23.296.354.443.161-.14.466-.284.463-.419-.033-1.417.805-2.283 1.796-3.117a5.468 5.468 0 001.22-1.497c.768-1.378.29-2.748-1.133-3.426-.517-.246-1.237-.427-.842-1.189.38-.734 1.018-.29 1.505-.05 2.122 1.041 2.876 3.32 1.676 5.366-.493.84-1.238 1.552-1.946 2.241-.534.52-.897 1.033-.856 1.812.05.9-.458 1.44-1.37 1.685zm-.368 1.297l-.327.012c-.203.316-.597.66-.557.94.045.305.468.734.774.778a.691.691 0 00.783-.84c-.07-.33-.44-.596-.673-.89z"/></g><defs><clipPath id="clip0_123_230"><path fill="#fff" transform="translate(45 33)" d="M0 0h32.344v48H0z"/></clipPath></defs></svg>