<svg width="120" height="120" fill="none" xmlns="http://www.w3.org/2000/svg"><path d="M48 6.928a24 24 0 0124 0l27.962 16.144a24 24 0 0112 20.784v32.288a24 24 0 01-12 20.784L72 113.072a24 24 0 01-24 0L20.038 96.928a24 24 0 01-12-20.784V43.856a24 24 0 0112-20.784L48 6.928z" fill="#F5A036"/><path d="M48.5 12.928a24 24 0 0124 0l22.332 12.894a24 24 0 0112 20.784v25.788a24 24 0 01-12 20.784L72.5 106.072a24 24 0 01-24 0L26.168 93.178a24 24 0 01-12-20.784V46.606a24 24 0 0112-20.784L48.5 12.928z" fill="#F5A036"/><path d="M48.75 13.361a23.5 23.5 0 0123.5 0l22.332 12.894a23.5 23.5 0 0111.75 20.351v25.788a23.5 23.5 0 01-11.75 20.351L72.25 105.64a23.5 23.5 0 01-23.5 0L26.418 92.745a23.5 23.5 0 01-11.75-20.351V46.606a23.5 23.5 0 0111.75-20.351L48.75 13.36z" stroke="#fff" stroke-opacity=".4"/><g clip-path="url(#clip0_123_231)" fill="#fff"><path d="M83.658 81.866c-.392.39-.742.742-1.13 1.127-1.172-1.188-2.52-1.99-4.13-2.232-1.003-.151-2.024-.183-3.038-.248-1.842-.117-3.688-.2-5.53-.329-1.918-.133-3.493-1.807-3.585-3.799-.034-.748-.042-1.5 0-2.247.027-.481-.164-.693-.593-.872-2.926-1.216-5.41-3.116-7.806-5.143-.058-.05-.09-.128-.167-.24l.985-1.112c.798.63 1.55 1.26 2.34 1.839 2.008 1.47 4.03 2.917 6.476 3.612.94.267 1.733.076 2.446-.57 2.112-1.913 3.277-4.317 3.695-7.11.07-.475.098-.961.21-1.427.424-1.75 1.553-2.817 3.275-3.28.718-.193 1.438-.377 2.262-.594-.188-.357-.322-.638-.479-.903-1.454-2.433-2.934-4.85-4.356-7.303a9.898 9.898 0 01-.915-2.196c-1.424-4.9-4.02-8.876-8.854-10.978-7.374-3.208-16.632.168-20.561 7.42-4.215 7.78-1.881 17.38 5.479 22.272 2.542 1.69 3.829 3.95 3.707 7.003-.032.8.034 1.618-.103 2.4-.326 1.876-1.858 3.14-3.752 3.25-2.618.148-5.236.295-7.851.495-1.508.116-2.83.744-3.979 1.73-.2.172-.397.349-.647.57L36 81.871c1.115-1.251 2.465-2.202 4.091-2.467 2.156-.35 4.355-.44 6.537-.625.986-.084 1.976-.12 2.964-.196 1.053-.08 2.033-.823 2.094-1.884.084-1.456.08-2.953-.172-4.38-.261-1.478-1.34-2.5-2.59-3.33-4.385-2.909-7.097-6.94-8.083-12.132-1.624-8.538 2.928-17.075 10.982-20.347 5.326-2.164 10.618-2.127 15.631.927 4.207 2.561 6.494 6.537 7.771 11.182.134.482.315.968.567 1.397 1.576 2.673 3.182 5.327 4.772 7.991.847 1.417.477 2.392-1.093 2.874-.638.196-1.287.358-1.934.52-1.248.315-2.016 1.075-2.169 2.371-.25 2.148-.751 4.221-1.92 6.062a19.29 19.29 0 01-2.005 2.592c-.911 1.004-2.026 1.67-3.643 1.481.06 1.052.022 2.066.205 3.038.179.954 1.07 1.575 2.047 1.638 2.616.168 5.236.305 7.85.495 2.257.165 4.142 1.13 5.756 2.788z"/><path d="M59.226 46.705l-1.343.808-4.497-7.622-7.998 13.593h15.984c-.768-1.318-1.487-2.553-2.245-3.858l1.384-.814c.806 1.384 1.638 2.69 2.342 4.062.562 1.095-.233 2.231-1.523 2.257-1.444.029-2.89.008-4.333.008-3.746 0-7.492.003-11.237-.002-1.819-.002-2.506-1.197-1.587-2.763 2.542-4.333 5.09-8.665 7.64-12.992.887-1.504 2.262-1.494 3.157.02 1.304 2.208 2.602 4.421 3.9 6.634.118.203.221.415.356.669zm1.355 10.093v1.51H46.197v-1.51h14.386zm-11.998 4.716v-1.496h9.565v1.495h-9.565zm15.691-7.267l.73-1.42c.658.323 1.282.569 1.843.918.681.424 1.263.436 1.977.022 1.099-.638 2.272-1.15 3.473-1.746l.723 1.434c-1.639.815-3.208 1.608-4.795 2.365-.209.1-.544.1-.755.001-1.061-.49-2.1-1.028-3.196-1.574z"/><path d="M52.636 43.93h1.516v4.721h-1.516v-4.72zm3.125 19.291v1.513h-4.72v-1.513h4.72zM52.63 50.333h1.501v1.539h-1.5v-1.539z"/></g><defs><clipPath id="clip0_123_231"><path fill="#fff" transform="translate(36 35)" d="M0 0h47.658v48H0z"/></clipPath></defs></svg>