<svg width="120" height="120" fill="none" xmlns="http://www.w3.org/2000/svg"><path d="M48 6.928a24 24 0 0124 0l27.962 16.144a24 24 0 0112 20.784v32.288a24 24 0 01-12 20.784L72 113.072a24 24 0 01-24 0L20.038 96.928a24 24 0 01-12-20.784V43.856a24 24 0 0112-20.784L48 6.928z" fill="#F5A036"/><path d="M48.5 12.928a24 24 0 0124 0l22.332 12.894a24 24 0 0112 20.784v25.788a24 24 0 01-12 20.784L72.5 106.072a24 24 0 01-24 0L26.168 93.178a24 24 0 01-12-20.784V46.606a24 24 0 0112-20.784L48.5 12.928z" fill="#F5A036"/><path d="M48.75 13.361a23.5 23.5 0 0123.5 0l22.332 12.894a23.5 23.5 0 0111.75 20.351v25.788a23.5 23.5 0 01-11.75 20.351L72.25 105.64a23.5 23.5 0 01-23.5 0L26.418 92.745a23.5 23.5 0 01-11.75-20.351V46.606a23.5 23.5 0 0111.75-20.351L48.75 13.36z" stroke="#fff" stroke-opacity=".4"/><g clip-path="url(#clip0_123_232)" fill="#fff"><path d="M69.012 61.628c.53.528 1.022.945 1.429 1.434 1.252 1.496 1.88 3.242 1.886 5.19.015 4.535.008 9.07.005 13.605 0 .913-.23 1.142-1.14 1.142-8.013.003-16.027.003-24.042 0-.865 0-1.1-.236-1.1-1.101-.003-4.588-.03-9.173.012-13.76.025-2.632 1.19-4.75 3.275-6.465-.245-.15-.446-.28-.654-.399a6.21 6.21 0 01-2.46-2.498c-.367-.677-.116-1.16.629-1.29 1.664-.29 2.287-1.032 2.291-2.732.002-.514-.007-1.03.002-1.546.015-.771-.036-1.482-.467-2.203-.557-.924-.371-1.925.142-2.87.173-.321.302-.706.314-1.065.07-1.903-.042-3.823.166-5.708.397-3.593 3.93-6.495 7.537-6.262.805.053 1.586.477 2.473.761 2.54-2.194 8.209-.012 9.529 4.413.232.777.332 1.612.376 2.427.063 1.157.028 2.318.014 3.477-.01.823.029 1.588.485 2.353.535.899.354 1.877-.133 2.803-.18.345-.31.752-.33 1.138-.047.874-.029 1.752-.01 2.627.028 1.294.813 2.173 2.093 2.372 1.018.16 1.231.587.727 1.466-.69 1.203-1.691 2.06-3.049 2.691zm-3.64 19.801c0-1.51.032-2.95-.012-4.385-.025-.825.136-1.561.55-2.278.879-1.522 1.298-3.162.836-4.894-.248-.926-.712-1.795-1.107-2.764l1.16-.76c1.867 2.688 2.187 5.444.87 8.373-.232.514-.67 1.01-.696 1.532-.09 1.71-.034 3.43-.034 5.134h3.833c0-4.542.035-9.023-.019-13.503-.02-1.653-.754-3.072-1.897-4.28-.359-.379-.659-.416-1.143-.209-5.658 2.442-11.337 2.445-16.999.02-.556-.237-.877-.154-1.26.265-1.221 1.333-1.852 2.89-1.854 4.692a5733.46 5733.46 0 000 12.442c0 .196.033.393.048.57h3.817c-.123-2.518.232-4.94-.966-7.36-1.283-2.593-.641-5.257 1.098-7.68.448.298.843.563 1.27.849-.175.272-.32.48-.447.699-1.14 1.96-1.369 4.023-.318 6.042.733 1.405 1.029 2.815.916 4.364-.051.718-.01 1.443-.01 2.163v.968h12.365zM53.009 45.886c0 1.863-.023 3.69.005 5.517.047 3.072 2.268 5.545 5.374 6.028 2.855.442 5.962-1.328 6.6-4.243.512-2.347.375-4.836.528-7.288-2.669-.283-4.708-1.371-6.333-3.264-1.657 1.928-3.687 2.983-6.174 3.25zm14.654.832c0-1.576.08-3.07-.018-4.553-.17-2.56-1.896-4.642-4.352-5.325-1.313-.365-2.593-.483-3.482.943-.333.533-.956.465-1.335-.113-.545-.833-1.295-1.115-2.244-1.042-2.73.212-5.069 2.273-5.4 4.994-.197 1.625-.09 3.287-.115 4.934 0 .043.046.086.09.163l.653-.113c0-.463.005-.875-.001-1.286-.01-.626.273-.962.918-.98 2.576-.077 4.584-1.186 6.042-3.313.466-.678 1.055-.72 1.49-.078 1.479 2.188 3.518 3.323 6.157 3.396.561.015.846.323.855.88.008.46.002.922.002 1.4.247.034.45.057.74.093zM56.905 58.886c-.003.04-.051.22-.028.39.117.862-.308 1.258-1.102 1.466-.868.228-1.71.548-2.56.838-.463.16-.92.34-1.567.58 5.111 1.978 9.981 1.987 14.858-.018a30.987 30.987 0 00-3.098-1.14c-1.126-.352-2.37-.575-1.9-2.116h-4.603zm-8.702-.1c.888 1.349 2.607 1.963 4.04 1.482.78-.261 1.568-.498 2.336-.79.273-.104.656-.302.709-.523.11-.476.112-.95-.461-1.313-1.51-.958-2.514-2.354-3.004-4.069-.178-.623-.458-.858-1.141-.728.066 2.335.3 4.787-2.479 5.942zm21.972.007c-1.12-.48-2.018-1.26-2.273-2.443-.244-1.141-.213-2.34-.317-3.684-.326.195-.798.309-.87.545-.593 1.953-1.7 3.487-3.383 4.65-.234.16-.248.722-.246 1.096 0 .154.288.374.489.448.842.31 1.703.575 2.555.861 1.437.481 3.137-.123 4.045-1.473zm-18.788-7.551V48.23c-1.03.237-1.53.822-1.463 1.645.062.775.598 1.272 1.463 1.367zm15.573-2.983v2.981c.913-.083 1.47-.618 1.499-1.431.03-.83-.528-1.42-1.499-1.55zm7.607-5.897c.1-.465.127-.89.288-1.258.355-.815 1.013-1.296 1.903-1.378.889-.081 1.58.294 2.14.992.195.242.508.482.804.54 1.595.318 2.69 1.56 2.674 3.117-.015 1.526-1.099 2.737-2.66 3.051-.297.06-.62.286-.81.53-.613.789-1.517 1.177-2.439.959-.972-.229-1.708-.971-1.78-1.984-.036-.524-.279-.697-.69-.845-.846-.305-1.703-.591-2.514-.973-.293-.138-.617-.515-.642-.807-.02-.232.351-.583.628-.734.492-.268 1.045-.424 1.572-.627.529-.199 1.055-.402 1.526-.583zm-.784 1.98c.77.301 1.332.54 1.905.739.606.208.816.606.612 1.196-.2.578-.046 1.008.55 1.12.564.105.836-.26.891-.81.07-.689.458-.94 1.126-.767.706.182 1.278-.038 1.688-.623.376-.537.385-1.121.025-1.667-.413-.625-1.004-.847-1.744-.654-.626.164-1.017-.079-1.088-.725-.064-.583-.325-.977-.931-.846-.594.128-.705.575-.506 1.147.192.55-.018.943-.589 1.144-.58.204-1.147.44-1.939.746zM36 44.345c0-1.531 1.08-2.762 2.633-3.079.3-.06.634-.272.818-.514.626-.821 1.552-1.219 2.5-.982.965.24 1.68.99 1.742 2.016.03.502.263.657.647.796.845.308 1.702.594 2.515.971.3.14.673.509.679.78.005.267-.362.653-.657.79-.837.39-1.716.692-2.587 1.003-.374.133-.556.3-.593.751-.089 1.064-.81 1.82-1.813 2.046-.943.213-1.827-.19-2.469-1.055a1.24 1.24 0 00-.705-.437c-1.618-.308-2.71-1.526-2.71-3.086zm8.59.001c-.765-.298-1.345-.54-1.936-.751-.567-.203-.776-.594-.586-1.143.197-.566.096-1.015-.493-1.152-.598-.139-.878.242-.94.828-.068.637-.442.913-1.07.752-.736-.188-1.33.007-1.751.625-.368.538-.373 1.124-.008 1.664.416.615 1.006.838 1.745.643.625-.164 1.015.085 1.083.728.062.581.324.974.927.844.59-.127.708-.57.51-1.14-.19-.548.008-.944.579-1.146.589-.212 1.172-.453 1.94-.752z"/><path d="M60.88 55.495c-1.143-1.474-2.141-1.467-3.395-.026-.4-.198-.806-.402-1.205-.6.33-1.103 1.362-1.888 2.588-2.009 1.384-.136 2.573.546 3.287 1.944a360.7 360.7 0 00-1.275.69zm3.146-6.535c-1.07.265-2.03.505-3.083.768l-.403-1.478 3.08-.787.406 1.496zm-6.586.764l-3.07-.769.384-1.489 3.072.767-.386 1.49z"/></g><defs><clipPath id="clip0_123_232"><path fill="#fff" transform="translate(36 35)" d="M0 0h46.377v48H0z"/></clipPath></defs></svg>