<svg width="120" height="120" fill="none" xmlns="http://www.w3.org/2000/svg"><path d="M48 6.928a24 24 0 0124 0l27.962 16.144a24 24 0 0112 20.784v32.288a24 24 0 01-12 20.784L72 113.072a24 24 0 01-24 0L20.038 96.928a24 24 0 01-12-20.784V43.856a24 24 0 0112-20.784L48 6.928z" fill="#F5A036"/><path d="M48.5 12.928a24 24 0 0124 0l22.332 12.894a24 24 0 0112 20.784v25.788a24 24 0 01-12 20.784L72.5 106.072a24 24 0 01-24 0L26.168 93.178a24 24 0 01-12-20.784V46.606a24 24 0 0112-20.784L48.5 12.928z" fill="#F5A036"/><path d="M48.75 13.361a23.5 23.5 0 0123.5 0l22.332 12.894a23.5 23.5 0 0111.75 20.351v25.788a23.5 23.5 0 01-11.75 20.351L72.25 105.64a23.5 23.5 0 01-23.5 0L26.418 92.745a23.5 23.5 0 01-11.75-20.351V46.606a23.5 23.5 0 0111.75-20.351L48.75 13.36z" stroke="#fff" stroke-opacity=".4"/><g clip-path="url(#clip0_123_233)" fill="#fff"><path d="M48.703 82.734c0-2.245.009-4.386-.003-6.528-.01-1.55.283-3.036.993-4.41 1.746-3.38 4.531-5.232 8.336-5.474 2.575-.163 5.1.02 7.337 1.521 2.776 1.863 4.294 4.467 4.474 7.805.077 1.42.017 2.847.026 4.27.003.468-.09.9-.654.892-.532-.008-.578-.434-.587-.866-.034-1.696.057-3.409-.154-5.084-.405-3.214-2.273-5.394-5.204-6.707-.445-.199-.767-.147-1.127.195-.577.549-1.21 1.041-1.873 1.605.433.365.835.706 1.385 1.172 0-.496-.078-.838.022-1.115.095-.258.372-.61.58-.618.211-.007.6.338.625.56.08.714.085 1.45.007 2.166-.08.722-.807.968-1.411.498-.745-.58-1.454-1.205-2.2-1.829-.722.607-1.384 1.219-2.108 1.745-.26.188-.739.323-.993.208-.257-.115-.456-.557-.505-.884a5.065 5.065 0 01.006-1.64c.052-.29.388-.528.596-.79.217.254.49.482.635.773.1.196.018.48.018.903l1.373-1.14c-.748-.635-1.442-1.268-2.19-1.824-.17-.127-.569-.072-.806.03-2.926 1.26-4.863 3.44-5.191 6.613-.268 2.587-.054 5.224-.054 7.953h.899l21.804.001c.274 0 .581-.06.814.042.23.102.538.38.533.573-.004.208-.304.454-.53.596-.146.091-.39.032-.59.032H45.563c-.175 0-.394.061-.515-.02-.238-.16-.423-.401-.628-.61.211-.2.409-.556.635-.574.893-.07 1.797-.036 2.696-.04.294-.002.586 0 .953 0zm12.31-15.068H57.54l1.74 1.46 1.733-1.46zM47.134 44.647c.611-5.192 4.465-8.216 8.524-8.608 3.735-.363 8.596 1.76 10.06 7.391 1.931-.972 3.875-1.086 5.736.116 1.835 1.185 2.61 2.947 2.491 4.974.96.181 1.906.211 2.729.544 2.141.866 3.316 3.108 2.907 5.27a4.916 4.916 0 01-4.71 3.98c-1.946.05-3.895.014-5.843.014-.468 0-.881-.117-.866-.686.015-.545.45-.596.866-.6 2.022-.014 4.047.037 6.067-.049 1.956-.082 3.392-1.786 3.288-3.738-.12-2.243-2.379-3.833-4.53-3.186-.096.029-.194.075-.29.074-.304-.005-.71.084-.885-.075-.17-.153-.185-.587-.123-.865.385-1.721-.05-3.167-1.397-4.306-1.481-1.254-3.55-1.278-5.115-.099-1.04.784-1.322.661-1.558-.647-.646-3.563-2.759-5.802-6.24-6.677-4.769-1.197-9.673 2.567-9.827 7.479-.032 1.015-.189 1.152-1.226 1.074-3.112-.234-5.755 2.032-5.91 5.247-.158 3.318 2.44 5.607 5.13 5.736 1.047.05 2.097.02 3.146.033.444.004.919.043.922.625.003.557-.432.67-.896.66-1.715-.034-3.447.168-5.116-.442-2.832-1.035-4.71-3.95-4.443-6.928.285-3.14 2.657-5.676 5.736-6.125.442-.065.886-.12 1.373-.186z"/><path d="M65.682 57.64c.175-.84-.277-1.47-.95-2.196-.79-.85-1.27-1.995-1.818-3.049-.087-.168.186-.523.292-.791.272.11.61.156.796.348.213.22.247.6.432.86.526.744 1.111 1.447 1.627 2.2.328.479.738.988.83 1.532.894 5.286-3.55 9.79-8.845 9.016-3.46-.507-6.094-3.4-6.425-7.082a13.546 13.546 0 01-.03-1.796c.044-1.035.643-1.663 1.668-1.782 3.1-.356 5.902-1.396 8.268-3.504.205-.183.765-.248.962-.1.397.296.196.7-.135 1.01-2.087 1.947-4.591 3.048-7.358 3.609-.294.06-.586.126-.882.166-1.243.17-1.197.168-1.25 1.45-.153 3.8 2.42 5.998 4.593 6.604 4.518 1.258 8.417-2.275 8.225-6.496z"/><path d="M58.942 45.997c-.387.07-1.001.165-1.606.297-.432.092-.83.106-.968-.4-.138-.507.208-.71.632-.835 4.606-1.362 9.537 1.61 10.286 6.575.093.614.102 1.242.119 1.865.012.432-.117.836-.639.838-.523 0-.648-.394-.632-.835.058-1.585-.23-3.078-1.139-4.411-1.398-2.051-3.338-3.078-6.053-3.094zm-6.017.818c.538 0 1.082-.047 1.611.02.279.034.641.203.763.423.091.167-.066.58-.239.764a45 45 0 01-2.545 2.531c-.19.171-.598.1-.907.141.008-.331-.117-.769.048-.972.42-.514.968-.923 1.466-1.376l-.098-.263c-.548 0-1.1.028-1.645-.014-.235-.018-.598-.132-.656-.292-.086-.234-.05-.643.11-.815a46.233 46.233 0 012.702-2.693c.168-.153.576-.043.872-.054-.012.312.099.727-.06.916-.457.54-1.022.987-1.545 1.471.04.072.081.142.123.213zm5.722 30.342c0-1.248.005-2.496-.001-3.744-.003-.466.094-.92.64-.913.53.008.644.45.644.922-.005 2.521-.002 5.043-.003 7.565 0 .452-.065.897-.65.897-.596 0-.627-.461-.628-.906-.003-1.274-.002-2.547-.002-3.821zm12.079-13.631c0 .797.052 1.599-.029 2.387-.028.28-.382.526-.587.787-.216-.257-.61-.507-.619-.769-.057-1.64-.034-3.284-.022-4.927.003-.415.174-.746.659-.726.492.02.595.374.595.785.006.82.004 1.642.003 2.463zm-23.068.894c0 .773-.003 1.546.001 2.317.003.454-.158.832-.644.838-.517.007-.619-.41-.617-.845 0-1.594-.002-3.189.003-4.784.001-.402.09-.785.586-.793.509-.009.67.346.672.8l-.001 2.468zm-4.765 2.617c0 .772-.003 1.543.001 2.315.003.459-.169.866-.657.764-.236-.05-.543-.497-.552-.773-.052-1.617-.024-3.235-.025-4.853 0-.423.148-.827.607-.728.25.054.573.464.599.738.078.84.027 1.692.027 2.537zm33.156 2.993c0 .796.001 1.592-.002 2.388-.001.434-.115.845-.63.833-.498-.012-.626-.403-.624-.85.004-1.566.001-3.133.001-4.699 0-.427.065-.833.601-.855.607-.026.645.433.65.872.013.77.005 1.542.004 2.312zm-16.733-9.775c.99.014 1.924.586 2.212 1.48.088.273-.126.643-.2.968-.299-.128-.717-.175-.874-.401-.736-1.066-1.596-1.069-2.34-.008-.163.231-.58.28-.879.414-.08-.328-.295-.697-.211-.975.27-.892 1.278-1.491 2.292-1.478zM42.888 73.44c.001.273.079.579-.021.807-.108.246-.378.568-.59.578-.194.01-.55-.33-.584-.554a5.756 5.756 0 01-.003-1.698c.035-.232.37-.418.57-.626.208.2.5.368.602.614.105.253.024.583.026.88zm9.544-20.27c-.045.388.2 1.173-.67 1.145-.8-.027-.553-.781-.593-1.286-.02-.246-.07-.53.024-.733.12-.256.375-.448.572-.667.222.22.505.408.648.672.102.19.02.482.02.869zm23.629 10.969c-.072.484.165 1.208-.617 1.217-.84.009-.632-.736-.64-1.247-.007-.497-.163-1.208.598-1.22.836-.013.586.748.66 1.25z"/></g><defs><clipPath id="clip0_123_233"><path fill="#fff" transform="translate(40 36)" d="M0 0h39.659v48H0z"/></clipPath></defs></svg>