<svg width="120" height="120" fill="none" xmlns="http://www.w3.org/2000/svg"><path d="M48 6.928a24 24 0 0124 0l27.962 16.144a24 24 0 0112 20.784v32.288a24 24 0 01-12 20.784L72 113.072a24 24 0 01-24 0L20.038 96.928a24 24 0 01-12-20.784V43.856a24 24 0 0112-20.784L48 6.928z" fill="#F5A036"/><path d="M48.5 12.928a24 24 0 0124 0l22.332 12.894a24 24 0 0112 20.784v25.788a24 24 0 01-12 20.784L72.5 106.072a24 24 0 01-24 0L26.168 93.178a24 24 0 01-12-20.784V46.606a24 24 0 0112-20.784L48.5 12.928z" fill="#F5A036"/><path d="M48.75 13.361a23.5 23.5 0 0123.5 0l22.332 12.894a23.5 23.5 0 0111.75 20.351v25.788a23.5 23.5 0 01-11.75 20.351L72.25 105.64a23.5 23.5 0 01-23.5 0L26.418 92.745a23.5 23.5 0 01-11.75-20.351V46.606a23.5 23.5 0 0111.75-20.351L48.75 13.36z" stroke="#fff" stroke-opacity=".4"/><path d="M46.729 70.9c-1.508-.841-2.93-1.385-4.502-1.47-.87-.048-1.265-.389-1.224-1.056.039-.649.472-.957 1.352-.904 2.136.13 4.036.95 5.802 2.094.54.349.977.388 1.57.162a21.502 21.502 0 012.868-.857c.462-.104.584-.334.696-.728 1.003-3.501 2.039-6.991 3.022-10.497.118-.42.088-.956-.071-1.361-.292-.75-.734-1.442-1.109-2.16-.96-1.83-1.836-1.856-3.949-1.65-1.128.109-2.082.7-2.911 1.484-.638.602-1.166.631-1.614.14-.44-.481-.36-1.002.28-1.61 1.231-1.17 2.672-1.908 4.382-2.077.21-.02.42-.071.912-.155-1.234-.939-2.294-1.748-3.358-2.552-.172-.13-.364-.235-.54-.357-.538-.367-.769-.854-.45-1.46.27-.522.938-.611 1.569-.222 3.11 1.917 5.666 4.4 7.602 7.51.137.22.28.434.637.638.279-1.529.64-3.046.823-4.587.482-4.077-.237-7.909-2.53-11.385-.434-.66-.333-1.237.183-1.563.56-.354 1.105-.187 1.551.516 2.284 3.59 3.21 7.495 2.832 11.746-.352 3.947-1.692 7.622-2.864 11.356-.953 3.035-1.743 6.12-2.527 9.205-.197.772-.546 1.157-1.286 1.34-2.765.684-5.456 1.596-7.844 3.18-1.117.74-2.11 1.673-3.113 2.57-.587.527-1.117.686-1.552.3-.478-.426-.456-.927.086-1.555 1.27-1.47 2.799-2.618 4.483-3.566.23-.129.451-.266.794-.47zM65.83 53.401l-4.626 15.19c2.527.475 4.357 2.331 6.847 2.138.82-.063 1.644-.256 2.432-.5.796-.248 1.407-.195 1.65.314.292.608-.01 1.209-.805 1.598-1.118.549-2.329.737-4.091.636.099.977.228 1.953.287 2.932.034.561-.31.92-.87.983-.515.059-.91-.162-1.04-.691-.07-.284-.054-.59-.079-.885-.099-1.162-.361-2.306-1.338-3.015-.874-.635-1.891-1.07-2.987-1.672-.454 3.933.073 7.412 1.806 10.688.24.453.512.89.759 1.34.272.497.184.929-.25 1.297-.429.364-.867.295-1.252-.024a3.18 3.18 0 01-.659-.802c-2.308-3.803-2.988-7.94-2.502-12.31.423-3.81 1.645-7.418 2.765-11.054.755-2.447 1.445-4.916 2.15-7.378.166-.584.455-.938 1.12-.94 3.09-.01 6.64 2.48 7.645 5.398.106.306.177.625.224.945.093.617-.125 1.096-.768 1.222-.63.123-1.053-.212-1.204-.815-.641-2.584-2.472-3.88-4.884-4.56-.1-.03-.21-.023-.33-.035zm15.85-6.021c.751.581 1.504 1.1 2.183 1.706.592.529.618 1.116.162 1.547-.56.529-1.043.32-1.55-.143-1.92-1.756-3.262-1.953-5.602-.846-.75.354-1.487.739-2.299 1.143 1.049.962 1.945 1.95 2.19 3.355.13.74-.169 1.345-.761 1.468-.583.12-1.115-.334-1.198-1.13-.203-1.935-1.292-3.025-3.154-3.382-3.786-.728-5.765-3.348-6.786-6.76-.7-2.334-1.277-4.679-2.666-6.732-.338-.498-.314-1.063.26-1.415.57-.35 1.072-.21 1.465.355 1.414 2.029 2.102 4.342 2.783 6.685a13.01 13.01 0 001.84 3.828c1.499 2.111 3.773 2.517 6.118 1.418 1.24-.58 2.542-1.026 3.803-1.564 1.798-.77 3.282-1.88 3.926-3.832.213-.643.646-.965 1.292-.773.693.206.756.787.573 1.388-.38 1.241-1.081 2.287-2.027 3.171l-.552.513zM53.262 76.622c-3.16.424-5.786 1.701-7.885 4.026a8.48 8.48 0 00-.363.435c-.447.56-.99.551-1.492.149-.524-.42-.474-1.008-.034-1.422 1.117-1.05 2.207-2.163 3.465-3.02 1.995-1.362 4.277-2.04 6.702-2.156.993-.047 1.323.244 1.46 1.208.325 2.248 1.05 4.343 2.297 6.257.188.288.336.738.248 1.038-.087.299-.486.689-.766.703-.318.016-.77-.258-.967-.542-1.22-1.777-2.03-3.741-2.493-5.848-.05-.235-.097-.47-.172-.828z" fill="#fff"/></svg>