<svg width="120" height="120" fill="none" xmlns="http://www.w3.org/2000/svg"><path d="M48 6.928a24 24 0 0124 0l27.962 16.144a24 24 0 0112 20.784v32.288a24 24 0 01-12 20.784L72 113.072a24 24 0 01-24 0L20.038 96.928a24 24 0 01-12-20.784V43.856a24 24 0 0112-20.784L48 6.928z" fill="#F5A036"/><path d="M48.5 12.928a24 24 0 0124 0l22.332 12.894a24 24 0 0112 20.784v25.788a24 24 0 01-12 20.784L72.5 106.072a24 24 0 01-24 0L26.168 93.178a24 24 0 01-12-20.784V46.606a24 24 0 0112-20.784L48.5 12.928z" fill="#F5A036"/><path d="M48.75 13.361a23.5 23.5 0 0123.5 0l22.332 12.894a23.5 23.5 0 0111.75 20.351v25.788a23.5 23.5 0 01-11.75 20.351L72.25 105.64a23.5 23.5 0 01-23.5 0L26.418 92.745a23.5 23.5 0 01-11.75-20.351V46.606a23.5 23.5 0 0111.75-20.351L48.75 13.36z" stroke="#fff" stroke-opacity=".4"/><g clip-path="url(#clip0_123_235)" fill="#fff"><path d="M69.91 45.482c2.166-1.125 4.31-2.235 6.454-3.349 2.303-1.198 4.6-2.404 6.907-3.596.26-.133.605-.333.825-.255.33.116.805.441.816.693.013.358-.245.89-.55 1.068-1.335.78-2.727 1.463-4.1 2.177L63.392 51c-.197.102-.386.222-.654.378.56.3 1.057.572 1.558.834 6.553 3.412 13.108 6.822 19.661 10.233.111.057.224.113.332.175.67.38.888.883.568 1.394-.367.588-.871.567-1.43.276a4963.28 4963.28 0 00-8.836-4.595c-.17-.088-.347-.16-.653-.301.524 1.736 1.01 3.352 1.5 4.967.357 1.175.024 1.622-1.227 1.627-1.17.003-2.34.001-3.614.001 0 1.327.008 2.593-.001 3.859-.017 2.509-1.597 4.748-3.971 5.527-.654.215-1.368.303-2.06.329a60.27 60.27 0 01-4.122.001c-.568-.018-.724.225-.796.717-.18 1.209-.397 2.413-.601 3.619-.021.123-.059.243-.089.363-.142.572-.508.874-1.095.76-.587-.114-.833-.55-.737-1.117.301-1.797.627-3.589.952-5.381.121-.669.592-.867 1.207-.865 1.75.003 3.499.004 5.249 0 2.512-.008 4.115-1.584 4.157-4.106.022-1.374.001-2.75.006-4.124.003-1.19.277-1.47 1.445-1.474 1.046-.005 2.09-.002 3.253-.002-.483-1.582-1.005-3.037-1.356-4.53-.258-1.104-.857-1.704-1.855-2.191-2.666-1.3-5.275-2.72-8.066-4.177.142.513.24.88.346 1.246.302 1.037-.042 1.5-1.133 1.524-.173.005-.345.017-.636.03.064 1.092-.051 2.142-.924 2.935-.874.793-1.968.733-3.112.763 0 .747.012 1.44-.003 2.133-.02.822-.493 1.213-1.279.99-2.59-.74-5.17-1.512-7.755-2.273-.524-.154-.761-.499-.758-1.054.013-2.974-.047-5.95.031-8.922.1-3.834 3.854-7.055 7.672-6.684 3.406.331 5.738 2.294 6.623 5.572.039.144.099.282.172.486 2.267-1.186 4.514-2.356 6.832-3.563-1.132-1.848-2.505-3.383-4.227-4.568-5.418-3.723-11.061-3.83-16.865-.964-.223.11-.432.252-.65.37-.634.342-1.148.257-1.443-.235-.291-.483-.144-1.07.484-1.366 1.441-.677 2.867-1.455 4.385-1.882 7.768-2.19 15.158.59 19.694 7.294.097.142.206.274.34.453zM48.821 58.93c.952.284 1.954.585 2.959.878.986.288 1.976.567 3.047.874 0-.747-.003-1.344.001-1.94.005-.647.37-.96.981-.984.624-.024 1.25 0 1.873-.01.822-.011 1.116-.3 1.146-1.133.018-.523 0-1.048.016-1.573.017-.561.321-.868.879-.927.189-.02.378-.05.538-.072-.27-1.233-.59-2.405-.775-3.6-.399-2.598-2.606-4.648-5.148-4.697-2.792-.057-5.238 1.762-5.465 4.491-.237 2.846-.052 5.729-.052 8.693zm-9.077-13.337c.996.018 1.337.717 1.013 1.486-.474 1.123-1.044 2.227-1.347 3.397-1.152 4.444-.481 8.762 1.449 12.829 1.942 4.094 2.411 8.231 1.226 12.588-.386 1.418-.697 2.858-1.046 4.287-.141.573-.386 1.053-1.094.996-.628-.051-.94-.6-.764-1.344.478-2.038 1.004-4.067 1.436-6.115.651-3.09.192-6.06-1.168-8.891-1.66-3.456-2.531-7.088-2.443-10.927a16.335 16.335 0 012.007-7.522c.193-.352.564-.609.731-.784zm2.788-3.379c.584.051.977.527.893 1.049-.089.552-.446.826-.991.806-.522-.02-.888-.5-.822-1.04.07-.575.445-.794.92-.815z"/></g><defs><clipPath id="clip0_123_235"><path fill="#fff" transform="translate(37 37)" d="M0 0h48v44.184H0z"/></clipPath></defs></svg>