<svg width="30" height="30" fill="none" xmlns="http://www.w3.org/2000/svg"><rect x="1" y="1" width="28" height="28" rx="14" fill="#F5A036" stroke="#F5A036" stroke-width="2"/><g clip-path="url(#clip0_182_212)"><path d="M22.175 11.028l-.717-.752a.444.444 0 00-.33-.15.443.443 0 00-.33.15l-5.639 5.907-5.638-5.906a.444.444 0 00-.33-.15.443.443 0 00-.33.15l-.717.75a.486.486 0 000 .692l6.685 7.004c.096.1.206.15.33.15.124 0 .234-.05.33-.15l6.686-7.004a.486.486 0 000-.691z" fill="#fff"/></g><defs><clipPath id="clip0_182_212"><path fill="#fff" transform="translate(8 7)" d="M0 0h14.318v15H0z"/></clipPath></defs></svg>