<svg width="28" height="28" fill="none" xmlns="http://www.w3.org/2000/svg"><g clip-path="url(#clip0_76_1197)" fill="#0B5285"><path d="M21.782 17.525c-2.578 1.277-5.073 2.623-6.809 5.01-.535.736-.886 1.48-.665 2.463.178.792.144 1.632.193 2.45.015.244.041.566-.317.528-.12-.013-.273-.32-.296-.506-.14-1.173-.209-2.356-.376-3.524-.186-1.287-.87-2.288-1.968-2.992-1.546-.99-3.24-1.66-4.956-2.283-.073-.027-.156-.027-.285-.046-.028.176-.064.331-.076.488-.216 2.779.185 5.47 1.138 8.085.092.253.361.609-.045.767-.414.16-.447-.281-.539-.535-1.37-3.807-1.76-7.667-.573-11.6.142-.47.33-.931.552-1.368 1.256-2.477 1.435-5.022.5-7.635-.33-.923-.671-1.846-1.076-2.739-.48-1.057-.882-2.128-.895-3.302-.003-.29-.13-.78.344-.784.486-.004.28.467.287.74.03 1.234.453 2.347 1.04 3.405.065.117.325.216.465.187a25.607 25.607 0 0110.954.018c.3.065.447-.018.592-.269.643-1.114 1.095-2.279 1.054-3.591-.008-.234-.022-.531.302-.488.126.017.296.315.306.492.085 1.487-.448 2.796-1.19 4.049a2.21 2.21 0 00-.27.866c-.312 2.851.494 5.447 1.962 7.837 1.477 2.407 1.598 5.03 1.416 7.712-.153 2.244-.73 4.4-1.533 6.498-.041.107-.057.243-.133.314-.107.098-.259.147-.39.218-.063-.148-.203-.316-.173-.442.088-.365.248-.712.372-1.069.939-2.731 1.443-5.526 1.214-8.426-.01-.13-.02-.262-.036-.392-.005-.027-.034-.051-.09-.136zm-.646-2.955c-1.762-2.964-3.12-5.984-2.509-9.52-3.822-.844-7.513-.858-11.1-.08.345 1.762.788 3.419.97 5.104.187 1.74-.629 3.319-1.259 4.95 4.701 1.623 9.271 1.225 13.898-.454zm-7.186 8.362c1.126-1.896 2.68-3.218 4.454-4.294.982-.594 2.015-1.102 3.018-1.666.13-.074.314-.253.298-.358-.069-.477-.2-.945-.32-1.457-4.799 1.754-9.567 2.142-14.47.435-.17.674-.32 1.29-.481 1.902-.083.313.01.456.333.57 1.752.616 3.469 1.314 5.049 2.31a4.956 4.956 0 011.902 2.143c.053.115.117.226.216.415z"/><path d="M5.227 9.901H.854c-.164 0-.344.039-.487-.018C.225 9.83.12 9.677 0 9.568c.124-.104.243-.288.373-.295.572-.034 1.147-.017 1.721-.017h3.28c-.224-.246-.407-.386-.503-.57-.074-.142-.038-.34-.05-.514.158.02.368-.018.468.069.37.322.704.685 1.052 1.035.2.202.19.4-.01.597-.35.346-.684.71-1.056 1.031-.097.084-.311.033-.471.045.014-.162-.03-.37.055-.474.125-.157.341-.24.519-.356-.05-.074-.1-.146-.151-.218zm16.62.227c.18.113.398.193.525.348.086.104.046.313.062.475-.16-.01-.378.047-.473-.037a9.333 9.333 0 01-1.073-1.08c-.091-.11-.084-.427.01-.538.324-.39.696-.742 1.077-1.079.088-.078.285-.033.432-.045.002.16.059.353-.008.476-.105.19-.294.335-.549.606h.637c1.379 0 2.757-.002 4.136.002.252.001.6-.067.605.314.005.374-.334.334-.593.334-1.362.003-2.724.001-4.086.001h-.537l-.165.223zm-4.779-.75l.432-.404c.142.204.32.394.404.62.03.08-.169.245-.264.371-.168-.174-.339-.348-.572-.587zm.986.976c.164.348.312.569.362.81.017.087-.2.223-.31.337-.142-.233-.31-.456-.41-.707-.024-.062.166-.21.358-.44zm-8.206 2.238l-.596.619c-.093-.114-.286-.266-.26-.335.09-.233.256-.436.393-.65l.463.366zM8.907 7.77c.21-.185.322-.37.438-.373.403-.011.362.359.39.603.014.114-.172.249-.268.375l-.56-.604zm8.948.135l-.465.493c-.109-.17-.29-.336-.306-.514-.014-.155.16-.327.251-.49l.52.511zM9.198 9.41c.194-.188.313-.405.435-.406.368-.003.36.334.343.575-.012.15-.179.289-.276.432l-.502-.6zm.948 1.59c-.216.267-.362.447-.508.625-.103-.123-.308-.268-.288-.367.046-.223.203-.422.316-.632.13.103.261.204.48.375zm8.564.924c.119.224.27.439.339.677.023.083-.158.225-.247.34-.166-.212-.355-.412-.48-.646-.033-.063.137-.232.213-.352l.175-.02zm-.897-5.551l-.468.425c-.11-.133-.302-.264-.306-.4-.004-.135.183-.277.286-.415l.488.39zm-8.698-.44c.085.168.23.334.235.506.004.113-.189.233-.295.35-.12-.153-.292-.292-.339-.465-.028-.102.14-.26.22-.391h.179zm-.256 7.66c.167.258.334.412.305.488-.073.184-.238.332-.365.494-.1-.106-.293-.23-.278-.315.033-.19.173-.361.338-.667zm10.53.778c-.17-.291-.314-.46-.357-.651-.017-.08.179-.208.279-.314.135.162.304.308.386.493.03.07-.144.23-.308.472zm-5.506-1.848c.134.198.289.328.276.438-.012.109-.197.275-.303.273-.101-.002-.273-.187-.277-.295-.003-.113.159-.23.304-.416z"/></g><defs><clipPath id="clip0_76_1197"><path fill="#fff" d="M0 0h27.227v28H0z"/></clipPath></defs></svg>