<svg width="28" height="28" fill="none" xmlns="http://www.w3.org/2000/svg"><g clip-path="url(#clip0_76_1177)" fill="#0B5285"><path d="M6.059 22.758c-.277 0-.525.049-.738-.017-.157-.048-.268-.248-.398-.38.133-.129.265-.367.399-.369a3.587 3.587 0 001.98-.614c.123-.081.379.037.573.063-.043.19-.05.4-.14.562a.705.705 0 01-.384.278c-.498.146-.499.484-.41.893.416 1.913 2.685 2.755 4.249 1.572.25-.189.524-.514.814-.139.306.396-.098.604-.354.79-.29.213-.62.374-.934.557.336.75 1.292 1.291 2.19 1.241.986-.055 1.86-.642 2.132-1.475-.172 0-.356.051-.477-.013-.166-.088-.287-.264-.427-.403.137-.124.253-.304.414-.36.224-.077.61.022.692-.106.13-.2.08-.527.082-.8.008-.698.003-1.394.003-2.123-.548 0-1.059-.048-1.556.014-.532.064-.894.501-.987 1.038-.01.058-.01.117-.023.173-.06.251-.197.482-.472.378-.148-.056-.31-.312-.31-.477.008-.993.856-1.866 1.854-1.935.393-.028.79.004 1.183-.031.109-.01.294-.161.295-.249.018-1.777.013-3.554.013-5.382-.188-.01-.341-.024-.496-.024-1.945-.002-3.89 0-5.835-.002-.146 0-.32.037-.431-.027-.13-.076-.27-.238-.284-.374-.01-.11.137-.285.258-.345.132-.066.314-.043.473-.044 1.96-.002 3.92-.004 5.88 0 .255.002.445.004.442-.354-.014-2.1-.007-4.201-.009-6.302 0-.07-.016-.141-.03-.253-.167-.009-.321-.024-.477-.025-.921-.002-1.843.012-2.764-.006-1.13-.022-1.955-.682-2.19-1.722-.028-.127-.082-.283-.035-.384.076-.162.215-.385.35-.402.126-.015.37.178.41.322.322 1.143.631 1.397 1.81 1.397h2.929v-1.93c0-.754-.003-.735-.743-.848-.164-.025-.3-.242-.448-.371.143-.137.266-.337.436-.393.208-.068.457-.017.677-.017.171-1.021-.65-2.131-1.755-2.436-1.12-.309-2.401.226-2.788 1.19.769.318 1.464.767 1.835 1.53.237.488.356 1.037.494 1.568.067.26-.017.522-.333.562-.352.043-.427-.214-.462-.502-.18-1.49-1.208-2.488-2.6-2.532-1.515-.046-2.782 1.22-2.74 2.741.02.71-.078.795-.771.674-1.956-.342-3.655 1.385-3.148 3.2.018.068.053.13.077.188.538-.08 1.052-.18 1.57-.22.15-.011.373.109.457.237.17.26-.04.513-.443.543-.915.068-1.737.354-2.452.945-2.024 1.675-1.776 4.978.469 6.265.355-.302.7-.609 1.062-.895.218-.172.493-.285.69.003.211.307-.008.501-.26.672-1.37.936-1.647 2.492-.69 3.853.167.238.346.489.02.714-.314.216-.518-.021-.688-.252-.655-.889-.85-1.878-.575-2.943.074-.288.028-.435-.219-.61a4.679 4.679 0 01-.015-7.658c.19-.137.316-.238.248-.524-.579-2.42 1.129-4.47 3.62-4.37.057.003.114-.006.2-.01.022-.116.048-.225.063-.336.231-1.67 1.577-2.92 3.267-2.997.312-.014.49-.108.654-.38C10.73.416 12.121-.194 13.38.057c1.444.289 2.442 1.302 2.704 2.7.038.204-.115.566.27.594.34.024.696.12.932-.334.287-.554.963-.751 1.564-.57.571.174.966.713.964 1.32-.002.623-.394 1.133-1.018 1.322-.568.171-1.23-.037-1.514-.586-.247-.48-.624-.322-.978-.32-.058 0-.164.158-.166.245-.013.8-.008 1.6-.008 2.474h.977c.673 0 1.346-.015 2.018.006.348.01.616-.076.853-.34.292-.326.604-.637.933-.925.238-.209.297-.383.175-.704-.273-.719.163-1.499.908-1.736.702-.223 1.487.186 1.72.897a1.369 1.369 0 01-.877 1.723c-.15.049-.329.102-.47.064-.442-.12-.694.117-.977.395-1.708 1.678-1.017 1.385-3.413 1.413-.497.006-.995.01-1.491-.002-.26-.007-.372.072-.362.346.017.436.005.872.005 1.357.186.01.34.026.496.026 1.2.002 2.4.021 3.598-.007.585-.014 1.057.144 1.435.596.168.2.409.352.536.571.08.138.08.43-.013.527-.089.092-.35.03-.532.012-.058-.006-.12-.083-.16-.142-.455-.664-1.093-.805-1.864-.764-1.036.056-2.077.021-3.115.01-.276-.003-.395.071-.387.368.018.652.006 1.304.006 2.012.31 0 .576.036.824-.014.136-.027.268-.181.356-.309.354-.514.948-.757 1.527-.604.575.152.983.626 1.047 1.215.06.553-.285 1.128-.824 1.375-.635.29-1.366.06-1.76-.555-.165-.255-.83-.431-1.068-.274a.251.251 0 00-.095.179c-.006.915-.004 1.83-.004 2.803h1.264c.877 0 1.755-.005 2.632.003.237.003.393-.045.529-.277.349-.602.956-.834 1.566-.653.614.182 1.02.709 1.02 1.324 0 .6-.403 1.14-.976 1.314-.633.191-1.229-.055-1.63-.634-.09-.13-.283-.259-.431-.261-1.2-.021-2.399-.006-3.598-.017-.278-.003-.393.075-.386.37.017.67.015 1.342 0 2.014-.006.277.078.39.372.386.965-.013 1.93.008 2.895-.019.158-.004.36-.15.458-.29.39-.559 1.017-.804 1.645-.6.58.19.972.762.943 1.38-.029.621-.483 1.14-1.128 1.284a1.338 1.338 0 01-1.449-.672c-.13-.23-.276-.296-.52-.293-.936.01-1.872.013-2.808 0-.294-.005-.424.071-.41.389.023.48.023.964 0 1.443-.014.315.108.405.407.393.497-.019.995.01 1.49-.01.503-.02.918.126 1.249.51.133.154.298.281.43.436.223.26.447.38.829.299.584-.125 1.172.253 1.415.805a1.387 1.387 0 01-.408 1.62 1.419 1.419 0 01-1.642.068c-.506-.342-.75-.971-.538-1.533.106-.282.016-.425-.151-.642-.497-.646-1.123-.869-1.913-.76-.358.05-.823-.091-1.057.089-.183.142-.091.645-.112.988a3.324 3.324 0 01-2.502 3.029 3.296 3.296 0 01-3.602-1.47c-.13-.21-.25-.34-.535-.353-1.817-.074-3.124-1.273-3.38-3.067-.005-.07-.02-.14-.041-.256zM21.634 20.4c.009-.3-.271-.589-.574-.592-.305-.004-.6.275-.581.58.02.332.207.532.547.558a.573.573 0 00.608-.546zm-.963 5.76a.55.55 0 00.561-.582c-.014-.342-.202-.531-.544-.549a.554.554 0 00-.593.552.578.578 0 00.576.58zm1.742-22.212a.574.574 0 00-.585.536c-.021.33.22.602.553.6.343-.003.55-.184.586-.525.033-.314-.239-.602-.554-.611zm-.686 13.446c.346-.002.63-.286.603-.598-.029-.34-.227-.528-.573-.538a.54.54 0 00-.566.585c.023.348.24.508.536.551zm-3.3-13.064a.584.584 0 00.586-.574c-.003-.304-.29-.594-.593-.567-.328.03-.536.213-.557.554a.563.563 0 00.565.587zm-.026 9.237c.4.02.675-.22.665-.549-.012-.337-.194-.545-.54-.574-.32-.026-.615.24-.605.556.012.339.201.532.48.567z"/><path d="M26.66 14.227c-.026.484-.257.918-.763 1.165-.517.252-1.03.21-1.481-.15-.433-.344-.64-.81-.481-1.354.094-.322.011-.516-.224-.714-.177-.149-.37-.31-.473-.508-.068-.13-.054-.401.038-.491.092-.09.37-.1.493-.025.23.142.389.397.614.551.139.097.362.164.52.127.89-.21 1.751.428 1.758 1.4zm-1.392.51c.347-.012.61-.292.576-.61-.036-.342-.254-.52-.588-.53-.322-.009-.573.28-.546.608.03.35.25.504.558.533zM5.44 12.199c-.066-.055-.33-.167-.376-.337-.09-.334.197-.43.48-.473.983-.148 1.576-.78 1.575-1.674 0-.891-.584-1.516-1.577-1.677-.28-.047-.542-.125-.493-.478.046-.326.307-.337.573-.32 1.272.08 2.318 1.195 2.318 2.476 0 1.286-1.024 2.374-2.5 2.483zm2.868 5.468h1.62c.293 0 .6.024.589.409-.011.378-.32.392-.61.392a727.917 727.917 0 00-3.065 0c-.922.003-1.337.342-1.502 1.239-.05.264-.163.453-.453.416-.29-.037-.35-.255-.343-.517.028-.97.85-1.836 1.884-1.911.624-.046 1.254-.009 1.881-.009v-.019zm19.217 1.406a1.401 1.401 0 01-1.389 1.395c-.756 0-1.401-.642-1.397-1.39.005-.737.622-1.354 1.371-1.367a1.383 1.383 0 011.415 1.362zm-1.379-.562a.571.571 0 00-.581.575c.014.338.209.534.54.569.309.033.596-.24.608-.55a.593.593 0 00-.567-.594zm-.423 4.868a1.363 1.363 0 01-1.4 1.363 1.368 1.368 0 01-1.357-1.365 1.388 1.388 0 011.38-1.394c.763 0 1.381.628 1.377 1.396zm-.801-.008c.002-.314-.27-.595-.585-.572-.329.024-.538.208-.567.546-.026.305.253.591.562.6a.59.59 0 00.59-.574zm1.222-14.768a1.38 1.38 0 11-2.762-.058c.018-.752.63-1.34 1.387-1.336a1.37 1.37 0 011.375 1.394zm-1.381.558c.34-.048.55-.225.573-.566.022-.311-.268-.59-.584-.585a.568.568 0 00-.558.604c.027.352.254.502.569.547zM10.496 21.508c.008 1.05-.84 1.975-1.853 2.029-.273.015-.528-.026-.567-.338-.038-.308.181-.413.464-.457.705-.108 1.154-.585 1.163-1.207.01-.62-.435-1.107-1.135-1.23-.283-.049-.549-.136-.488-.48.059-.337.346-.344.625-.314a2.03 2.03 0 011.79 1.997zm3.965-9.898c.005.936-.732 1.732-1.643 1.78-.26.015-.488-.038-.527-.33-.039-.286.15-.407.414-.459.62-.122.945-.452.96-.953.015-.522-.311-.889-.943-1.018-.26-.054-.465-.148-.432-.44.036-.32.282-.364.557-.343.895.066 1.609.843 1.614 1.762zm-6.443 1.417c-.07-.071-.312-.21-.348-.39-.054-.266.187-.371.45-.414 1.323-.216 1.832-.727 2.066-2.049.048-.266.152-.536.46-.439.157.05.344.328.343.5-.01 1.436-1.386 2.789-2.971 2.792zm-2.579 2.39c-.778.069-1.561-.13-2.068-.878-.228-.335-.34-.764-.424-1.167-.028-.135.198-.323.309-.486.153.12.4.213.445.365.332 1.132.632 1.374 1.82 1.376.219 0 .438-.003.657.002.259.008.474.09.475.394 0 .298-.2.394-.467.395h-.747zM9.854 3.494c.06.059.29.184.329.352.065.298-.165.423-.455.44-.536.034-.854.329-.965.848-.056.255-.177.456-.466.404-.308-.055-.36-.296-.32-.572.116-.807.89-1.477 1.877-1.472zm2.772 14.97c-.261 0-.535.048-.78-.017-.17-.045-.3-.243-.448-.374.142-.134.274-.37.426-.383a9.232 9.232 0 011.61-.003c.155.013.385.219.417.371.06.282-.18.397-.44.405-.262.008-.523.002-.785.002v-.001z"/></g><defs><clipPath id="clip0_76_1177"><path fill="#fff" d="M0 0h27.525v28H0z"/></clipPath></defs></svg>