<svg width="48" height="48" fill="none" xmlns="http://www.w3.org/2000/svg"><path d="M.009 23.99C-.301 13.322 7.909 1.942 20.762.222c5.989-.8 11.523.554 16.561 3.908.988.658 1.267 1.757.704 2.657-.584.931-1.711 1.16-2.748.473-2.444-1.62-5.083-2.733-7.979-3.204-5.329-.865-10.275.167-14.71 3.251-4.968 3.455-7.935 8.233-8.66 14.273-.689 5.74.813 10.934 4.54 15.356 4.248 5.038 9.73 7.482 16.322 7.279 3.134-.098 6.083-.954 8.837-2.469.261-.144.517-.303.784-.433.99-.486 2.018-.203 2.532.69.523.907.23 1.997-.74 2.583a23.564 23.564 0 01-7.04 2.821C15.915 50.402 2.836 41.718.435 28.3c-.252-1.417-.29-2.873-.427-4.31z" fill="#F5A036"/><path d="M24.097 33.177c-1.343.006-2.477-.504-3.438-1.416a3202.286 3202.286 0 01-9.537-9.08c-.892-.854-.949-2.004-.185-2.788.762-.783 1.873-.755 2.788.11 3.078 2.917 6.145 5.844 9.219 8.765.99.94 1.453.904 2.312-.17 6.319-7.887 12.632-15.777 18.968-23.65.34-.424.83-.816 1.331-1.001.762-.284 1.574.121 1.998.796.429.684.387 1.5-.19 2.23-1.497 1.901-3.016 3.786-4.53 5.674-4.945 6.173-9.897 12.341-14.835 18.52-1.01 1.268-2.267 1.995-3.901 2.01zM48 23.926c-.173 4.773-1.485 9.134-4.034 13.126-.7 1.096-1.775 1.4-2.739.788-.908-.577-1.113-1.702-.433-2.763 2.4-3.758 3.534-7.855 3.247-12.311-.08-1.239-.347-2.469-.555-3.697-.167-.994.12-1.772.867-2.207.647-.378 1.563-.35 2.086.181.315.32.612.767.688 1.197.337 1.887.59 3.79.873 5.686z" fill="#F5A036"/></svg>