<svg width="131" height="131" fill="none" xmlns="http://www.w3.org/2000/svg"><path d="M53.5 6.928a24 24 0 0124 0l32.725 18.894a24.001 24.001 0 0112 20.784v37.788a24 24 0 01-12 20.784L77.5 124.072a24 24 0 01-24 0l-32.725-18.894a24 24 0 01-12-20.784V46.606a24 24 0 0112-20.784L53.5 6.928z" fill="#0B5285"/><path d="M77.744 103.081h.713a5.624 5.624 0 003.75-1.425 5.62 5.62 0 001.875-4.219l-6.338 5.644zm5.396-3.536a5.135 5.135 0 01-1.266 1.738 5.124 5.124 0 01-3.417 1.298h0-.682a35.125 35.125 0 01-30.51-30.425h0v-.006a5.126 5.126 0 015.124-5.825h5.63v0h.007a5.125 5.125 0 015.124 4.244c.058.441.135.884.232 1.31.194.855.444 1.697.75 2.518a3.25 3.25 0 01-1.627 4.029l-.03.014-.027.019-.788.525-.383.256.224.403a23.342 23.342 0 003.832 5.097l.003.002a23.342 23.342 0 005.096 3.832l.461.257.232-.474.412-.844s0 0 0 0 0 0 0 0a3.25 3.25 0 014.027-1.626c.821.311 1.664.562 2.52.75l.22.053c.32.079.718.177 1.098.184a5.125 5.125 0 014.18 4.943v5.623a5.124 5.124 0 01-.442 2.105zm-2.252-1.92v-.003l-.038-5.844a2.375 2.375 0 00-1.876-2.367l-.016-.004-.016-.002a20.03 20.03 0 01-1.481-.274 25.19 25.19 0 01-2.905-.846l-.437-.156-.188.425-1.16 2.62a1.376 1.376 0 01-.783.711l-.01.004-.011.005a1.375 1.375 0 01-1.035.004A26.669 26.669 0 0158.06 79.02a1.375 1.375 0 01.674-1.828l.002-.001 2.625-1.219.421-.196-.164-.434a20.44 20.44 0 01-.842-2.837h0v-.002a19.78 19.78 0 01-.275-1.482l-.002-.016-.004-.016a2.375 2.375 0 00-2.369-1.877h-5.62 0a2.375 2.375 0 00-1.781.808h0l-.007.008a2.543 2.543 0 00-.584 1.913h0l.001.008A32.375 32.375 0 0078.15 99.995h.002a2.47 2.47 0 001.928-.588l.001-.001a2.377 2.377 0 00.808-1.781z" fill="#fff" stroke="#0B5285"/></svg>