<svg width="20" height="20" fill="none" xmlns="http://www.w3.org/2000/svg"><path d="M16.2 10.833c-.183 0-.375-.059-.558-.1a7.861 7.861 0 01-1.092-.325 1.667 1.667 0 00-2.067.833l-.183.375a10.15 10.15 0 01-2.217-1.667 10.15 10.15 0 01-1.666-2.216l.35-.234A1.667 1.667 0 009.6 5.433a8.609 8.609 0 01-.325-1.092 6.18 6.18 0 01-.1-.567 2.5 2.5 0 00-2.5-2.075h-2.5a2.5 2.5 0 00-2.5 2.842 15.833 15.833 0 0013.767 13.717h.316a2.5 2.5 0 002.285-1.482 2.5 2.5 0 00.215-1.027v-2.5a2.5 2.5 0 00-2.058-2.416zm.416 5a.833.833 0 01-.602.802.876.876 0 01-.364.031A14.167 14.167 0 013.392 4.35a.908.908 0 01.208-.683.833.833 0 01.625-.283h2.5a.833.833 0 01.833.658c.034.228.075.453.125.675.096.44.225.871.384 1.292l-1.167.54a.834.834 0 00-.408 1.109 12.075 12.075 0 005.833 5.833c.203.084.43.084.633 0a.835.835 0 00.475-.433l.517-1.167c.43.154.87.282 1.317.383.222.05.447.092.675.126a.833.833 0 01.658.833l.016 2.6z" fill="#F5A036"/></svg>