<svg width="33" height="28" fill="none" xmlns="http://www.w3.org/2000/svg"><g clip-path="url(#clip0_76_1149)" fill="#0B5285"><path d="M27.699 9.973V6.138c-1.788-.08-3.022-1.049-4.032-2.405a20.064 20.064 0 00-1.09-1.31c-.65-.732-1.474-1.136-2.45-1.144-2.215-.02-4.432-.013-6.648-.008-.555.001-.882.296-.869.734.013.415.333.686.862.694.807.012 1.615 0 2.422.006.494.006.801.247.778.627-.027.482-.35.632-.78.631-.859 0-1.719.02-2.577-.008-1.173-.038-1.993-.891-1.976-2.013.016-1.107.874-1.932 2.054-1.937 2.181-.01 4.363.002 6.545-.005 1.524-.004 2.764.593 3.744 1.751.534.631 1.052 1.277 1.587 1.907.57.67 1.295 1.078 2.171 1.157.174.015.436-.09.536-.228.537-.746 1.285-.794 2.08-.69.335.044.556.3.473.62-.056.221-.308.39-.475.58-.01.011-.033.008-.05.011-.31.06-.773.02-.895.206-.17.261-.11.69-.112 1.047-.01 1.311-.005 2.624-.003 3.936.001.607.07.672.69.676.533.004 1.067-.022 1.598.009.396.023.448-.17.445-.497a109.99 109.99 0 01.01-3.678c.007-.242.132-.56.311-.704.41-.327.936.04.944.644.015 1.035.005 2.071.005 3.108 0 .518.006 1.036-.002 1.554-.01.566-.223.81-.765.818-.979.015-1.958.01-2.938 0-.532-.007-.94-.256-1.279-.67a.835.835 0 00-.538-.277c-.652-.033-1.305-.01-1.958-.014-1.653-.014-3.088-.563-4.279-1.737-1.09-1.076-2.209-2.125-3.295-3.206-.788-.783-.86-1.881-.213-2.662.62-.748 1.751-.971 2.502-.36 1.04.845 2.004 1.783 2.984 2.701.276.26.28.604 0 .876-.297.29-.63.232-.922-.031-.765-.693-1.523-1.396-2.285-2.094-.127-.116-.248-.24-.386-.343-.3-.225-.616-.242-.881.04-.265.28-.257.617.015.88 1.323 1.28 2.632 2.579 4.005 3.803.683.609 1.572.831 2.493.839.805.006 1.608 0 2.444 0zM5.294 18.026v3.805c.23.037.446.067.66.106 1.163.218 2.11.798 2.86 1.712.513.626 1.027 1.252 1.554 1.867.676.788 1.541 1.204 2.577 1.209 2.182.011 4.365.004 6.547.005.051 0 .103 0 .154-.004.436-.034.73-.25.735-.704.005-.46-.297-.699-.725-.713-.755-.026-1.512-.007-2.268-.015-.539-.005-.826-.236-.8-.649.031-.499.377-.608.794-.609.756 0 1.513-.016 2.268.006 1.205.037 2.035.89 2.01 2.035-.025 1.105-.885 1.913-2.072 1.918-2.182.01-4.365 0-6.547.003-1.525.002-2.761-.605-3.736-1.766-.533-.633-1.05-1.279-1.588-1.907-.56-.653-1.27-1.058-2.129-1.134-.188-.017-.47.093-.576.241-.566.789-1.474.797-2.187.632-.178-.041-.417-.379-.4-.56.019-.21.284-.402.45-.595.026-.03.099-.022.15-.029.982-.127.982-.127.982-1.117 0-1.365-.013-2.728.007-4.092.006-.464-.154-.668-.627-.65-.566.02-1.134.018-1.7 0-.32-.01-.42.114-.414.424.016.741.005 1.484.005 2.227 0 .38.002.76-.002 1.14-.004.63-.212.948-.623.952-.41.004-.648-.335-.65-.936-.002-.742 0-1.484 0-2.227 0-.656-.005-1.313 0-1.969.005-.626.219-.855.828-.862.928-.01 1.856-.003 2.784-.002.57.001 1.016.232 1.378.685a.82.82 0 00.542.267c.84.039 1.685.001 2.524.052 1.389.084 2.591.634 3.596 1.604 1.165 1.124 2.337 2.241 3.48 3.387.63.63.735 1.49.35 2.242-.37.729-1.132 1.144-1.978.98a2.366 2.366 0 01-1.04-.511c-.863-.738-1.685-1.525-2.517-2.3-.4-.373-.462-.738-.196-1.034.263-.292.644-.27 1.044.091.804.729 1.596 1.47 2.397 2.201.415.38.811.414 1.08.109.262-.296.206-.658-.184-1.038a692.268 692.268 0 00-3.3-3.202c-.899-.863-1.973-1.29-3.22-1.28-.74.011-1.478.005-2.277.005zm11.258-6.591c.78-.705 1.655-1.045 2.673-.849 1.226.236 2.041.975 2.353 2.188.299 1.166-.001 2.21-.925 2.99-1.17.988-2.387 1.917-3.577 2.88-.389.315-.733.272-1.108-.031-1.123-.909-2.267-1.793-3.388-2.705-1.35-1.099-1.575-2.951-.537-4.234 1.103-1.361 2.892-1.522 4.298-.385.053.042.112.077.211.146zm-1.989.373c-.918.008-1.536.44-1.785 1.11-.261.706-.079 1.442.543 1.952.969.797 1.967 1.557 2.936 2.353.254.209.407.129.614-.04.946-.77 1.9-1.531 2.854-2.29.603-.48.824-1.1.625-1.835-.188-.694-.674-1.113-1.379-1.232-.732-.124-1.364.207-1.767.885-.428.72-.896.72-1.325-.006-.342-.582-.84-.89-1.316-.897zm9.255 6.62c.045-.414.268-.649.638-.64.371.008.607.245.594.639-.013.385-.244.622-.623.614-.376-.01-.567-.27-.61-.613zM8.443 9.227c.385.042.617.247.612.633-.004.379-.22.62-.61.616-.385-.004-.603-.235-.606-.62 0-.393.239-.582.604-.63zm-.063 2.41c-.014.433-.24.663-.607.668-.37.005-.614-.237-.62-.617-.006-.384.235-.625.607-.628.37-.005.593.224.62.577zm17.242 3.7c-.401-.03-.648-.216-.654-.605-.006-.377.193-.622.587-.631.384-.009.608.204.628.59.02.4-.228.577-.561.646zm-1.679 4.686c-.064.358-.26.602-.646.587-.38-.016-.608-.258-.596-.635.012-.378.257-.603.638-.594.385.01.579.25.604.642z"/><path d="M14.338 5.744c-.394-.02-.627-.216-.639-.604-.011-.393.226-.618.6-.63.377-.011.624.22.633.599.01.38-.228.59-.594.635zm-1.858-.565c.389.025.62.228.63.611.007.385-.225.623-.602.63-.378.007-.623-.229-.629-.606-.006-.376.225-.594.601-.635zm-1.617 1.039c.395.056.62.259.611.647-.008.391-.246.608-.623.602-.383-.005-.607-.25-.598-.63.01-.379.259-.573.61-.62zm-.748 1.993c-.034.363-.197.616-.598.624-.39.008-.615-.211-.631-.59-.016-.387.224-.62.592-.638.377-.017.592.214.637.604zm15.495 3.935c.368.054.595.252.58.644-.014.387-.243.599-.625.59-.39-.01-.594-.252-.586-.632.009-.387.25-.573.631-.601zM7.501 14.23c-.4-.04-.628-.26-.621-.636.006-.373.237-.62.62-.613.378.007.612.257.609.629-.004.373-.247.58-.608.62zm-.505 1.353c.04-.39.216-.643.607-.655.387-.01.619.223.634.596.016.381-.227.618-.596.64-.385.02-.58-.232-.645-.581zm13.846 6.687c-.046.383-.25.625-.63.625-.378 0-.614-.23-.613-.617.002-.385.232-.61.614-.617.394-.006.579.242.63.608zM32.39 5.108c-.398-.019-.635-.215-.644-.605-.01-.364.203-.592.563-.614.383-.023.64.195.663.572.025.384-.217.596-.583.647zM21.858 20.68c.413.026.638.242.639.62.001.377-.222.61-.61.614-.391.003-.613-.236-.616-.61-.003-.378.238-.582.587-.623zM1.265 23.447c-.027.421-.223.66-.611.664-.383.004-.627-.23-.628-.61-.002-.351.218-.579.582-.6.396-.026.586.215.657.546zm17.724-.59c-.035.42-.262.635-.633.627-.377-.009-.606-.245-.593-.63.012-.38.236-.601.626-.593.395.007.57.25.6.596zm5.605-6.277c.065-.395.293-.61.668-.574.374.035.582.284.549.67-.033.389-.276.583-.659.553-.394-.03-.552-.289-.558-.65z"/></g><defs><clipPath id="clip0_76_1149"><path fill="#fff" d="M0 0h33v28H0z"/></clipPath></defs></svg>