<svg width="131" height="131" fill="none" xmlns="http://www.w3.org/2000/svg"><path d="M53.5 6.928a24 24 0 0124 0l32.725 18.894a24.001 24.001 0 0112 20.784v37.788a24 24 0 01-12 20.784L77.5 124.072a24 24 0 01-24 0l-32.725-18.894a24 24 0 01-12-20.784V46.606a24 24 0 0112-20.784L53.5 6.928z" fill="#0B5285"/><g clip-path="url(#clip0_161_212)" fill="#fff"><path d="M52.513 108.822c-.19 1.046-.318 1.153-1.306 1.153-2.037.001-4.076.003-6.113-.001-.87-.002-1.09-.214-1.09-1.066-.004-4.918-.004-9.837 0-14.754 0-.817.224-1.043 1.038-1.046 2.015-.006 4.028-.003 6.042-.002 1.159 0 1.232.06 1.431 1.222 1.016-.657 1.821-1.44 2.16-2.595.862-2.941 1.698-5.89 2.543-8.835.292-1.02.529-1.158 1.558-.947 2.824.579 3.683 3.22 3.447 5.269-.169 1.46-.371 2.918-.572 4.48h8.633c1.542.002 2.581.622 3.038 1.807.454 1.175.117 2.238-1.042 3.292-.032.03-.046.08-.067.12.852 2.038.727 2.79-.738 4.229.963 1.574.753 2.998-.513 4.043.13.919.383 1.698.312 2.443-.13 1.347-1.3 2.323-2.661 2.33-3.958.022-7.918.079-11.873-.034-1.156-.032-2.297-.585-3.446-.898a73.634 73.634 0 01-.781-.21zm-.079-12.945v.737c0 3.208-.006 6.416.003 9.624.003 1.396-.167 1.052 1.09 1.423 1.163.343 2.343.834 3.525.869 3.814.111 7.633.045 11.45.038.91-.002 1.507-.578 1.508-1.403.001-.825-.596-1.395-1.503-1.407-.82-.013-1.64-.009-2.459-.002-.506.004-.935-.156-.925-.714.01-.558.45-.695.95-.69 1.055.008 2.108.012 3.162-.002.899-.012 1.492-.603 1.478-1.431-.013-.797-.599-1.361-1.462-1.378-.82-.015-1.64-.012-2.459-.001-.498.007-.949-.12-.964-.675-.017-.606.452-.735.978-.731 1.03.01 2.061.011 3.091 0 .914-.01 1.512-.568 1.52-1.392.007-.826-.589-1.404-1.49-1.42a79.24 79.24 0 00-2.389 0c-.517.007-1.005-.098-1.005-.704s.49-.707 1.007-.703c1.006.011 2.014.01 3.021 0 .962-.008 1.568-.57 1.56-1.421-.006-.847-.615-1.38-1.59-1.392-.35-.004-.702-.001-1.054-.001-2.764 0-5.526.004-8.29-.003-.84-.002-1.085-.304-.966-1.139.073-.509.142-1.02.207-1.53.143-1.114.3-2.226.421-3.344.175-1.587-.43-2.916-1.543-3.512-.488-.261-.768-.266-.942.38-.693 2.55-1.465 5.08-2.155 7.63-.554 2.045-1.763 3.47-3.775 4.294zm-1.452 12.66V94.568h-5.538v13.969h5.538z"/><path d="M71.42 88.885c-.702 0-1.327.008-1.953-.002-1.302-.02-2.258-.914-2.26-2.1-.003-1.188.953-2.094 2.253-2.106 1.523-.014 3.044 0 4.566-.006.98-.004 1.59-.534 1.607-1.375.017-.877-.603-1.376-1.612-1.453-1.11-.086-2.272-.102-3.303-.462-2.15-.749-3.52-2.935-3.497-5.2.02-2.24 1.415-4.319 3.527-5.123.538-.205.74-.448.682-1.005-.048-.464-.014-.936-.007-1.404.008-.536.28-.834.82-.841.844-.011 1.686-.007 2.53-.003.575.003.856.308.857.877.002.608 0 1.215 0 1.932.657 0 1.278-.005 1.9.001 1.355.014 2.322.904 2.314 2.118-.009 1.212-.977 2.082-2.341 2.092-1.241.008-2.483.001-3.723.001-1.733 0-2.352.364-2.363 1.392-.011 1.037.623 1.39 2.331 1.44.786.025 1.601.102 2.342.342 2.195.712 3.696 2.816 3.755 5.1.06 2.326-1.347 4.52-3.524 5.333-.587.22-.743.51-.696 1.066.036.441.01.89.005 1.334-.004.532-.262.846-.805.856a72.66 72.66 0 01-2.6 0c-.542-.01-.8-.324-.804-.857-.004-.624-.001-1.251-.001-1.947zm1.399-19.649c0 .6-.04 1.117.008 1.627.075.784-.263 1.123-1.02 1.299-1.901.444-3.207 2.18-3.186 4.113.02 1.94 1.347 3.632 3.267 4.048.675.146 1.393.117 2.092.128 1.771.03 3.05 1.195 3.05 2.81.002 1.615-1.276 2.8-3.044 2.81-1.475.009-2.951.008-4.426-.001-.496-.003-.93.104-.94.688-.012.628.444.738.967.73.749-.012 1.498-.01 2.248 0 .727.009.968.247.98.964.012.599.004 1.199.004 1.785h1.411c0-.574.04-1.09-.008-1.6-.075-.783.26-1.123 1.018-1.3 1.904-.447 3.206-2.178 3.188-4.112-.018-1.936-1.354-3.642-3.264-4.052-.677-.145-1.394-.114-2.094-.125-1.771-.028-3.049-1.195-3.052-2.81-.003-1.616 1.277-2.801 3.045-2.81a388.63 388.63 0 014.426 0c.498.003.93-.105.942-.685.013-.629-.443-.739-.967-.73-.75.011-1.499.01-2.248 0-.727-.01-.969-.248-.982-.963-.01-.599-.002-1.2-.002-1.812-.51-.002-.923-.002-1.413-.002z"/><path d="M88.943 80.45c.528 6.716-4.74 13.43-11.61 15.01-.341.078-.709.208-1.032.146-.256-.05-.613-.332-.648-.553-.034-.219.225-.604.454-.718.41-.203.898-.245 1.347-.374 6.342-1.822 10.482-7.758 10.11-14.492-.348-6.332-5.341-11.841-11.687-12.895-8.455-1.406-16.224 4.985-16.41 13.504-.012.537-.09 1.07-.742 1.04-.65-.032-.67-.586-.66-1.112.132-6.922 5.232-13.125 12.028-14.618 8.865-1.948 17.253 3.622 18.827 12.54.148.816.023 1.68.023 2.523zm-33.667-6.356c.59.065 1.327-.073 1.336.723.007.801-.717.692-1.296.733-.16.517.088 1.388-.813 1.345-.758-.037-.65-.765-.675-1.333-.589-.069-1.368.079-1.35-.76.016-.784.757-.647 1.312-.7.117-.545-.088-1.35.76-1.343.8.008.666.742.726 1.335zm24.559 27.474c-.596-.061-1.37.076-1.348-.761.021-.776.755-.656 1.319-.686.101-.565-.089-1.362.76-1.352.795.01.657.748.72 1.316.542.119 1.39-.092 1.333.814-.046.722-.732.638-1.29.642-.16.543.081 1.406-.822 1.362-.738-.033-.645-.722-.672-1.335z"/></g><defs><clipPath id="clip0_161_212"><path fill="#fff" transform="translate(44 65)" d="M0 0h44.993v45H0z"/></clipPath></defs></svg>