<svg width="131" height="131" fill="none" xmlns="http://www.w3.org/2000/svg"><path d="M53.5 6.928a24 24 0 0124 0l32.725 18.894a24.001 24.001 0 0112 20.784v37.788a24 24 0 01-12 20.784L77.5 124.072a24 24 0 01-24 0l-32.725-18.894a24 24 0 01-12-20.784V46.606a24 24 0 0112-20.784L53.5 6.928z" fill="#0B5285"/><g clip-path="url(#clip0_161_214)" fill="#fff"><path d="M60.425 91.418v-24.08c0-1.183.147-1.328 1.339-1.328 5.902 0 11.803.006 17.705-.01.576-.001 1 .158 1.408.572a699.682 699.682 0 006.566 6.567c.387.383.569.78.569 1.337-.015 8.877-.01 17.753-.012 26.63 0 .981-.206 1.183-1.187 1.187-.532.003-1.063 0-1.715 0v.79c0 1.597.008 3.192-.002 4.789-.012 1.817-1.258 3.143-2.924 3.125-1.639-.016-2.861-1.327-2.871-3.105-.01-1.833-.003-3.668-.003-5.551H64.776c0 .621.07 1.23-.025 1.812-.062.376-.279.863-.58 1.039a530.712 530.712 0 01-9.755 5.582c-.273.152-.781.148-1.057-.006a566.665 566.665 0 01-9.756-5.582c-.29-.168-.564-.637-.568-.969a368.725 368.725 0 010-9.65c.004-.333.279-.802.568-.97 3.232-1.895 6.495-3.737 9.741-5.608.446-.257.802-.17 1.211.067 1.896 1.103 3.808 2.184 5.87 3.362zm18.871 9.399v-.875c0-3.63-.006-7.258.007-10.887a3.42 3.42 0 01.18-1.131 155.34 155.34 0 011.953-5.154c.125-.309.486-.522.739-.78.271.267.662.484.792.807.69 1.7 1.324 3.425 1.951 5.153.12.33.17.705.172 1.06.011 3.676.007 7.355.007 11.032v.766h1.405V74.713c-2.055 0-4.06.003-6.065-.002-.93-.001-1.14-.215-1.14-1.161-.004-1.645-.002-3.291-.002-4.936v-1.116H61.87v.897c0 7.379.032 14.759-.03 22.137-.011 1.256.208 2.131 1.475 2.546.292.096.54.321.822.46.468.228.656.583.645 1.107-.025 1.112-.008 2.225-.008 3.338v2.832c4.872.002 9.652.002 14.522.002zm-26.129 8.226c0-2.817.013-5.472-.022-8.127-.002-.231-.272-.54-.5-.672-2.481-1.448-4.978-2.867-7.473-4.291-.202-.115-.417-.205-.65-.318-.032.123-.063.188-.063.254-.004 2.584-.017 5.167.014 7.751.003.237.25.553.472.688 1.198.726 2.422 1.406 3.638 2.101l4.584 2.614zm1.446.005c2.898-1.654 5.65-3.213 8.379-4.81.196-.114.32-.512.322-.779.025-2.417.014-4.835.012-7.254 0-.177-.03-.354-.054-.614-.604.34-1.114.658-1.652.919-.388.187-.498.451-.483.862.027.822-.008 1.645.013 2.467.013.497-.183.817-.632 1.03-.807.385-1.598.801-2.4 1.198-.867.428-1.31.141-1.322-.854-.007-.592-.001-1.186-.001-1.864-.212.087-.321.124-.423.175-1.759.901-1.759.901-1.759 2.862v6.662zM45.32 94.232c.048.124.05.156.065.165 2.74 1.58 5.48 3.162 8.225 4.732.128.072.35.11.467.05.671-.354 1.323-.741 1.99-1.123-.09-.12-.111-.171-.149-.193-2.723-1.564-5.445-3.13-8.177-4.676-.15-.085-.427-.077-.583.003-.62.318-1.217.684-1.838 1.042zm6.4-3.658c.093.122.115.175.152.196 2.724 1.564 5.447 3.126 8.176 4.679.126.071.344.113.459.054.669-.353 1.32-.74 2.086-1.178-.188-.117-.246-.156-.307-.191-2.682-1.537-5.362-3.078-8.055-4.597-.17-.096-.477-.098-.654-.01-.623.31-1.217.68-1.857 1.047zm6.522 9.731c1.446-.426 1.458-.439 1.458-1.77 0-.338-.034-.68.007-1.013.06-.485-.157-.729-.566-.958-2.715-1.527-5.416-3.08-8.12-4.625-.96-.549-1.084-.537-2.014.296.213.13.414.261.621.38 2.6 1.487 5.194 2.982 7.806 4.445.57.32.872.697.817 1.376-.048.597-.009 1.202-.009 1.869zm22.56-31.58V73.2h4.44c-1.47-1.484-2.955-2.98-4.44-4.475zm.193 21.183l-.202.136v15.122h.611c.028-.099.062-.166.062-.234.005-4.738.014-9.476-.014-14.214-.001-.27-.298-.54-.457-.81zm2.618.09c-.615.093-.704.47-.702.986.014 4.495.008 8.991.008 13.487v.696h.694V89.998zm.037 16.691h-2.905c.083.937-.325 1.938.636 2.616.496.349 1.05.367 1.565.043 1.039-.656.627-1.691.704-2.659zm-1.352-21.674l-.193-.008c-.33.867-.639 1.745-1.004 2.599-.198.459-.174.763.315.98.194.085.392.364.537.33.43-.1.849-.281 1.236-.494.124-.069.231-.37.185-.51-.335-.974-.713-1.933-1.076-2.897z"/><path d="M85.077 76.227v1.335H66.278v-1.335h18.799zm-21.728 4.238V79.13h18.798v1.334H63.349zm14.454 1.554v1.363H63.385v-1.363h14.418zm.014 2.917v1.337H63.374v-1.337h14.443zm-13.095-7.358H63.38v-1.367h1.343v1.367zm18.973 1.53h1.359v1.356h-1.36v-1.356z"/></g><defs><clipPath id="clip0_161_214"><path fill="#fff" transform="translate(43 66)" d="M0 0h45.01v45H0z"/></clipPath></defs></svg>