<svg width="131" height="131" fill="none" xmlns="http://www.w3.org/2000/svg"><path d="M53.5 6.928a24 24 0 0124 0l32.725 18.894a24.001 24.001 0 0112 20.784v37.788a24 24 0 01-12 20.784L77.5 124.072a24 24 0 01-24 0l-32.725-18.894a24 24 0 01-12-20.784V46.606a24 24 0 0112-20.784L53.5 6.928z" fill="#0B5285"/><g clip-path="url(#clip0_161_218)" fill="#fff"><path d="M49.607 104.59c-1.251-.588-2.13-1.432-2.546-2.749-.038-.119-.29-.226-.449-.238-.437-.032-.878-.011-1.318-.011-1.112-.003-1.29-.177-1.292-1.272-.002-.568 0-1.138 0-1.706V76.216c0-1.162.158-1.32 1.314-1.32H73.47c1.157 0 1.32.163 1.322 1.314v6.103h.824c2.078 0 4.154-.006 6.233.001 1.561.006 2.465.91 2.474 2.479.008 1.607-.02 3.215.023 4.82.007.274.223.642.453.793.798.524 1.635.988 2.476 1.442.509.275.731.641.726 1.242-.025 2.448-.008 4.895-.012 7.343-.002.94-.223 1.153-1.182 1.159-.585.002-1.169 0-1.816 0-.37 1.428-1.245 2.383-2.613 2.941h5.554V106h-43.88v-1.41h5.554zm23.67-10.447v-17.71H45.501v17.71h27.774zm13.211-.704l.075-.192c-.17-.138-.326-.3-.512-.41-.694-.416-1.375-.86-2.101-1.205a4.24 4.24 0 00-1.51-.407c-.997-.062-2.001-.023-3.003-.018-.673.005-.98-.326-.975-1 .009-1.162.001-2.324.001-3.485v-2.878h-3.609v16.267c.868 0 1.677.031 2.479-.021.21-.013.453-.246.592-.442.296-.417.472-.934.81-1.308 1.831-2.025 5.028-1.392 6.05 1.2.175.444.366.638.832.577.279-.037.568-.007.855-.007v-2.231c-.664 0-1.274-.008-1.881 0-.665.011-1-.294-.995-.98.007-.816-.007-1.631.005-2.446.01-.756.264-1.006 1.022-1.017.622-.005 1.243.002 1.865.002zm-32.555 5.717c.868-1.407 2.093-2.182 3.737-1.958 1.666.227 2.676 1.296 3.125 2.863h12.474v-4.365h-27.76v4.379h1.474c.804-3.04 4.72-4.245 6.95-.92zm6.998 2.468c-.399.65-.667 1.282-1.107 1.748-.452.476-1.074.789-1.6 1.158h22.182c-1.337-.544-2.226-1.48-2.598-2.907l-16.877.001zm19.027-11.937h2.898c0-1.76.025-3.482-.03-5.198-.007-.236-.384-.628-.624-.657-.735-.086-1.487-.031-2.244-.031v5.886zm-29.361 13.391a2.197 2.197 0 002.2-2.188c.014-1.264-.957-2.262-2.2-2.262a2.195 2.195 0 00-2.2 2.188c-.015 1.262.955 2.259 2.2 2.262zm8.799-2.234c-.005-1.258-.996-2.237-2.244-2.216-1.209.019-2.159 1.004-2.154 2.232.004 1.258.994 2.236 2.243 2.218 1.204-.018 2.16-1.007 2.155-2.234zm19.798.033a2.195 2.195 0 002.261 2.199c1.203-.025 2.151-1.023 2.138-2.25a2.195 2.195 0 00-2.261-2.2c-1.206.028-2.149 1.02-2.138 2.251zm-23.12 3.644c-.702-.566-1.477-1.192-2.18-1.762l-2.17 1.762h4.35zm29.025-9.568v1.403h1.374v-1.403H85.1zM54.307 70.374V69h8.699v1.374h-8.7zm2.913 2.976v-1.364h8.727v1.364H57.22zm-4.49-2.936h-1.343v-1.412h1.343v1.412z"/><path d="M58.66 89.689h-1.461c0-.643.004-1.254-.001-1.864-.008-.853-.204-1.056-1.024-1.066-.362-.006-.724-.002-1.151-.002v2.903h-1.49v-3.458l.001-2.963c.002-.603.296-.92.896-.925.684-.004 1.368-.026 2.052.006 1.704.083 2.644 1.77 1.868 3.307-.08.16-.179.366-.145.523.123.567.36 1.113.439 1.683.077.581.016 1.18.016 1.856zm-3.634-4.415c.535 0 .994.02 1.453-.006.456-.027.786-.32.682-.758-.066-.276-.405-.614-.68-.684-.45-.114-.95-.031-1.455-.031v1.479zm8.744-.019v1.484h-2.136v1.487h2.85v1.478c-1.241 0-2.48.04-3.713-.036-.225-.013-.6-.494-.607-.767-.053-1.927-.036-3.855-.022-5.782.003-.493.3-.79.788-.797 1.167-.017 2.336-.006 3.549-.006v1.453h-2.844v1.488c.685-.002 1.377-.002 2.135-.002zm6.598-2.938v1.445h-2.864v1.488h2.106v1.483h-2.108v1.488h2.843v1.485c-1.23 0-2.469.044-3.698-.039-.233-.016-.61-.534-.618-.829-.057-1.876-.031-3.756-.028-5.635.001-.524.256-.868.784-.879 1.17-.023 2.338-.007 3.583-.007zm-21.229 4.404v2.95h-1.424c-.015-.183-.046-.392-.046-.602-.004-1.875-.005-3.748 0-5.623.003-.902.23-1.128 1.128-1.132 1.047-.005 2.094-.002 3.203-.002v1.45h-2.811v1.507h2.1v1.452h-2.15zm32.942 7.416H79.24V92.75h2.842v1.387zm-30.789 6.026v1.38h-1.364v-1.38h1.364zm6.586 1.392h-1.364v-1.379h1.364v1.379zm22.842-1.42h1.348v1.412H80.72v-1.412z"/></g><defs><clipPath id="clip0_161_218"><path fill="#fff" transform="translate(44 69)" d="M0 0h44v37H0z"/></clipPath></defs></svg>