<svg width="131" height="131" fill="none" xmlns="http://www.w3.org/2000/svg"><path d="M53.5 6.928a24 24 0 0124 0l32.725 18.894a24.001 24.001 0 0112 20.784v37.788a24 24 0 01-12 20.784L77.5 124.072a24 24 0 01-24 0l-32.725-18.894a24 24 0 01-12-20.784V46.606a24 24 0 0112-20.784L53.5 6.928z" fill="#0B5285"/><g clip-path="url(#clip0_161_217)"><path d="M69.684 99.784c-.002.14-.005.276-.01.412-.011.453-.023.887.028 1.305.016.129.002.288-.018.471l-.005.04c-.018.165-.038.347-.03.514.008.182.05.372.187.518.139.148.349.222.632.227.285.005.499-.06.644-.201.144-.139.195-.327.21-.508a3.21 3.21 0 00-.022-.548v-.007a2.637 2.637 0 01-.02-.477c.047-.474.036-.958.025-1.442a36.422 36.422 0 01-.008-.5l.048-.009.007-.001a.556.556 0 01.054-.01l.117.002c.147.003.285.005.423.023 0 0 0 0 0 0l.02-.15m-2.282.341l6.65-2.754m-6.65 2.754l-.052.018-.093.03c-.096.034-.17.062-.236.097m.381-.145l.002-.158-7.926 9.867v-9.74l.25.145c.296.171.555.32.806.486 1.193.787 2.035 1.206 2.892 1.204.857-.003 1.698-.426 2.891-1.221m3.366-.923c2.05.27 3.475-.563 4.23-2.469m-4.23 2.469a3.895 3.895 0 00-.444-.023l-.117-.003.561.026zm4.23-2.469l.139.055m-.14-.055l.14.055s0 0 0 0m-.14-.055c.537-1.354 1.5-2.185 2.798-2.79m-2.658 2.845c.519-1.309 1.447-2.116 2.722-2.71m-.064-.136l.064.136s0 0 0 0m-.064-.136c2.095-.975 2.652-1.942 2.408-4.243-.147-1.393.131-2.59.991-3.683 1.326-1.686 1.323-3.395-.001-5.08L60.243 99.613l-.15-.001m18.9-5.429l.063.136m0 0c1.056-.491 1.753-.994 2.147-1.686.395-.692.47-1.548.347-2.709-.145-1.36.127-2.516.96-3.574.677-.863 1.025-1.743 1.024-2.634 0-.89-.349-1.77-1.026-2.632h0c-.835-1.062-1.149-2.218-.95-3.57h0c.15-1.012.036-1.912-.37-2.66-.407-.749-1.1-1.33-2.077-1.72h0c-1.375-.548-2.293-1.482-2.848-2.854h0c-.372-.918-.914-1.603-1.622-2.021-.709-.418-1.567-.56-2.554-.417l.022.148-.022-.148c-1.524.22-2.808-.166-4.019-1.1h0c-.759-.586-1.551-.89-2.353-.895-.803-.004-1.599.291-2.364.876-1.233.94-2.534 1.342-4.086 1.119-.97-.14-1.818 0-2.52.412-.7.412-1.238 1.087-1.606 1.992h0c-.567 1.395-1.496 2.345-2.894 2.907-.961.386-1.646.958-2.05 1.697-.405.738-.52 1.626-.373 2.627h0c.204 1.374-.113 2.552-.962 3.635-.667.85-1.011 1.72-1.012 2.6-.002.88.34 1.751 1.007 2.604.845 1.081 1.125 2.254.979 3.64h0c-.12 1.146-.044 1.994.347 2.679.39.685 1.078 1.182 2.116 1.663h0c1.302.604 2.277 1.415 2.762 2.758h0c.037.1.086.192.133.275l.04.07a3.244 3.244 0 01.095.17l.134-.068m0 0c.708 1.416 1.858 2.05 3.43 1.964.295-.017.591-.013.903-.008.146.002.295.004.45.004h-.15v.149m-4.633-2.109a3.451 3.451 0 00-.1-.18c-.06-.104-.12-.207-.16-.318-.504-1.393-1.516-2.23-2.84-2.843m3.1 3.341l-3.1-3.34m7.732 5.449v4.161c-.002 1.861-.003 3.723.004 5.584.003.734.26 1.296.714 1.583.455.287 1.064.27 1.706-.054m-2.424-11.273l10.411 5.407.033-.146c.17.038.346.175.473.318.066.074.126.157.17.241a.643.643 0 01.082.267c.06 1.314.07 2.636.013 3.951-.026.604-.318 1.071-.754 1.313-.434.242-.992.251-1.531-.015v-.001c-.377-.186-.745-.379-1.112-.57a34.95 34.95 0 00-1.77-.884h0a.997.997 0 00-.414-.075 1.09 1.09 0 00-.42.081m-2.757 1.386s0 0 0 0l-.067-.134.067.134zm0 0c.31-.156.615-.315.92-.473a34.622 34.622 0 011.837-.913m0 0s0 0 0 0l-.061-.137m.06.137s0 0 0 0l-.06-.137m-12.853-15.2c-2.057-.954-2.615-1.92-2.377-4.19l2.377 4.19zm16.239 6.204s0 0 0 0l-.083-.125.083.125zm0 0c.234-.156.465-.308.704-.438m0 0s0 0 0 0l-.07-.132.07.132s0 0 0 0zm-4.09 9.434c.271-.121.688-.128.957-.006l-.957.006zm-15.48-26.608l-.117-.093c-.504.639-.435 1.413-.017 2.12l.068.118c.178.305.357.611.568.893.871 1.166 1.248 2.455.992 3.993m-1.493-7.031c-.454.575-.404 1.278-.006 1.952h0l.069.117c.178.306.353.605.558.88h0c.892 1.192 1.282 2.518 1.022 4.094m-1.643-7.043c1.463-1.854 1.972-3.917 1.659-6.235-.098-.722.28-1.336.947-1.603 2.186-.874 3.687-2.379 4.556-4.565.254-.635.843-.925 1.57-.944h0a5.05 5.05 0 01.886.028h0c1.653.248 3.148-.106 4.484-1.134h0c.307-.238.657-.425 1.016-.616l.044-.024h0c.532-.285 1.07-.275 1.612.003h0l.127.063c.17.084.325.16.457.266h0c1.562 1.253 3.308 1.749 5.311 1.42h0c.546-.09 1.011-.016 1.393.201.384.217.698.586.927 1.11h0c.068.157.148.306.225.45l.005.01c.076.141.15.278.212.42m-25.431 11.15l18.035 16.433c-1.91 1.276-2.245 1.306-4.148-.019M51.377 89.8v-.013h-.15m.15.012l-.002.013-.148-.025m.15.012l.003.187c.005.186.01.414-.006.635h0c-.035.495.047.919.242 1.26.195.339.509.608.958.784h0c2.01.79 3.407 2.16 4.167 4.181h0c.023.06.057.12.1.186l.063.093.005.007.071.106m-5.753-7.45c0 .062.002.133.004.21.004.183.008.399-.007.612-.074 1.035.341 1.82 1.295 2.195 1.972.775 3.337 2.114 4.082 4.094.041.11.11.21.18.31l.073.11m.126-.08v-.001l-.126.082m.126-.082c.332.51.804.776 1.406.797m-1.406-.797s0 0 0 0l-.126.082m0 0c.359.551.876.843 1.527.865l.005-.15m5.235 1.135l.086-.123c.475.331.845.572 1.163.73.316.157.572.228.822.228.25-.001.506-.073.824-.23.32-.156.691-.392 1.17-.711h0c.067-.045.136-.088.203-.13a4.984 4.984 0 00.266-.173h0c.962-.672 2.033-.875 3.17-.796h0c.681.048 1.189.08 1.59.067.398-.015.675-.075.902-.202.227-.128.42-.331.633-.663.214-.333.44-.782.74-1.391h0c.576-1.17 1.389-2.117 2.63-2.569.906-.331 1.521-.786 1.873-1.38.351-.594.453-1.35.286-2.308h0c-.224-1.286.06-2.547.918-3.565h0c.651-.77.967-1.505.97-2.228.002-.721-.307-1.457-.961-2.23-.84-.992-1.155-2.225-.931-3.492h0c.175-.985.077-1.765-.28-2.379-.357-.613-.987-1.084-1.924-1.421-1.251-.452-2.076-1.409-2.606-2.598M63.621 99.169l.086-.123c-1.244-.866-2.57-1.256-4.083-1.046-.4.056-.817.048-1.238.034m5.235 1.135l-5.235-1.135m16.78-26.43l.136-.06m-.137.06s0 0 0 0l.137-.06m0 0c.518 1.163 1.318 2.084 2.52 2.517 1.915.691 2.658 1.954 2.3 3.968l-4.82-6.485zm-5.618 38.134v.004l.15.075v-.168l-.15-.075v.164z" fill="#fff" stroke="#fff" stroke-width=".3"/><path d="M67.267 72.422c-2.42-.366-4.714.016-6.89 1.125-.04.02-.078.044-.117.07-.09.056-.179.114-.261.106l7.268-1.3zm0 0c5.72.866 9.846 5.994 9.515 11.84-.32 5.651-5.066 10.308-10.738 10.534a11.318 11.318 0 01-10.713-6.52c-1.927-4.129-1.163-8.988 1.946-12.376m9.99-3.478l-8.162 1.084M57.277 75.9l.11.101s0 0 0 0m-.11-.101l.11.101m-.11-.101c.04-.044.09-.087.139-.129.104-.09.207-.179.228-.285.057-.285.124-.7-.026-.857m-.23 1.372c-3.069 3.344-3.822 8.139-1.921 12.212a11.168 11.168 0 0010.57 6.433c5.596-.222 10.28-4.819 10.595-10.392.327-5.77-3.745-10.83-9.388-11.683-2.388-.361-4.65.014-6.8 1.11h0a1.02 1.02 0 00-.083.048l-.019.013-.081.05a.47.47 0 01-.276.08h-.002 0a5.904 5.904 0 00-.164-.014 4.386 4.386 0 01-.349-.035c-.166-.026-.365-.078-.482-.223m-1.6 2.401a1.196 1.196 0 01.124-.114c.028-.025.059-.051.086-.077.073-.067.168-.165.194-.295h0c.028-.143.061-.328.066-.5a1.079 1.079 0 00-.018-.257.475.475 0 00-.114-.233l-.108.104m1.37-1.029l.117-.094m-.117.094s0 0 0 0l.117-.094m-.117.094a.653.653 0 01-.115-.672.894.894 0 01.498-.47h0c.261-.108.524-.224.788-.34.79-.349 1.596-.704 2.434-.907h0c7.972-1.933 15.633 4.137 15.63 12.337-.002 6.582-5.066 12.103-11.61 12.655l-.013-.15m-7.495-22.547c-.278-.346-.077-.742.324-.91.267-.11.534-.228.8-.346.787-.346 1.576-.693 2.399-.893 7.877-1.91 15.448 4.087 15.445 12.19-.002 6.506-5.006 11.96-11.473 12.507m0 0l.012.15c-6.547.552-12.482-4.022-13.566-10.527-.687-4.123.445-7.748 3.257-10.838M66.6 96.054L56.303 74.839m1.315-.21l.108-.103a.428.428 0 00-.231-.116 1.082 1.082 0 00-.254-.014c-.162.007-.34.039-.477.063l-.021.004h0a.506.506 0 00-.271.175 2.02 2.02 0 00-.091.109h0a2.161 2.161 0 01-.078.092m1.315-.21l-1.315.21m0 0s0 0 0 0l.111.101-.11-.1s0 0 0 0z" fill="#fff" stroke="#fff" stroke-width=".3"/><path d="M66.805 83.525h.003l.002-.197c.003-.26.006-.514-.006-.77h0c-.011-.222-.076-.38-.178-.485-.1-.104-.252-.172-.471-.18l.65 1.632zm0 0v.15m0-.15v.15m0 0c0 .134.002.266.004.396.005.29.009.573-.01.858-.012.202-.076.349-.174.447-.096.097-.241.162-.446.173h0m.626-1.874l-.626 1.874m0 0c-.224.012-.39-.044-.503-.14m.503.14l-.503-.14m-.2-2.897c-.036.814-.041 1.632.003 2.444l-.004-2.444zm0 0c.008-.211.08-.365.188-.465m-.189.465l.189-.465m0 0c.108-.1.27-.16.49-.153l-.49.153zm.012 3.362c-.11-.096-.185-.245-.197-.453l.197.453zm2.71-.419h0c.017-.294.013-.594.008-.887a24.08 24.08 0 01-.004-.386c0-.13.002-.261.004-.395.005-.29.01-.586-.007-.877h0c-.077-1.231-.984-2.122-2.18-2.156h0c-1.19-.033-2.21.794-2.308 2.02a17.424 17.424 0 000 2.83h0c.102 1.226 1.121 2.045 2.315 2.009 1.199-.036 2.097-.924 2.171-2.158z" fill="#fff" stroke="#fff" stroke-width=".3"/><mask id="path-5-outside-1_161_217" maskUnits="userSpaceOnUse" x="57.933" y="79.436" width="6" height="8" fill="#000"><path fill="#fff" d="M57.933 79.436h6v8h-6z"/><path d="M63.167 83.716c0 .445.03.89-.005 1.333-.089 1.132-.978 1.945-2.097 1.947-1.123.003-2.028-.799-2.094-1.94a23.264 23.264 0 010-2.667c.063-1.142.967-1.953 2.087-1.953a2.08 2.08 0 012.102 1.945c.037.444.008.891.008 1.335zm-2.923 1.227c.024.474.331.774.84.757.507-.017.763-.325.793-.81.022-.372.004-.748.004-1.124h-.004c0-.422.098-.876-.031-1.254-.106-.306-.449-.66-.753-.74-.473-.125-.82.237-.847.714"/></mask><path d="M63.167 83.716c0 .445.03.89-.005 1.333-.089 1.132-.978 1.945-2.097 1.947-1.123.003-2.028-.799-2.094-1.94a23.264 23.264 0 010-2.667c.063-1.142.967-1.953 2.087-1.953a2.08 2.08 0 012.102 1.945c.037.444.008.891.008 1.335zm-2.923 1.227c.024.474.331.774.84.757.507-.017.763-.325.793-.81.022-.372.004-.748.004-1.124h-.004c0-.422.098-.876-.031-1.254-.106-.306-.449-.66-.753-.74-.473-.125-.82.237-.847.714" fill="#fff"/><path d="M63.162 85.049l-.3-.024.3.024zm-2.097 1.947v.3-.3zm-2.094-1.94l-.3.017.3-.017zm0-2.667l.3.017-.3-.017zm2.087-1.953v.3-.3zm2.102 1.945l-.299.025.3-.025zm-2.075 3.32l.01.299-.01-.3zm.792-.81l.3.018-.3-.018zm.004-1.125h.3v-.3h-.3v.3zm-.004 0h-.3v.3h.3v-.3zm-.031-1.254l.284-.097-.284.097zm-.753-.74l-.077.29.077-.29zm1.774 1.944c0 .472.03.882-.004 1.309l.598.047c.036-.457.007-.94.007-1.356h-.6zm-.004 1.31c-.077.975-.835 1.668-1.799 1.67l.002.6a2.372 2.372 0 002.395-2.224l-.598-.047zm-1.799 1.67c-.972.003-1.737-.683-1.794-1.658l-.599.035c.076 1.308 1.12 2.227 2.395 2.223l-.002-.6zM59.27 85.04c-.05-.876-.05-1.758 0-2.633l-.599-.035a23.725 23.725 0 000 2.702l.6-.034zm0-2.634c.054-.976.82-1.668 1.788-1.668v-.6c-1.273 0-2.314.928-2.387 2.235l.6.033zm1.788-1.668a1.78 1.78 0 011.803 1.669l.599-.049a2.38 2.38 0 00-2.403-2.22l.001.6zm1.803 1.67c.036.427.007.838.007 1.309h.6c0-.416.03-.9-.009-1.36l-.598.05zm-2.916 2.551c.015.299.122.573.334.768.213.197.5.284.815.274l-.02-.6c-.193.007-.314-.047-.388-.115-.075-.068-.133-.182-.142-.357l-.6.03zM61.095 86c.314-.01.587-.114.783-.324.193-.206.28-.478.298-.767l-.599-.036c-.011.195-.067.319-.136.392-.066.07-.174.129-.367.135l.02.6zm1.081-1.091c.024-.384.005-.787.005-1.143h-.6c0 .396.018.745-.004 1.107l.6.036zm-.295-1.443h-.004v.6h.004v-.6zm.296.3c0-.21.023-.38.033-.632a1.968 1.968 0 00-.08-.719l-.568.195c.046.134.056.297.048.5-.007.177-.033.445-.033.656h.6zm-.047-1.351a1.56 1.56 0 00-.374-.57 1.367 1.367 0 00-.587-.363l-.153.58c.083.022.2.093.316.208a.97.97 0 01.23.34l.568-.195zm-.96-.933a.916.916 0 00-.869.198 1.14 1.14 0 00-.355.789l.6.034a.544.544 0 01.157-.377c.073-.066.173-.1.313-.064l.154-.58z" fill="#fff" mask="url(#path-5-outside-1_161_217)"/><path d="M70.062 86.63l-.032.083 3.873-5.59c.17-.404.113-.816-.33-.902l.03-.147s0 0 0 0c-.184-.036-.368.052-.512.134-.067.039-.134.082-.198.123l-.025.016a2.95 2.95 0 01-.203.122h0a.229.229 0 00-.089.086.396.396 0 00-.034.077 1.324 1.324 0 00-.016.05c0 .004-.002.007-.003.01a.457.457 0 01-.012.039l-.596 1.424c-.54 1.292-1.082 2.584-1.62 3.876-.043.099-.081.2-.133.337l-.1.262zm-14.23-5.477c.033.188.25.35.455.503.067.05.132.099.19.147l-.098.114s0 0 0 0m-.547-.764l2.303.214m-2.303-.214c-.081-.471.33-.605.74-.622l-.74.622zm.548.765a4.134 4.134 0 00-.184-.143l-.004-.002a4.39 4.39 0 01-.207-.162c-.127-.107-.269-.25-.3-.432h0a.663.663 0 01.033-.378.57.57 0 01.218-.255c.179-.117.417-.156.63-.165h0c.223-.008.445-.006.663-.003l.118.002h0c.298.003.544.08.711.26.166.179.23.431.227.728m-1.905.55a.48.48 0 00.226.094 3.75 3.75 0 00.11.019m-.336-.113l.334 4.13m1.57-4.68s0 0 0 0l-.15-.001m.15.001s0 0 0 0l-.15-.001m.15.001c-.012 1.567-.01 3.136 0 4.703m-.15-4.704c-.012 1.568-.01 3.137 0 4.705m.15-.001h-.15m.15 0s0 0 0 0h-.15m.15 0c0 .241-.037.485-.161.67-.131.198-.344.31-.636.304-.294-.005-.5-.128-.625-.33-.117-.19-.15-.434-.148-.668m1.42.025l-1.42-.025s0 0 0 0m0 0c.004-.961.003-1.924.002-2.89V82.03m0 0c.035.006.071.013.113.023l.036-.145h-.15v.122zm14.411-.587l-.002.014c-.032.285-.13.53-.306.702-.18.175-.423.26-.712.253l1.02-.969zm0 0l-.001-.014m0 .014v-.014m0 0c-.02-.273-.099-.518-.263-.697-.167-.183-.405-.278-.704-.286v0h0c-.299-.007-.552.077-.733.251-.18.174-.27.42-.279.7v.001m1.978.031l-1.978-.031m0 0c-.009.287.075.54.247.724m-.247-.724l.247.724m0 0c.173.184.421.284.713.29l-.713-.29zm3.725 3.911c0 .306.099.543.281.71.178.163.42.245.679.28l.02.003.02-.003c.278-.037.525-.131.702-.303.18-.175.272-.416.265-.712h0c-.006-.287-.102-.537-.282-.715-.18-.178-.43-.269-.72-.263h0c-.28.005-.527.095-.702.274-.176.18-.265.432-.263.73zm0 0s0 0 0 0h.15-.15s0 0 0 0z" fill="#fff" stroke="#fff" stroke-width=".3"/></g><defs><clipPath id="clip0_161_217"><path fill="#fff" transform="translate(48 66)" d="M0 0h35.388v45H0z"/></clipPath></defs></svg>