<svg width="50" height="50" fill="none" xmlns="http://www.w3.org/2000/svg"><path fill-rule="evenodd" clip-rule="evenodd" d="M31.901.039C25.555 1.072 20.567 5.62 18.957 11.84c-.37 1.43-.497 4.497-.26 6.307l.117.902-.892-.12c-.491-.065-1.8-.112-2.907-.104-2.258.017-4.056.409-6.008 1.31-1.236.57-1.556 1.032-1.183 1.706.33.596.727.587 2.304-.051.769-.311 1.928-.669 2.575-.794 1.525-.295 4.086-.29 5.494.009 5.168 1.099 9.363 5.34 10.45 10.566.3 1.44.3 4.21 0 5.65-.544 2.615-1.744 4.814-3.717 6.808-1.973 1.995-4.147 3.208-6.734 3.759-1.423.302-4.164.302-5.587 0-5.16-1.098-9.365-5.35-10.45-10.567-.297-1.423-.3-4.013-.01-5.554.125-.655.478-1.826.785-2.604.632-1.595.64-1.996.05-2.33-.931-.527-1.714.613-2.574 3.747C.05 31.792 0 32.258 0 34.397c-.001 2.044.055 2.638.354 3.76 1.534 5.74 5.81 10.031 11.433 11.47 1.969.504 5.443.496 7.333-.017 5.633-1.529 9.86-5.806 11.319-11.454.37-1.43.496-4.499.26-6.306l-.118-.902.893.119c1.787.238 4.822.11 6.237-.263 5.585-1.475 9.81-5.742 11.33-11.444.513-1.927.513-5.592 0-7.519C47.538 6.21 43.443 2.01 37.942.463 36.851.156 36.095.059 34.458.017c-1.15-.03-2.301-.02-2.557.022zm4.886 2.17c5.16 1.098 9.365 5.35 10.45 10.567.129.617.234 1.888.234 2.825 0 3.849-1.254 6.906-3.95 9.633-2.001 2.022-4.168 3.22-6.837 3.778-1.406.294-4.76.228-6.022-.12-.745-.204-.796-.255-1.336-1.327-1.637-3.252-3.95-5.591-7.167-7.246-1.06-.546-1.11-.598-1.313-1.35-.343-1.277-.409-4.668-.118-6.09 1.072-5.242 5.234-9.524 10.359-10.66 1.335-.295 4.331-.3 5.7-.01zm-9.89 10.39c-1.48.534-2.17 1.614-1.451 2.272.398.365.88.323 1.542-.132a2.1 2.1 0 011.21-.392c.426 0 .83.13 1.21.392.84.576 1.548.503 1.807-.187.216-.572-.173-1.17-1.087-1.673-1.044-.574-2.15-.67-3.231-.28zm11.964-.14c-1.37.33-2.375 1.337-2.091 2.093.26.69.968.763 1.807.187a2.105 2.105 0 011.21-.392c.428 0 .83.13 1.21.392.675.464 1.216.5 1.57.105.665-.743-.112-1.836-1.629-2.291-.858-.258-1.315-.279-2.077-.095zm-9.298 6.51c-.348.536-.1 1.095.788 1.773 1.102.842 2.129 1.173 3.642 1.173s2.54-.33 3.641-1.173c.888-.678 1.136-1.237.789-1.773-.356-.548-1.037-.52-1.767.071a5.09 5.09 0 01-1.25.705c-1.358.483-2.951.208-4.076-.705-.73-.592-1.412-.62-1.767-.07zM4.748 23.136c-.384.144-.661.706-.533 1.08.27.786 1.043 1.015 1.583.47.734-.743-.064-1.92-1.05-1.55zm5.817 7.306c-.131.15-.282.42-.336.599-.053.179-.31.531-.57.783-.422.409-.584.46-1.492.469-.869.009-1.062.064-1.307.37-1.217 1.519 1.74 2.308 3.663.978.809-.56 1.626-1.79 1.626-2.448 0-.893-1.035-1.384-1.584-.751zm8.347.012c-.14.158-.256.502-.256.766 0 .63.836 1.874 1.626 2.42 1.923 1.331 4.88.542 3.663-.977-.245-.306-.438-.361-1.307-.37-.908-.01-1.07-.06-1.492-.469-.26-.252-.517-.604-.57-.783-.254-.845-1.15-1.16-1.664-.587zm-5.72 7.298c-1.016.422-1.862 1.028-2.23 1.596-.308.476-.1 1.071.466 1.332.396.183.728.047 1.787-.727.953-.697 2.33-.886 3.467-.476.32.115.965.476 1.433.802.752.523.894.57 1.24.411.593-.273.8-.86.48-1.356-1.104-1.701-4.443-2.497-6.643-1.582z" fill="#0B5285"/></svg>