<svg width="50" height="42" fill="none" xmlns="http://www.w3.org/2000/svg"><path d="M18.158 25.8c.353 1.62.407 3.102-.026 4.587-1.37 4.698-6.822 7.06-11.19 4.84-.505-.256-.976-.55-.653-1.18.307-.596.825-.38 1.288-.148 3.662 1.83 7.884-.151 9.06-3.682.74-2.217.36-4.26-1.028-6.118-.403-.538-.861-1.033-1.399-1.671-.404.474-.811.896-1.148 1.365-.311.433-.614.862-1.185.489-.562-.367-.372-.884-.04-1.286.493-.595.997-1.202 1.593-1.684.776-.628.777-.744.034-1.346-.615-.498-1.136-1.122-1.645-1.737-.337-.408-.495-.926.088-1.27.538-.32.833.079 1.137.478.4.523.86 1 1.288 1.488 3.158-2.523 3.526-6.9.941-9.715-2.55-2.78-6.852-2.802-9.521-.043-2.552 2.643-3.768 5.893-4.15 9.467-.427 3.972.17 7.782 2.172 11.3.295.518.656 1 1 1.488.305.429.455.87-.052 1.22-.469.323-.83.042-1.124-.341-1.686-2.189-2.71-4.676-3.194-7.373-.965-5.379-.276-10.47 2.874-15.064 1.39-2.03 3.15-3.617 5.683-4.056 3.14-.543 5.794.387 7.774 2.883 1.983 2.502 2.207 5.303 1.01 8.236-.068.165-.149.328-.29.638 1.26-.267 2.27-.763 2.934-1.715 1.436-2.06 2.681-4.16 2.443-6.884-.188-2.143-.043-4.314-.036-6.475C22.8.976 23.673-.008 24.986 0c1.303.008 2.166.999 2.17 2.518.009 2.602-.058 5.204.037 7.803.034.924.374 1.862.71 2.744.275.721.748 1.366 1.133 2.043.737 1.291 1.842 2.08 3.408 2.463-.105-.28-.17-.48-.253-.672-1.597-3.706-.342-7.899 2.998-10.014 3.322-2.102 7.604-1.478 10.28 1.5.19.213.478.403.542.65.085.324-.007.696-.023 1.046-.332-.02-.709.05-.986-.085-.283-.136-.47-.471-.7-.72-2.478-2.687-6.487-2.903-9.181-.496-2.68 2.395-2.897 6.44-.49 9.18l.905 1.02c.471-.519.941-.976 1.34-1.49.32-.409.603-.875 1.186-.524.579.35.41.876.067 1.274a17.311 17.311 0 01-1.78 1.817c-.527.454-.526.668-.009 1.138.682.62 1.31 1.31 1.904 2.015.303.359.263.808-.171 1.083-.439.276-.77.073-1.056-.315-.377-.514-.791-1.003-1.194-1.507-3.729 3.373-3.565 7.45-1.042 10.128 2.506 2.661 6.702 2.678 9.3.075 2.347-2.354 3.6-5.26 4.117-8.492.612-3.832.272-7.569-1.356-11.137-.222-.486-.35-.995.27-1.257.573-.243.873.167 1.06.63 2.735 6.729 2.524 13.247-1.505 19.433-1.44 2.21-3.401 3.762-6.139 4.141-5.356.74-9.898-4.02-8.894-9.35.042-.226.092-.451.14-.69-.691.106-1.025.46-1.108 1.236-.052.49-.028.987-.028 1.482-.003 3.485.017 6.971-.013 10.456-.014 1.725-1.706 2.757-3.172 1.974-.69-.37-1.098-.959-1.131-1.75a55.37 55.37 0 01-.034-2.496c.007-3.303-.036-6.608.054-9.909.069-2.44 1.38-4.126 3.587-5.13.116-.052.227-.116.497-.257-2.445-.874-4.2-2.394-5.44-4.726-1.25 2.26-2.958 3.852-5.443 4.7.257.145.415.246.582.326 2.095 1.004 3.407 2.627 3.464 4.968.1 4.107.073 8.219.048 12.329-.008 1.342-.997 2.238-2.232 2.197-1.235-.04-2.087-.966-2.092-2.341-.014-3.773-.006-7.544-.006-11.317.006-.788-.144-1.495-1.149-1.895zm16.23-4.49c.2-1.17.05-1.44-.933-1.786-.783-.276-1.573-.537-2.352-.829-1.388-.518-2.474-1.41-3.233-2.688-.384-.647-.74-1.314-1.131-1.957-.725-1.186-1.057-2.462-1.04-3.857.031-2.418.01-4.837.008-7.257 0-.234.072-.52-.036-.69-.183-.29-.48-.507-.729-.754-.226.242-.504.458-.662.739-.101.18-.031.457-.031.691-.002 2.471-.016 4.942.005 7.413.01 1.285-.413 2.415-.934 3.575-1.328 2.96-3.462 4.874-6.657 5.563-.102.022-.198.062-.297.098-.849.308-1.046.74-.738 1.773 1.22-.426 2.44-.847 3.657-1.278 1.79-.634 3.145-1.792 4.1-3.425.277-.471.52-.963.825-1.414.42-.626 1.096-.62 1.537-.01.122.166.235.347.317.536 1.572 3.621 4.927 4.561 8.323 5.557zm-17.964 1.33c.476.888 1.052 1.43 1.987 1.695 1.664.47 2.332 1.486 2.348 3.231.004.545.001 1.091.001 1.636 0 3.222 0 6.442.002 9.664 0 .509.103.977.727.986.525.008.709-.371.709-.841-.003-4.026.025-8.053-.036-12.079-.022-1.462-.745-2.681-2.037-3.388-.9-.492-1.917-.774-2.902-1.091-.215-.067-.513.115-.8.187zm17.139-.056c-.39-.03-.73-.113-1.049-.064-.406.062-.796.23-1.193.354-2.452.763-3.56 2.257-3.563 4.833-.006 3.637-.002 7.274 0 10.91 0 .232-.053.514.056.686.147.23.426.517.651.52.226.003.528-.27.665-.501.119-.197.064-.505.064-.764.003-3.662-.003-7.325.005-10.987.003-1.745.683-2.765 2.341-3.236.934-.264 1.517-.8 2.023-1.751z" fill="#0B5285"/></svg>