<svg width="50" height="50" fill="none" xmlns="http://www.w3.org/2000/svg"><path d="M20.363 20.86c.325-.798.645-1.539.917-2.296.065-.18.02-.451-.072-.632-.973-1.894-.841-3.694.376-5.441a1.57 1.57 0 00.246-.864c-.015-2.056.88-3.546 2.73-4.427.372-.178.498-.344.462-.765-.146-1.672.562-2.886 2.036-3.696.761-.418 1.45-.963 2.21-1.381A15.966 15.966 0 0131.56.3c1.285-.459 2.543-.44 3.682.573 1.713-1.442 3.468-.86 5.155.012A32.247 32.247 0 0144.1 3.15c1.296.91 1.614 2.274 1.418 3.594.824.682 1.617 1.21 2.245 1.89.74.803.943 1.852.957 2.942.005.339.116.723.302 1.003 1.122 1.687 1.258 3.412.375 5.244-.128.267-.128.715.011.973 1.117 2.08.532 4.355-1.508 5.533-.371.215-.504.41-.485.85.1 2.337-1.062 3.92-3.288 4.592-.233.07-.502.216-.627.41-1.76 2.724-5.843 3.05-8.003.345-.047-.06-.122-.099-.103-.084-.853.564-1.61 1.272-2.506 1.604-.899.334-1.937.293-2.983.424.716 5.907-1.134 10.945-6.076 14.63-3.278 2.446-7.042 3.356-11.072 2.679-8.67-1.45-14.217-9.494-12.42-17.934 1.848-8.683 10.962-14.252 20.026-10.984zM1.846 34.859a13.224 13.224 0 0013.247 13.297c7.337.003 13.307-5.95 13.307-13.272 0-7.27-5.954-13.242-13.239-13.282-7.318-.037-13.302 5.921-13.315 13.257zm46.087-15.092c-1.005.23-1.935.506-2.883.616-.239.026-.697-.456-.758-.763-.044-.222.38-.568.644-.804.116-.103.355-.062.537-.09 1.286-.2 2.19-.904 2.625-2.122.422-1.182.232-2.318-.625-3.244-.445-.48-.556-.946-.488-1.568.163-1.497-.62-2.737-1.93-3.172-1.392-.464-2.802.085-3.571 1.433-.294.516-.635.918-1.242.595-.657-.348-.49-.913-.2-1.435.68-1.218 1.69-2.03 3.067-2.281.664-.122.792-.488.758-1.05-.054-.859-.597-1.518-1.458-1.759-.878-.245-1.685.062-2.239.916-.32.495-.678.878-1.275.52-.644-.39-.468-.966-.112-1.436.39-.514.872-.957 1.41-1.533-.673-.268-1.303-.592-1.969-.768-1.432-.376-2.102.167-2.115 1.665-.016 1.846-.005 3.691-.005 5.538v1.05l.5-.075c.576-.086 1.176-.132 1.33.6.157.741-.376.926-.975 1.048-.61.124-.855.567-.853 1.163.001 4.93-.018 9.863.017 14.793.011 1.505 1.092 2.73 2.525 3.063a3.225 3.225 0 003.556-1.614c.294-.544.652-.803 1.275-.883 1.696-.212 2.674-1.818 2.154-3.438-.377-1.17-.3-1.312.9-1.626 1.59-.416 2.274-2.228 1.4-3.339zm-25.272-.096c-.726 1.064-.555 1.976.495 2.658 2.716 1.762 4.678 4.147 5.85 7.161.212.546.54.86 1.07 1.054 2.196.799 4.356-.81 4.364-3.305.015-5.719.006-11.437.004-17.155 0-1.186-.101-1.26-1.212-1.695-.286-.113-.67-.601-.614-.82.076-.305.484-.601.817-.745.248-.106.604.035.941.07 0-1.367.073-2.708-.025-4.035-.067-.897-.598-1.272-1.484-1.106-.853.16-1.673.503-2.682.821.375.307.58.429.724.6.367.438.796.86 1.023 1.368.11.249-.081.834-.312.972-.231.138-.7-.048-1.029-.179-.161-.065-.23-.34-.362-.503-.484-.601-1.116-.88-1.881-.756-.76.123-1.295.561-1.568 1.29-.348.92-.124 1.349.816 1.594 1.446.377 2.502 1.244 3.04 2.631.106.274-.11.894-.352 1.02-.243.128-.713-.138-1.063-.285-.114-.05-.155-.265-.237-.4-.747-1.232-2.133-1.754-3.484-1.316-1.28.415-2.15 1.689-1.967 3.073.095.725-.09 1.225-.554 1.779-1.61 1.922-.5 4.811 1.975 5.245.234.041.523-.005.691.12.264.198.641.53.613.761-.037.3-.377.662-.678.798-.272.123-.68.034-1.001-.057-.647-.185-1.279-.435-1.918-.659z" fill="#0B5285"/><path d="M42.047 22.978c-.015-2.334-1.82-4.14-3.928-4.128-.573.003-1.023.179-1.05.81-.025.587.38.763.917.869.55.109 1.155.258 1.587.585 1.05.796 1.063 2.32.08 3.437-.721.82-1.204 1.721-1.262 2.826-.029.536.13.973.721 1.035.58.06.776-.326.945-.842.221-.679.497-1.381.92-1.946.638-.86 1.043-1.757 1.07-2.646zm.659-6.989c.775-.546 1.433-.967 2.04-1.452.422-.337.523-.822.129-1.244-.397-.426-.83-.304-1.253.048-1.613 1.329-2.91 1.36-4.619.107-.448-.33-.873-.407-1.252.038-.386.456-.246.953.201 1.225.752.455 1.576.788 2.35 1.207.315.17.601.411.866.657.549.51 1.034 1.096 1.621 1.555.374.291.882.256 1.171-.215.304-.495.114-.893-.343-1.207-.315-.219-.603-.474-.911-.719z" fill="#fff"/><path d="M18.7 28.214c.423.08 1.067.191 1.71.321.533.108 1.275-.45 1.327-1.027.025-.288-.002-.58.022-.868.041-.513.315-.936.834-.82.313.07.587.481.796.794.112.17.052.453.074.738.284.026.592-.032.779.091.311.21.756.537.753.809-.003.282-.434.627-.753.813-.219.128-.576-.013-.853.05-.4.091-.783.257-1.286.43 1.112 1.4 1.547 2.79 1.144 4.51.799 0 1.544.009 2.29-.004.616-.01 1.159.122 1.156.86-.003.697-.545.819-1.119.819-.87.001-1.744-.04-2.61.02-.395.027-.774.255-1.25.423.82 1.255 1.075 2.414.653 3.691-.19.576.307.723.704.815.326.075.682.02 1.025.027.548.01.948.234.948.824 0 .586-.397.817-.945.833-.181.004-.362.02-.628.038-.025.299.038.628-.091.84-.182.297-.532.73-.765.702-.305-.034-.658-.411-.821-.727-.14-.276-.005-.678-.06-1.012-.084-.492-.323-.794-.869-.454-.97.605-2 .782-3.104.442a.743.743 0 00-.307-.048c-.25.035-1.503 1.598-1.507 1.869-.006.527.005 1.055-.006 1.582-.013.52-.282.88-.802.904-.532.023-.9-.347-.837-.844.153-1.193-.242-1.781-1.462-2.139-1.191-.35-1.712-1.482-1.88-2.688-1.18-.29-2.473.7-2.492 1.873-.003.236.052.53-.065.695-.179.25-.495.577-.732.562-.285-.02-.63-.314-.798-.583-.147-.237-.085-.604-.119-.954l-.724-.062c-.52-.042-.856-.299-.848-.843.01-.549.364-.807.881-.8.797.009 1.598.061 2.046-.687-.394-.687-.888-1.3-1.108-2.002-.213-.675-.145-1.44-.212-2.294-.652 0-1.381-.002-2.11 0-.606.002-1.186-.131-1.173-.856.013-.717.584-.836 1.196-.828 1.029.016 2.057.005 3.086.004.6-.002.89-.15.788-.896-.097-.704-.003-1.473.188-2.163.14-.505.06-.745-.324-1.047-.627-.494-1.203-.991-2.103-.858-.597.087-1.157-.116-1.15-.856.006-.698.539-.821 1.115-.824.128 0 .255-.027.445-.05.028-.297-.032-.63.1-.843.188-.294.518-.685.787-.685.27 0 .557.413.806.676.07.072.05.26.027.384-.238 1.204.762 1.929 1.465 2.003.883.095 1.935-.43 2.746-.949.608-.39.967-1.18 1.406-1.815.121-.176.163-.429.178-.65.037-.499-.063-1.03.081-1.49.09-.286.51-.626.802-.645.244-.017.529.386.773.625.056.056.042.206.025.307-.168.99.137 1.58 1.14 2.032.624.285.993 1.136 1.616 1.905zm.127 1.712a2.893 2.893 0 00-2.688 1.842c-.386.998-.11 1.253.62 1.974.94.93 1.995 1.27 3.217 1.317.317.013.73-.06.946-.258.82-.75 1.029-2.076.578-3.131a2.88 2.88 0 00-2.673-1.744zm-8.54 3.14c.754.241 1.477.396 2.126.708.39.187.607.128.98-.017.722-.282 1.005-.714.944-1.467-.022-.275.17-.571.145-.845-.03-.323-.098-.733-.311-.934-.777-.737-2.034-.776-2.93-.177-.948.633-1.298 1.704-.955 2.731zm8.558 3.509a2.07 2.07 0 00-2.08 2.03c-.015 1.142.963 2.114 2.108 2.093a2.047 2.047 0 002.016-2.084c-.005-1.158-.89-2.04-2.044-2.04zM10.53 39.03c.074-.006.179-.014.283-.026 1.047-.132 1.335-.59 1.106-1.603-.103-.451-.153-.956-.059-1.4.13-.608-.178-.812-.628-.977a2.058 2.058 0 00-2.23.568c-.566.652-.708 1.4-.358 2.201.348.802.987 1.198 1.886 1.237zm3.7 3.238c.767.006 1.635-.616 1.683-1.155.04-.467-.678-1.17-1.304-1.298-.28-.057-.55-.198-.83-.217-.243-.015-.542.018-.735.15-.519.35-.502.877-.305 1.404.267.719.824 1.05 1.492 1.116zm2.146-6.676c-.514-.67-1.258-.881-2.001-.516a1.637 1.637 0 00-.87 1.852c.197.786.751 1.199 1.47 1.186l1.401-2.522zm.364-6.902c-.014-.723-.622-1.251-1.207-1.256-.557-.005-1.347.601-1.146.935.27.448.776.926 1.252 1.019.335.065.793-.486 1.101-.698zm25.307-5.712c-.025.89-.43 1.787-1.07 2.646-.423.565-.699 1.266-.92 1.946-.168.516-.363.904-.945.842-.592-.062-.75-.5-.721-1.035.058-1.104.54-2.006 1.262-2.826.985-1.115.97-2.64-.08-3.437-.432-.327-1.038-.477-1.587-.585-.535-.106-.942-.282-.916-.869.026-.631.476-.807 1.048-.81 2.108-.013 3.912 1.796 3.93 4.128zm.659-6.988c.31.244.598.5.91.716.458.316.648.713.344 1.207-.29.472-.796.506-1.17.215-.588-.457-1.073-1.044-1.623-1.555-.264-.247-.55-.486-.865-.657-.775-.419-1.6-.751-2.35-1.207-.447-.272-.587-.769-.2-1.225.376-.446.803-.367 1.251-.038 1.709 1.254 3.006 1.223 4.619-.107.425-.351.856-.472 1.253-.048.395.423.292.907-.128 1.244-.608.487-1.266.908-2.041 1.454zm-14.572 7.289c-.005-2.587 1.685-4.358 3.785-4.427.579-.02 1.118.087 1.182.75.063.666-.409.883-1.018.916-1.006.053-1.769.516-2.131 1.48-.358.95-.124 1.816.557 2.551.76.822 1.228 1.76 1.272 2.893.019.516-.177.902-.712.963-.573.067-.782-.29-.951-.818-.226-.702-.533-1.413-.964-2.006-.61-.84-1.014-1.71-1.02-2.302zm-.312-7.298c-.772-.544-1.432-.966-2.04-1.454-.422-.338-.523-.815-.115-1.239.405-.42.836-.3 1.258.045 1.628 1.333 2.902 1.365 4.616.104.446-.327.875-.42 1.253.025.38.447.266.945-.184 1.233-.697.446-1.432.869-2.205 1.15-.492.18-.82.361-1.127.82-.38.568-.943 1.041-1.5 1.454-.411.305-.924.272-1.23-.24-.313-.527-.033-.88.402-1.186.309-.22.589-.479.872-.712z" fill="#0B5285"/></svg>