<svg width="50" height="50" fill="none" xmlns="http://www.w3.org/2000/svg"><path d="M26.14 50c-3.963-.03-7.639-.695-10.994-2.666-1.771-1.041-3-2.637-4.255-4.208-1.012-1.268-2.307-1.067-2.943.445-.131.31-.251.639-.297.97-.107.775-.17 1.556-.243 2.334-.025.26-.003.525-.047.781-.097.56-.431.888-1.012.89-.55.001-.95-.319-.973-.832-.093-2.078-.032-4.166 1.223-5.945 1.426-2.022 4.049-2.074 5.693-.171.631.73 1.202 1.512 1.839 2.237 1.909 2.166 4.461 3.157 7.18 3.642 5.893 1.05 11.566.466 16.788-2.73 3.873-2.371 6.62-5.71 8.173-9.976 1.94-5.33 2.304-10.759.58-16.22-1.077-3.416-2.978-6.24-6.42-7.64-1.135-.462-2.399-.685-3.625-.809-1.2-.12-2.218-.447-3.066-1.32-1.898-1.954-3.446-4.117-4.128-6.809a4.15 4.15 0 01-.11-.773c-.039-.63.198-1.095.862-1.183.661-.088 1.053.29 1.145.911.24 1.63 1.045 2.992 1.951 4.311.177.258.38.498.564.752.906 1.258 1.992 1.907 3.665 2.083 5.195.543 8.626 3.607 10.595 8.353 1.944 4.683 2.084 9.55 1.192 14.48-.725 4.005-2.244 7.668-4.845 10.813-3.874 4.686-8.896 7.274-14.885 8.027-.44.055-.878.123-1.319.15-.809.048-1.615.073-2.288.103z" fill="#0B5285"/><path d="M26.154 46.25c-4.244-.083-7.576-.693-10.47-2.743-1.905-1.35-2.892-3.243-2.528-5.618.357-2.334 1.898-3.716 4.061-4.405.834-.265 1.721-.39 2.595-.5 3.067-.388 6.182-.53 9.2-1.155 4.678-.97 8.638-3.227 11.34-7.393 1.246-1.924 3.222-1.698 4.162.403 1.775 3.964 1.154 7.796-1.104 11.276-4.216 6.49-10.324 9.795-17.256 10.135zm16.183-21.07c-.302.43-.49.7-.681.97-.197.276-.385.559-.594.825-2.862 3.657-6.71 5.789-11.13 6.75-3.11.674-6.33.84-9.49 1.292-1.146.164-2.347.325-3.384.795-2.084.943-2.562 3.357-1.088 5.116a5.994 5.994 0 001.808 1.454c4.042 2.075 8.29 2.289 12.59 1.043 4.802-1.391 8.65-4.193 11.317-8.463 1.604-2.571 2.264-5.38 1.275-8.39-.14-.43-.369-.83-.623-1.391z" fill="#0B5285"/><path d="M.017 45.39c.027-2.258.227-4.494 1.15-6.588 1.265-2.872 3.42-4.554 6.593-4.752 1.211-.075 2.315-.386 3.232-1.189 1.787-1.567 3.852-2.646 6.003-3.605 4.229-1.882 6.914-5.256 8.738-9.387.916-2.07 1.67-4.214 2.52-6.314.16-.397.131-.637-.198-.943-2.846-2.632-4.021-6.08-4.644-9.778-.128-.756.25-1.297.859-1.333.692-.041 1.043.372 1.157 1.021.392 2.228.992 4.399 2.217 6.314.595.932 1.375 1.765 2.174 2.537.616.594.883 1.202.667 2.017a7.08 7.08 0 01-.256.82c-.83 2.08-1.63 4.175-2.509 6.235-2.068 4.852-5.218 8.701-10.16 10.843-1.874.81-3.637 1.791-5.204 3.123-1.203 1.023-2.6 1.567-4.197 1.694-3.174.255-5.064 1.94-5.624 5.09-.278 1.562-.323 3.163-.464 4.748-.03.337.011.682-.028 1.016-.065.563-.386.92-.968.935-.62.016-.983-.348-1.047-.94-.056-.512-.01-1.041-.01-1.563z" fill="#0B5285"/></svg>